<?xml version="1.0" encoding="us-ascii" standalone="no"?><svg xmlns="http://www.w3.org/2000/svg" xmlns:xlink="http://www.w3.org/1999/xlink" contentStyleType="text/css" height="718px" preserveAspectRatio="none" style="width:1179px;height:718px;background:#FFFFFF;" version="1.1" viewBox="0 0 1179 718" width="1179px" zoomAndPan="magnify"><defs/><g><text fill="#000000" font-family="sans-serif" font-size="14" font-weight="bold" lengthAdjust="spacing" textLength="364" x="408.5" y="27.9951">Attitude and Orbit Control General Sequence</text><rect fill="none" height="347.2031" style="stroke:#000000;stroke-width:1.5;" width="925" x="247" y="273.2578"/><rect fill="none" height="90.2031" style="stroke:#000000;stroke-width:1.5;" width="649.5" x="393.5" y="523.2578"/><line style="stroke:#181818;stroke-width:0.5;stroke-dasharray:5.0,5.0;" x1="48" x2="48" y1="118.5938" y2="637.4609"/><line style="stroke:#181818;stroke-width:0.5;stroke-dasharray:5.0,5.0;" x1="118" x2="118" y1="118.5938" y2="637.4609"/><line style="stroke:#181818;stroke-width:0.5;stroke-dasharray:5.0,5.0;" x1="446.5" x2="446.5" y1="118.5938" y2="637.4609"/><line style="stroke:#181818;stroke-width:0.5;stroke-dasharray:5.0,5.0;" x1="989" x2="989" y1="118.5938" y2="637.4609"/><line style="stroke:#181818;stroke-width:0.5;stroke-dasharray:5.0,5.0;" x1="1074" x2="1074" y1="118.5938" y2="637.4609"/><line style="stroke:#181818;stroke-width:0.5;stroke-dasharray:5.0,5.0;" x1="1139" x2="1139" y1="118.5938" y2="637.4609"/><text fill="#000000" font-family="sans-serif" font-size="14" lengthAdjust="spacing" textLength="80" x="5" y="115.292">aocs_client</text><ellipse cx="48" cy="50.7969" fill="#E2E2F0" rx="8" ry="8" style="stroke:#181818;stroke-width:0.5;"/><path d="M48,58.7969 L48,85.7969 M35,66.7969 L61,66.7969 M48,85.7969 L35,100.7969 M48,85.7969 L61,100.7969 " fill="none" style="stroke:#181818;stroke-width:0.5;"/><text fill="#000000" font-family="sans-serif" font-size="14" lengthAdjust="spacing" textLength="80" x="5" y="649.4561">aocs_client</text><ellipse cx="48" cy="661.2578" fill="#E2E2F0" rx="8" ry="8" style="stroke:#181818;stroke-width:0.5;"/><path d="M48,669.2578 L48,696.2578 M35,677.2578 L61,677.2578 M48,696.2578 L35,711.2578 M48,696.2578 L61,711.2578 " fill="none" style="stroke:#181818;stroke-width:0.5;"/><rect fill="#E2E2F0" height="30.2969" rx="2.5" ry="2.5" style="stroke:#181818;stroke-width:0.5;" width="34" x="101" y="87.2969"/><text fill="#000000" font-family="sans-serif" font-size="14" lengthAdjust="spacing" textLength="20" x="108" y="107.292">OS</text><rect fill="#E2E2F0" height="30.2969" rx="2.5" ry="2.5" style="stroke:#181818;stroke-width:0.5;" width="34" x="101" y="636.4609"/><text fill="#000000" font-family="sans-serif" font-size="14" lengthAdjust="spacing" textLength="20" x="108" y="656.4561">OS</text><rect fill="#E2E2F0" height="30.2969" rx="2.5" ry="2.5" style="stroke:#181818;stroke-width:0.5;" width="87" x="403.5" y="87.2969"/><text fill="#000000" font-family="sans-serif" font-size="14" lengthAdjust="spacing" textLength="73" x="410.5" y="107.292">aocs_cntrl</text><rect fill="#E2E2F0" height="30.2969" rx="2.5" ry="2.5" style="stroke:#181818;stroke-width:0.5;" width="87" x="403.5" y="636.4609"/><text fill="#000000" font-family="sans-serif" font-size="14" lengthAdjust="spacing" textLength="73" x="410.5" y="656.4561">aocs_cntrl</text><rect fill="#E2E2F0" height="30.2969" rx="2.5" ry="2.5" style="stroke:#181818;stroke-width:0.5;" width="88" x="945" y="87.2969"/><text fill="#000000" font-family="sans-serif" font-size="14" lengthAdjust="spacing" textLength="74" x="952" y="107.292">datacache</text><rect fill="#E2E2F0" height="30.2969" rx="2.5" ry="2.5" style="stroke:#181818;stroke-width:0.5;" width="88" x="945" y="636.4609"/><text fill="#000000" font-family="sans-serif" font-size="14" lengthAdjust="spacing" textLength="74" x="952" y="656.4561">datacache</text><rect fill="#E2E2F0" height="30.2969" rx="2.5" ry="2.5" style="stroke:#181818;stroke-width:0.5;" width="63" x="1043" y="87.2969"/><text fill="#000000" font-family="sans-serif" font-size="14" lengthAdjust="spacing" textLength="49" x="1050" y="107.292">aocs_if</text><rect fill="#E2E2F0" height="30.2969" rx="2.5" ry="2.5" style="stroke:#181818;stroke-width:0.5;" width="63" x="1043" y="636.4609"/><text fill="#000000" font-family="sans-serif" font-size="14" lengthAdjust="spacing" textLength="49" x="1050" y="656.4561">aocs_if</text><rect fill="#E2E2F0" height="30.2969" rx="2.5" ry="2.5" style="stroke:#181818;stroke-width:0.5;" width="46" x="1116" y="87.2969"/><text fill="#000000" font-family="sans-serif" font-size="14" lengthAdjust="spacing" textLength="32" x="1123" y="107.292">adcs</text><rect fill="#E2E2F0" height="30.2969" rx="2.5" ry="2.5" style="stroke:#181818;stroke-width:0.5;" width="46" x="1116" y="636.4609"/><text fill="#000000" font-family="sans-serif" font-size="14" lengthAdjust="spacing" textLength="32" x="1123" y="656.4561">adcs</text><polygon fill="#181818" points="435,156.293,445,160.293,435,164.293,439,160.293" style="stroke:#181818;stroke-width:1.0;"/><line style="stroke:#181818;stroke-width:1.0;" x1="48" x2="441" y1="160.293" y2="160.293"/><text fill="#000000" font-family="sans-serif" font-size="13" font-weight="bold" lengthAdjust="spacing" textLength="375" x="55" y="155.2271">aocs_cntrl_request_aocs_state(state_id, params)</text><path d="M452,133.5938 L452,173.5938 L872,173.5938 L872,143.5938 L862,133.5938 L452,133.5938 " fill="#FEFFDD" style="stroke:#181818;stroke-width:0.5;"/><path d="M862,133.5938 L862,143.5938 L872,143.5938 L862,133.5938 " fill="#FEFFDD" style="stroke:#181818;stroke-width:0.5;"/><text fill="#000000" font-family="sans-serif" font-size="13" lengthAdjust="spacing" textLength="399" x="458" y="150.6606">All messages in this diagram correspond to synchronous calls.</text><text fill="#000000" font-family="sans-serif" font-size="13" lengthAdjust="spacing" textLength="324" x="458" y="165.7935">Return messages are omitted for clarity purposes.</text><polygon fill="#181818" points="977,195.9922,987,199.9922,977,203.9922,981,199.9922" style="stroke:#181818;stroke-width:1.0;"/><line style="stroke:#181818;stroke-width:1.0;" x1="447" x2="983" y1="199.9922" y2="199.9922"/><text fill="#000000" font-family="sans-serif" font-size="13" font-weight="bold" lengthAdjust="spacing" textLength="352" x="454" y="194.9263">dc_set_aocs_cntrl_sys_state_data(state_data)</text><polygon fill="#181818" points="435,225.125,445,229.125,435,233.125,439,229.125" style="stroke:#181818;stroke-width:1.0;"/><line style="stroke:#181818;stroke-width:1.0;" x1="118" x2="441" y1="229.125" y2="229.125"/><text fill="#000000" font-family="sans-serif" font-size="13" font-weight="bold" lengthAdjust="spacing" textLength="168" x="125" y="224.0591">fs_aocs_cntrl_task(...)</text><polygon fill="#181818" points="977,254.2578,987,258.2578,977,262.2578,981,258.2578" style="stroke:#181818;stroke-width:1.0;"/><line style="stroke:#181818;stroke-width:1.0;" x1="447" x2="983" y1="258.2578" y2="258.2578"/><text fill="#000000" font-family="sans-serif" font-size="13" font-weight="bold" lengthAdjust="spacing" textLength="353" x="454" y="253.1919">dc_get_aocs_cntrl_sys_state_data(state_data)</text><path d="M247,273.2578 L313,273.2578 L313,280.3906 L303,290.3906 L247,290.3906 L247,273.2578 " fill="#EEEEEE" style="stroke:#000000;stroke-width:1.5;"/><rect fill="none" height="347.2031" style="stroke:#000000;stroke-width:1.5;" width="925" x="247" y="273.2578"/><text fill="#000000" font-family="sans-serif" font-size="13" font-weight="bold" lengthAdjust="spacing" textLength="21" x="262" y="286.3247">alt</text><text fill="#000000" font-family="sans-serif" font-size="11" font-weight="bold" lengthAdjust="spacing" textLength="232" x="328" y="285.4683">[state_data contains new request]</text><polygon fill="#181818" points="1062.5,307.5234,1072.5,311.5234,1062.5,315.5234,1066.5,311.5234" style="stroke:#181818;stroke-width:1.0;"/><line style="stroke:#181818;stroke-width:1.0;" x1="447" x2="1068.5" y1="311.5234" y2="311.5234"/><text fill="#000000" font-family="sans-serif" font-size="13" font-weight="bold" lengthAdjust="spacing" textLength="283" x="454" y="306.4575">p_sys_state_chng_req(state, params)</text><polygon fill="#181818" points="458,354.7891,448,358.7891,458,362.7891,454,358.7891" style="stroke:#181818;stroke-width:1.0;"/><line style="stroke:#181818;stroke-width:1.0;" x1="452" x2="1073.5" y1="358.7891" y2="358.7891"/><text fill="#000000" font-family="sans-serif" font-size="13" lengthAdjust="spacing" textLength="184" x="464" y="353.7231">call to ADCS integration logic</text><path d="M257,324.5234 L257,379.5234 L442,379.5234 L442,334.5234 L432,324.5234 L257,324.5234 " fill="#FEFFDD" style="stroke:#181818;stroke-width:0.5;"/><path d="M432,324.5234 L432,334.5234 L442,334.5234 L432,324.5234 " fill="#FEFFDD" style="stroke:#181818;stroke-width:0.5;"/><text fill="#000000" font-family="sans-serif" font-size="13" lengthAdjust="spacing" textLength="147" x="263" y="341.5903">Translations to specific</text><text fill="#000000" font-family="sans-serif" font-size="13" lengthAdjust="spacing" textLength="164" x="263" y="356.7231">ADCS APIs are part of the</text><text fill="#000000" font-family="sans-serif" font-size="13" lengthAdjust="spacing" textLength="157" x="263" y="371.856">aocs_cntrl configuration.</text><polygon fill="#181818" points="1127,402.0547,1137,406.0547,1127,410.0547,1131,406.0547" style="stroke:#181818;stroke-width:1.0;"/><line style="stroke:#181818;stroke-width:1.0;" x1="447" x2="1133" y1="406.0547" y2="406.0547"/><text fill="#000000" font-family="sans-serif" font-size="13" lengthAdjust="spacing" textLength="161" x="454" y="400.9888">call to specific ADCS APIs</text><line style="stroke:#000000;stroke-width:1.0;stroke-dasharray:2.0,2.0;" x1="247" x2="1172" y1="415.0547" y2="415.0547"/><text fill="#000000" font-family="sans-serif" font-size="11" font-weight="bold" lengthAdjust="spacing" textLength="37" x="252" y="425.2651">[else]</text><polygon fill="#181818" points="1062.5,445.9922,1072.5,449.9922,1062.5,453.9922,1066.5,449.9922" style="stroke:#181818;stroke-width:1.0;"/><line style="stroke:#181818;stroke-width:1.0;" x1="447" x2="1068.5" y1="449.9922" y2="449.9922"/><text fill="#000000" font-family="sans-serif" font-size="13" font-weight="bold" lengthAdjust="spacing" textLength="383" x="454" y="444.9263">p_sys_state_get_req_state(state, request_status)</text><polygon fill="#181818" points="458,475.125,448,479.125,458,483.125,454,479.125" style="stroke:#181818;stroke-width:1.0;"/><line style="stroke:#181818;stroke-width:1.0;" x1="452" x2="1073.5" y1="479.125" y2="479.125"/><text fill="#000000" font-family="sans-serif" font-size="13" lengthAdjust="spacing" textLength="184" x="464" y="474.0591">call to ADCS integration logic</text><polygon fill="#181818" points="1127,504.2578,1137,508.2578,1127,512.2578,1131,508.2578" style="stroke:#181818;stroke-width:1.0;"/><line style="stroke:#181818;stroke-width:1.0;" x1="447" x2="1133" y1="508.2578" y2="508.2578"/><text fill="#000000" font-family="sans-serif" font-size="13" lengthAdjust="spacing" textLength="161" x="454" y="503.1919">call to specific ADCS APIs</text><path d="M393.5,523.2578 L459.5,523.2578 L459.5,530.3906 L449.5,540.3906 L393.5,540.3906 L393.5,523.2578 " fill="#EEEEEE" style="stroke:#000000;stroke-width:1.5;"/><rect fill="none" height="90.2031" style="stroke:#000000;stroke-width:1.5;" width="649.5" x="393.5" y="523.2578"/><text fill="#000000" font-family="sans-serif" font-size="13" font-weight="bold" lengthAdjust="spacing" textLength="21" x="408.5" y="536.3247">alt</text><text fill="#000000" font-family="sans-serif" font-size="11" font-weight="bold" lengthAdjust="spacing" textLength="216" x="474.5" y="535.4683">[request_status == COMPLETED]</text><polygon fill="#181818" points="977,557.5234,987,561.5234,977,565.5234,981,561.5234" style="stroke:#181818;stroke-width:1.0;"/><line style="stroke:#181818;stroke-width:1.0;" x1="447" x2="983" y1="561.5234" y2="561.5234"/><text fill="#000000" font-family="sans-serif" font-size="13" font-weight="bold" lengthAdjust="spacing" textLength="508" x="454" y="556.4575">dc_set_aocs_cntrl_sys_state_data(state_data(state, COMPLETED))</text><line style="stroke:#000000;stroke-width:1.0;stroke-dasharray:2.0,2.0;" x1="393.5" x2="1043" y1="570.5234" y2="570.5234"/><text fill="#000000" font-family="sans-serif" font-size="11" font-weight="bold" lengthAdjust="spacing" textLength="225" x="398.5" y="580.7339">[request_status == IN_PROGRESS]</text><polygon fill="#181818" points="977,601.4609,987,605.4609,977,609.4609,981,605.4609" style="stroke:#181818;stroke-width:1.0;"/><line style="stroke:#181818;stroke-width:1.0;" x1="447" x2="983" y1="605.4609" y2="605.4609"/><text fill="#000000" font-family="sans-serif" font-size="13" font-weight="bold" lengthAdjust="spacing" textLength="518" x="454" y="600.395">dc_set_aocs_cntrl_sys_state_data(state_data(state, IN_PROGRESS))</text><!--SRC=[hL9TYzim47pNhzZ71Axv0QLtO7BXE6Zh4D-xsPFNjgWYkTer9V- -aftuWwFqwFN1mf9MCpipAqOiGIPYfAy8q5MGXrSZiFTEWhVmH8u2MYZePqzEar8AjVW0w3MNsXfo0iYGxLM7GOms7SQJl5Xjn-A8Q8VQVB- -hb1GesxfxIDJhyygpR65R0-V7WQSp_3bzM66BqFgawKSZbXGQ3EifQdk82BXcRTAEIy4mJIjgCnQE1CpDiHW74Xh62g3JIm5xKCWxdoqHJpmnUasUETx1etMyawTIFhWPW0C1FviHAY2EhgaBGOZ5-Zwq7cc-88YLgAF8cBxISQaVj1IwPBfslyeYIzN9MMgtCo_KKXUh8oeUVbGa7ziThlTzizKpRkfq0hC- -YC4pIEmT4lk9e-qLoJ6qYw1QXkNPCI6e7dFAxrivJaRd8yUuo0nWd5DCHu1zOtHe_nMQf5lGHqR8Sx7YBgI9iwbWmli-Fp64aQ8V1r39VKOXQZYDeq_OYzY6RI4QTjRkQ63HEs8ii4QVchz6HqLBuSoRkRRyDX_my-lBlF5DwQ3ExlOPz_Etuzl1mUFpwADqKJv7OxclEMzVbxUJpbJwT3KVm_tWLeOdPL-du3]--></g></svg>