<?xml version="1.0" encoding="us-ascii" standalone="no"?><svg xmlns="http://www.w3.org/2000/svg" xmlns:xlink="http://www.w3.org/1999/xlink" contentStyleType="text/css" height="706px" preserveAspectRatio="none" style="width:1012px;height:706px;background:#FFFFFF;" version="1.1" viewBox="0 0 1012 706" width="1012px" zoomAndPan="magnify"><defs/><g><text fill="#000000" font-family="sans-serif" font-size="14" font-weight="bold" lengthAdjust="spacing" textLength="294" x="352" y="22.9951">Attitude and Orbit Control Overview</text><!--cluster Ground Segment--><g id="cluster_Ground Segment"><path d="M765.5,463.2969 L901.5,463.2969 A3.75,3.75 0 0 1 904,465.7969 L911,485.5938 L911.5,485.5938 A2.5,2.5 0 0 1 914,488.0938 L914,587.7969 A2.5,2.5 0 0 1 911.5,590.2969 L765.5,590.2969 A2.5,2.5 0 0 1 763,587.7969 L763,465.7969 A2.5,2.5 0 0 1 765.5,463.2969 " fill="none" style="stroke:#000000;stroke-width:1.5;"/><line style="stroke:#000000;stroke-width:1.5;" x1="763" x2="911" y1="485.5938" y2="485.5938"/><text fill="#000000" font-family="sans-serif" font-size="14" font-weight="bold" lengthAdjust="spacing" textLength="135" x="767" y="478.292">Ground Segment</text></g><!--cluster Satellite--><g id="cluster_Satellite"><path d="M8.5,43.2969 L78.5,43.2969 A3.75,3.75 0 0 1 81,45.7969 L88,65.5938 L620.5,65.5938 A2.5,2.5 0 0 1 623,68.0938 L623,696.7969 A2.5,2.5 0 0 1 620.5,699.2969 L8.5,699.2969 A2.5,2.5 0 0 1 6,696.7969 L6,45.7969 A2.5,2.5 0 0 1 8.5,43.2969 " fill="none" style="stroke:#000000;stroke-width:1.5;"/><line style="stroke:#000000;stroke-width:1.5;" x1="6" x2="88" y1="65.5938" y2="65.5938"/><text fill="#000000" font-family="sans-serif" font-size="14" font-weight="bold" lengthAdjust="spacing" textLength="69" x="10" y="58.292">Satellite</text></g><!--entity op--><g id="elem_op"><ellipse cx="839" cy="506.7969" fill="#F1F1F1" rx="8" ry="8" style="stroke:#181818;stroke-width:0.5;"/><path d="M839,514.7969 L839,541.7969 M826,522.7969 L852,522.7969 M839,541.7969 L826,556.7969 M839,541.7969 L852,556.7969 " fill="none" style="stroke:#181818;stroke-width:0.5;"/><text fill="#000000" font-family="sans-serif" font-size="14" lengthAdjust="spacing" textLength="66" x="806" y="571.292">Operator</text></g><!--entity PS--><g id="elem_PS"><rect fill="#F1F1F1" height="46.2969" rx="2.5" ry="2.5" style="stroke:#181818;stroke-width:0.5;" width="172" x="435" y="78.2969"/><rect fill="#F1F1F1" height="10" style="stroke:#181818;stroke-width:0.5;" width="15" x="587" y="83.2969"/><rect fill="#F1F1F1" height="2" style="stroke:#181818;stroke-width:0.5;" width="4" x="585" y="85.2969"/><rect fill="#F1F1F1" height="2" style="stroke:#181818;stroke-width:0.5;" width="4" x="585" y="89.2969"/><text fill="#000000" font-family="sans-serif" font-size="14" lengthAdjust="spacing" textLength="132" x="450" y="111.292">payload_scheduler</text></g><!--entity conops--><g id="elem_conops"><rect fill="#F1F1F1" height="46.2969" rx="2.5" ry="2.5" style="stroke:#181818;stroke-width:0.5;" width="92" x="22" y="78.2969"/><rect fill="#F1F1F1" height="10" style="stroke:#181818;stroke-width:0.5;" width="15" x="94" y="83.2969"/><rect fill="#F1F1F1" height="2" style="stroke:#181818;stroke-width:0.5;" width="4" x="92" y="85.2969"/><rect fill="#F1F1F1" height="2" style="stroke:#181818;stroke-width:0.5;" width="4" x="92" y="89.2969"/><text fill="#000000" font-family="sans-serif" font-size="14" lengthAdjust="spacing" textLength="52" x="37" y="111.292">conops</text></g><!--entity PC--><g id="elem_PC"><rect fill="#F1F1F1" height="46.2969" rx="2.5" ry="2.5" style="stroke:#181818;stroke-width:0.5;" width="128" x="301" y="201.2969"/><rect fill="#F1F1F1" height="10" style="stroke:#181818;stroke-width:0.5;" width="15" x="409" y="206.2969"/><rect fill="#F1F1F1" height="2" style="stroke:#181818;stroke-width:0.5;" width="4" x="407" y="208.2969"/><rect fill="#F1F1F1" height="2" style="stroke:#181818;stroke-width:0.5;" width="4" x="407" y="212.2969"/><text fill="#000000" font-family="sans-serif" font-size="14" lengthAdjust="spacing" textLength="88" x="316" y="234.292">payload_ctrl</text></g><!--entity AC--><g id="elem_AC"><rect fill="#F1F1F1" height="46.2969" rx="2.5" ry="2.5" style="stroke:#181818;stroke-width:0.5;" width="113" x="460.5" y="354.2969"/><rect fill="#F1F1F1" height="10" style="stroke:#181818;stroke-width:0.5;" width="15" x="553.5" y="359.2969"/><rect fill="#F1F1F1" height="2" style="stroke:#181818;stroke-width:0.5;" width="4" x="551.5" y="361.2969"/><rect fill="#F1F1F1" height="2" style="stroke:#181818;stroke-width:0.5;" width="4" x="551.5" y="365.2969"/><text fill="#000000" font-family="sans-serif" font-size="14" lengthAdjust="spacing" textLength="73" x="475.5" y="387.292">aocs_cntrl</text></g><!--entity gen_1--><g id="elem_gen_1"><rect fill="#F1F1F1" height="46.2969" rx="2.5" ry="2.5" style="stroke:#181818;stroke-width:0.5;" width="107" x="184.5" y="513.2969"/><rect fill="#F1F1F1" height="10" style="stroke:#181818;stroke-width:0.5;" width="15" x="271.5" y="518.2969"/><rect fill="#F1F1F1" height="2" style="stroke:#181818;stroke-width:0.5;" width="4" x="269.5" y="520.2969"/><rect fill="#F1F1F1" height="2" style="stroke:#181818;stroke-width:0.5;" width="4" x="269.5" y="524.2969"/><text fill="#000000" font-family="sans-serif" font-size="14" lengthAdjust="spacing" textLength="67" x="199.5" y="546.292">cubeadcs</text></g><!--entity gen_2--><g id="elem_gen_2"><rect fill="#F1F1F1" height="46.2969" rx="2.5" ry="2.5" style="stroke:#181818;stroke-width:0.5;" width="149" x="326.5" y="513.2969"/><rect fill="#F1F1F1" height="10" style="stroke:#181818;stroke-width:0.5;" width="15" x="455.5" y="518.2969"/><rect fill="#F1F1F1" height="2" style="stroke:#181818;stroke-width:0.5;" width="4" x="453.5" y="520.2969"/><rect fill="#F1F1F1" height="2" style="stroke:#181818;stroke-width:0.5;" width="4" x="453.5" y="524.2969"/><text fill="#000000" font-family="sans-serif" font-size="14" lengthAdjust="spacing" textLength="109" x="341.5" y="546.292">cubeadcs_gen2</text></g><!--entity gen_2_drv--><g id="elem_gen_2_drv"><rect fill="#F1F1F1" height="46.2969" rx="2.5" ry="2.5" style="stroke:#181818;stroke-width:0.5;" width="120" x="341" y="637.2969"/><rect fill="#F1F1F1" height="10" style="stroke:#181818;stroke-width:0.5;" width="15" x="441" y="642.2969"/><rect fill="#F1F1F1" height="2" style="stroke:#181818;stroke-width:0.5;" width="4" x="439" y="644.2969"/><rect fill="#F1F1F1" height="2" style="stroke:#181818;stroke-width:0.5;" width="4" x="439" y="648.2969"/><text fill="#000000" font-family="sans-serif" font-size="14" lengthAdjust="spacing" textLength="80" x="356" y="670.292">libcubeobc</text></g><!--entity es_adcs--><g id="elem_es_adcs"><rect fill="#F1F1F1" height="46.2969" rx="2.5" ry="2.5" style="stroke:#181818;stroke-width:0.5;" width="95" x="54.5" y="513.2969"/><rect fill="#F1F1F1" height="10" style="stroke:#181818;stroke-width:0.5;" width="15" x="129.5" y="518.2969"/><rect fill="#F1F1F1" height="2" style="stroke:#181818;stroke-width:0.5;" width="4" x="127.5" y="520.2969"/><rect fill="#F1F1F1" height="2" style="stroke:#181818;stroke-width:0.5;" width="4" x="127.5" y="524.2969"/><text fill="#000000" font-family="sans-serif" font-size="14" lengthAdjust="spacing" textLength="55" x="69.5" y="546.292">es_adcs</text></g><!--entity if_aocs--><g id="elem_if_aocs"><ellipse cx="238" cy="377.2969" fill="#F1F1F1" rx="8" ry="8" style="stroke:#181818;stroke-width:0.5;"/><text fill="#000000" font-family="sans-serif" font-size="14" font-weight="bold" lengthAdjust="spacing" textLength="118" x="179" y="407.292">if_aocs_cntrl.h</text></g><g id="elem_GMN29"><path d="M642.5,81.2969 L642.5,97.2969 L607.197,101.2969 L642.5,105.2969 L642.5,121.5625 A0,0 0 0 0 642.5,121.5625 L963.5,121.5625 A0,0 0 0 0 963.5,121.5625 L963.5,91.2969 L953.5,81.2969 L642.5,81.2969 A0,0 0 0 0 642.5,81.2969 " fill="#FEFFDD" style="stroke:#181818;stroke-width:0.5;"/><path d="M953.5,81.2969 L953.5,91.2969 L963.5,91.2969 L953.5,81.2969 " fill="#FEFFDD" style="stroke:#181818;stroke-width:0.5;"/><text fill="#000000" font-family="sans-serif" font-size="13" font-style="italic" lengthAdjust="spacing" textLength="242" x="648.5" y="98.3638">Each entry in the binary schedule file</text><text fill="#000000" font-family="sans-serif" font-size="13" font-style="italic" lengthAdjust="spacing" textLength="300" x="648.5" y="113.4966">contains AOCS state and pointing parameters.</text></g><g id="elem_GMN32"><path d="M639.5,204.2969 L639.5,220.2969 L429.072,224.2969 L639.5,228.2969 L639.5,244.5625 A0,0 0 0 0 639.5,244.5625 L900.5,244.5625 A0,0 0 0 0 900.5,244.5625 L900.5,214.2969 L890.5,204.2969 L639.5,204.2969 A0,0 0 0 0 639.5,204.2969 " fill="#FEFFDD" style="stroke:#181818;stroke-width:0.5;"/><path d="M890.5,204.2969 L890.5,214.2969 L900.5,214.2969 L890.5,204.2969 " fill="#FEFFDD" style="stroke:#181818;stroke-width:0.5;"/><text fill="#000000" font-family="sans-serif" font-size="13" font-style="italic" lengthAdjust="spacing" textLength="236" x="649.5" y="221.3638">User payloads are omitted from this</text><text fill="#000000" font-family="sans-serif" font-size="13" font-style="italic" lengthAdjust="spacing" textLength="188" x="649.5" y="236.4966">diagram for clarity purposes.</text></g><!--reverse link PS to op--><g id="link_PS_op"><path d="M613.2165,122.3016 C727.0525,147.3766 908.297,188.8769 918,201.2969 C987.791,290.6289 910.219,431.6499 865.768,498.1959 " fill="none" id="PS-backto-op" style="stroke:#181818;stroke-width:1.0;stroke-dasharray:7.0,7.0;"/><polygon fill="#181818" points="607.357,121.0109,615.2858,126.8533,612.2399,122.0865,617.0068,119.0406,607.357,121.0109" style="stroke:#181818;stroke-width:1.0;"/><text fill="#000000" font-family="sans-serif" font-size="13" lengthAdjust="spacing" textLength="45" x="952.5" y="290.3638">update</text><text fill="#000000" font-family="sans-serif" font-size="13" lengthAdjust="spacing" textLength="58" x="946" y="305.4966">on-board</text><text fill="#000000" font-family="sans-serif" font-size="13" lengthAdjust="spacing" textLength="57" x="946.5" y="320.6294">schedule</text></g><!--link PS to conops--><g id="link_PS_conops"><path d="M434.606,101.2969 C339.32,101.2969 195.553,101.2969 120.35,101.2969 " fill="none" id="PS-to-conops" style="stroke:#181818;stroke-width:1.0;stroke-dasharray:7.0,7.0;"/><polygon fill="#181818" points="114.35,101.2969,123.35,105.2969,119.35,101.2969,123.35,97.2969,114.35,101.2969" style="stroke:#181818;stroke-width:1.0;"/><text fill="#000000" font-family="sans-serif" font-size="13" lengthAdjust="spacing" textLength="284" x="132.5" y="94.3638">pass AOCS state and params from schedule</text></g><!--link conops to PC--><g id="link_conops_PC"><path d="M114.059,108.9289 C156.362,116.2019 220.028,130.1769 271,154.2969 C296.618,166.4199 317.7384,182.0555 335.7794,197.2385 " fill="none" id="conops-to-PC" style="stroke:#181818;stroke-width:1.0;stroke-dasharray:7.0,7.0;"/><polygon fill="#181818" points="340.37,201.1019,336.0596,192.2463,336.5445,197.8824,330.9084,198.3672,340.37,201.1019" style="stroke:#181818;stroke-width:1.0;"/><text fill="#000000" font-family="sans-serif" font-size="13" lengthAdjust="spacing" textLength="248" x="300" y="167.3638">trigger payload activation with params</text></g><!--link PC to conops--><g id="link_PC_conops"><path d="M300.833,221.6459 C248.788,217.6199 175.396,205.6199 121,171.2969 C102.86,159.8509 91.586,145.0404 82.427,129.5174 " fill="none" id="PC-to-conops" style="stroke:#181818;stroke-width:1.0;stroke-dasharray:7.0,7.0;"/><polygon fill="#181818" points="79.378,124.3499,80.5065,134.1339,81.9188,128.6562,87.3965,130.0685,79.378,124.3499" style="stroke:#181818;stroke-width:1.0;"/><text fill="#000000" font-family="sans-serif" font-size="13" lengthAdjust="spacing" textLength="140" x="122" y="167.3638">notify payload events</text></g><!--link PC to AC--><g id="link_PC_AC"><path d="M387.428,247.5779 C416.166,276.1269 461.4403,321.1033 490.2233,349.6963 " fill="none" id="PC-to-AC" style="stroke:#181818;stroke-width:1.0;stroke-dasharray:7.0,7.0;"/><polygon fill="#181818" points="494.48,353.9249,490.914,344.7442,490.9328,350.4011,485.276,350.4198,494.48,353.9249" style="stroke:#181818;stroke-width:1.0;"/><text fill="#000000" font-family="sans-serif" font-size="13" lengthAdjust="spacing" textLength="219" x="465" y="305.3638">trigger and monitor AOCS pointing</text></g><!--link AC to if_aocs--><g id="link_AC_if_aocs"><path d="M460.346,377.2969 C391.348,377.2969 285.951,377.2969 253.283,377.2969 " fill="none" id="AC-to-if_aocs" style="stroke:#181818;stroke-width:1.0;"/><polygon fill="#181818" points="247.283,377.2969,256.283,381.2969,252.283,377.2969,256.283,373.2969,247.283,377.2969" style="stroke:#181818;stroke-width:1.0;"/><text fill="#000000" font-family="sans-serif" font-size="13" lengthAdjust="spacing" textLength="177" x="265.25" y="370.3638">request ADCS state change</text></g><!--link if_aocs to gen_1--><g id="link_if_aocs_gen_1"><path d="M238,386.2979 C238,409.5439 238,477.6659 238,513.1819 " fill="none" id="if_aocs-gen_1" style="stroke:#181818;stroke-width:1.0;"/><text fill="#000000" font-family="sans-serif" font-size="13" font-style="italic" lengthAdjust="spacing" textLength="24" x="239" y="443.3638">0..1</text></g><!--link if_aocs to gen_2--><g id="link_if_aocs_gen_2"><path d="M246.307,386.2979 C270.441,409.5439 341.167,477.6659 378.04,513.1819 " fill="none" id="if_aocs-gen_2" style="stroke:#181818;stroke-width:1.0;"/><text fill="#000000" font-family="sans-serif" font-size="13" font-style="italic" lengthAdjust="spacing" textLength="24" x="306" y="443.3638">0..1</text></g><!--link gen_2 to gen_2_drv--><g id="link_gen_2_gen_2_drv"><path d="M401,559.3899 C401,581.3629 401,614.8959 401,636.9557 " fill="none" id="gen_2-gen_2_drv" style="stroke:#181818;stroke-width:1.0;"/></g><!--link if_aocs to es_adcs--><g id="link_if_aocs_es_adcs"><path d="M229.943,386.6849 C216.587,400.6659 189.138,429.7279 167,455.2969 C150.367,474.5079 132.187,497.0209 119.294,513.2619 " fill="none" id="if_aocs-es_adcs" style="stroke:#181818;stroke-width:1.0;"/><text fill="#000000" font-family="sans-serif" font-size="13" font-style="italic" lengthAdjust="spacing" textLength="24" x="190" y="443.3638">0..1</text></g><!--link op to AC--><g id="link_op_AC"><path d="M805.553,518.9889 C747.488,490.6779 633.3741,435.0385 567.8451,403.0875 " fill="none" id="op-to-AC" style="stroke:#181818;stroke-width:1.0;stroke-dasharray:7.0,7.0;"/><polygon fill="#181818" points="562.452,400.4579,568.7886,407.9976,566.9462,402.6492,572.2947,400.8069,562.452,400.4579" style="stroke:#181818;stroke-width:1.0;"/><text fill="#000000" font-family="sans-serif" font-size="13" font-style="italic" lengthAdjust="spacing" textLength="199" x="650" y="443.3638">optional direct control via FIDL</text></g><!--SRC=[XL9DYzmm3BtxLuWvjOS9tJqkoy2GRKkXC8MXfzabA8wIY6PirrPcMKh_U-Kaym6bz6ZfFJtfFGlBGB0LOHaR0dGDx6BD0gLt4lq0knF54zEhCG7j3-m8Lf-Z7nMtf-v8JbRmoppi0aKK7ny04_XWVj_0zoWq32oKaUOGy6tms5J9zjIC0yMNpFcsDmVhdG_fvGgn4eUvMoeHlKsLTUVQjbJ6M1CsDas5ZbnrTwrL-hw_DExDOU0wztnjhzMgYITpe5HDKyoxzx1wh3VSLbUnebzb-5BBb_a0HJ66ejZesl00OsZqn6VdtRhs69jdTxxD60KeRBvCeG6JRhuhzv14EPFV0ICU4xJH7-52N1XPebIUHEuwYh0u0sY5JoZi7RoozCiCezZYLivvuVRjmgAJvdL17RRboytelChHEzOKvms3PoViEhCjOQsWNjQRimtAY_Hpf2ImVRfSOtjq7Paf25YFONq3V-JDXwAucvht_sas_jMjRm9QylaNA-UnqVymbtp8jk003KUoaisOFlA94JvzUVfgZBf2C1q4liq_JraVqVQWxiGtO0VI4zJiK5_dHA1bZKMHUHwo-pl6nQuv2nAAgJ2aZIotY0xKpffbdWJVqpNI11W9_955g9a_W_IS9bp3sEbCQ3KQEs1aqKp767oY6uq_]--></g></svg>