<?xml version="1.0" encoding="us-ascii" standalone="no"?><svg xmlns="http://www.w3.org/2000/svg" xmlns:xlink="http://www.w3.org/1999/xlink" contentStyleType="text/css" height="469px" preserveAspectRatio="none" style="width:783px;height:469px;background:#FFFFFF;" version="1.1" viewBox="0 0 783 469" width="783px" zoomAndPan="magnify"><defs/><g><text fill="#000000" font-family="sans-serif" font-size="14" font-weight="bold" lengthAdjust="spacing" textLength="80" x="344.87" y="24.5332">conops_sm</text><ellipse cx="384.74" cy="54.6094" fill="#181818" rx="10" ry="10" style="stroke:none;stroke-width:1.0;"/><g id="Safe"><rect fill="#F1F1F1" height="50" rx="12.5" ry="12.5" style="stroke:#181818;stroke-width:0.5;" width="50" x="359.74" y="125.6094"/><line style="stroke:#181818;stroke-width:0.5;" x1="359.74" x2="409.74" y1="153.2188" y2="153.2188"/><text fill="#000000" font-family="sans-serif" font-size="14" lengthAdjust="spacing" textLength="29" x="370.24" y="145.1426">Safe</text></g><g id="Idle"><rect fill="#F1F1F1" height="50" rx="12.5" ry="12.5" style="stroke:#181818;stroke-width:0.5;" width="50" x="200.74" y="269.6094"/><line style="stroke:#181818;stroke-width:0.5;" x1="200.74" x2="250.74" y1="297.2188" y2="297.2188"/><text fill="#000000" font-family="sans-serif" font-size="14" lengthAdjust="spacing" textLength="22" x="214.74" y="289.1426">Idle</text></g><g id="Detumbling"><rect fill="#F1F1F1" height="50" rx="12.5" ry="12.5" style="stroke:#181818;stroke-width:0.5;" width="91" x="418.24" y="269.6094"/><line style="stroke:#181818;stroke-width:0.5;" x1="418.24" x2="509.24" y1="297.2188" y2="297.2188"/><text fill="#000000" font-family="sans-serif" font-size="14" lengthAdjust="spacing" textLength="71" x="428.24" y="289.1426">Detumbling</text></g><g id="Payload"><rect fill="#F1F1F1" height="50" rx="12.5" ry="12.5" style="stroke:#181818;stroke-width:0.5;" width="71" x="390.24" y="413.6094"/><line style="stroke:#181818;stroke-width:0.5;" x1="390.24" x2="461.24" y1="441.2188" y2="441.2188"/><text fill="#000000" font-family="sans-serif" font-size="14" lengthAdjust="spacing" textLength="51" x="400.24" y="433.1426">Payload</text></g><!--link *start* to Safe--><g id="link_*start*_Safe"><path d="M384.74,64.6194 C384.74,77.3094 384.74,101.0194 384.74,120.1794 " fill="none" id="*start*-to-Safe" style="stroke:#181818;stroke-width:1.0;"/><polygon fill="#181818" points="384.74,125.4494,388.74,116.4494,384.74,120.4494,380.74,116.4494,384.74,125.4494" style="stroke:#181818;stroke-width:1.0;"/></g><!--link Safe to Detumbling--><g id="link_Safe_Detumbling"><path d="M377.6,175.8894 C373.58,194.4594 371.22,220.0994 381.74,239.6094 C388.93,252.9594 401.02,263.5494 413.74,271.6894 " fill="none" id="Safe-to-Detumbling" style="stroke:#181818;stroke-width:1.0;"/><polygon fill="#181818" points="418.07,274.3494,412.4939,266.2311,413.8093,271.7329,408.3075,273.0483,418.07,274.3494" style="stroke:#181818;stroke-width:1.0;"/><text fill="#000000" font-family="sans-serif" font-size="13" font-weight="bold" lengthAdjust="spacing" textLength="66" x="382.74" y="220.1045">__periodic</text><text fill="#000000" font-family="sans-serif" font-size="13" lengthAdjust="spacing" textLength="47" x="452.74" y="220.1045">[__auto]</text><text fill="#000000" font-family="sans-serif" font-size="13" lengthAdjust="spacing" textLength="93" x="394.74" y="236.4561">/ detumb_action</text></g><!--link Detumbling to Safe--><g id="link_Detumbling_Safe"><path d="M487.98,269.5194 C503.29,251.2894 517.91,225.9894 504.74,205.6094 C485.06,175.1794 443.69,161.7294 415.07,155.8994 " fill="none" id="Detumbling-to-Safe" style="stroke:#181818;stroke-width:1.0;"/><polygon fill="#181818" points="409.88,154.8894,417.9493,160.5362,414.7878,155.8453,419.4787,152.6837,409.88,154.8894" style="stroke:#181818;stroke-width:1.0;"/><text fill="#000000" font-family="sans-serif" font-size="13" font-weight="bold" lengthAdjust="spacing" textLength="66" x="510.74" y="220.1045">__periodic</text><text fill="#000000" font-family="sans-serif" font-size="13" lengthAdjust="spacing" textLength="47" x="580.74" y="220.1045">[__auto]</text><text fill="#000000" font-family="sans-serif" font-size="13" lengthAdjust="spacing" textLength="74" x="532.24" y="236.4561">/ safe_action</text></g><!--link Safe to Idle--><g id="link_Safe_Idle"><path d="M359.55,151.6594 C288.63,152.3794 89.75,158.6294 49.74,205.6094 C6,256.9594 134.43,281.4494 195.46,289.9594 " fill="none" id="Safe-to-Idle" style="stroke:#181818;stroke-width:1.0;"/><polygon fill="#181818" points="200.45,290.6394,192.0683,285.4676,195.4952,289.9683,190.9946,293.3952,200.45,290.6394" style="stroke:#181818;stroke-width:1.0;"/><text fill="#000000" font-family="sans-serif" font-size="13" font-weight="bold" lengthAdjust="spacing" textLength="80" x="50.74" y="220.1045">idle_flag_set</text><text fill="#000000" font-family="sans-serif" font-size="13" lengthAdjust="spacing" textLength="47" x="134.74" y="220.1045">[__auto]</text><text fill="#000000" font-family="sans-serif" font-size="13" lengthAdjust="spacing" textLength="70" x="81.24" y="236.4561">/ idle_action</text></g><!--link Idle to Safe--><g id="link_Idle_Safe"><path d="M225.94,269.5894 C227.35,250.1694 232.26,223.2494 247.74,205.6094 C275.15,174.3594 323.01,161.0194 354.28,155.4494 " fill="none" id="Idle-to-Safe" style="stroke:#181818;stroke-width:1.0;"/><polygon fill="#181818" points="359.53,154.5594,349.9845,152.1337,354.6015,155.4022,351.3331,160.0192,359.53,154.5594" style="stroke:#181818;stroke-width:1.0;"/><text fill="#000000" font-family="sans-serif" font-size="13" font-weight="bold" lengthAdjust="spacing" textLength="66" x="248.74" y="220.1045">__periodic</text><text fill="#000000" font-family="sans-serif" font-size="13" lengthAdjust="spacing" textLength="47" x="318.74" y="220.1045">[__auto]</text><text fill="#000000" font-family="sans-serif" font-size="13" lengthAdjust="spacing" textLength="74" x="270.24" y="236.4561">/ safe_action</text></g><!--link Idle to Payload--><g id="link_Idle_Payload"><path d="M217.22,319.7994 C212.1,339.0594 208.95,365.6694 222.74,383.6094 C242.38,409.1694 331.71,425.1794 385.11,432.6394 " fill="none" id="Idle-to-Payload" style="stroke:#181818;stroke-width:1.0;"/><polygon fill="#181818" points="390.16,433.3394,381.793,428.1439,385.2072,432.6543,380.6968,436.0684,390.16,433.3394" style="stroke:#181818;stroke-width:1.0;"/><text fill="#000000" font-family="sans-serif" font-size="13" font-weight="bold" lengthAdjust="spacing" textLength="107" x="223.74" y="364.1045">payload_flag_set</text><text fill="#000000" font-family="sans-serif" font-size="13" lengthAdjust="spacing" textLength="47" x="334.74" y="364.1045">[__auto]</text><text fill="#000000" font-family="sans-serif" font-size="13" lengthAdjust="spacing" textLength="4" x="300.74" y="380.4561">&#160;</text></g><!--link Payload to Idle--><g id="link_Payload_Idle"><path d="M420.75,413.5194 C415.47,393.7994 405.27,366.4894 386.74,349.6094 C349.86,316.0294 291.41,303.2494 256,298.4394 " fill="none" id="Payload-to-Idle" style="stroke:#181818;stroke-width:1.0;"/><polygon fill="#181818" points="250.95,297.7894,259.3608,302.9136,255.9085,298.4324,260.3897,294.98,250.95,297.7894" style="stroke:#181818;stroke-width:1.0;"/><text fill="#000000" font-family="sans-serif" font-size="13" font-weight="bold" lengthAdjust="spacing" textLength="137" x="410.74" y="364.1045">payload_flag_cleared</text><text fill="#000000" font-family="sans-serif" font-size="13" lengthAdjust="spacing" textLength="4" x="547.74" y="364.1045">&#160;</text><text fill="#000000" font-family="sans-serif" font-size="13" lengthAdjust="spacing" textLength="70" x="446.24" y="380.4561">/ idle_action</text></g><!--link Payload to Safe--><g id="link_Payload_Safe"><path d="M461.53,430.5294 C491.08,423.1294 532.59,408.9394 560.74,383.6094 C665.66,289.1694 681.28,260.7094 636.74,205.6094 C609.16,171.4994 475.99,157.9594 415.16,153.4894 " fill="none" id="Payload-to-Safe" style="stroke:#181818;stroke-width:1.0;"/><polygon fill="#181818" points="409.85,153.1094,418.5412,157.7422,414.8372,153.4666,419.1128,149.7626,409.85,153.1094" style="stroke:#181818;stroke-width:1.0;"/><text fill="#000000" font-family="sans-serif" font-size="13" font-weight="bold" lengthAdjust="spacing" textLength="66" x="658.74" y="292.1045">__periodic</text><text fill="#000000" font-family="sans-serif" font-size="13" lengthAdjust="spacing" textLength="47" x="728.74" y="292.1045">[__auto]</text><text fill="#000000" font-family="sans-serif" font-size="13" lengthAdjust="spacing" textLength="74" x="680.24" y="308.4561">/ safe_action</text></g><!--SRC=[dO-n2i8m54NtV4LceNINqid5JN2iydXDNaiWJKgJ3lwzJOosjOZeTadkUOVhbTV4YxeKrjZUWUjOjRloB2lv6HjYpgEdPJnA_Om7ycDNQsNQz732cxOe6GlzU6Ekx8C4eAT1MQb4aTSbhm1mzFPwCJcNiGaelB9cFX1q4LLJW4PZ2uxyXew_YGt8Qy0thPiw6p3jY6p_o9_KR5xubpEfrbjNJg491vBnollK9VsZ-Gu0]--></g></svg>