<?xml version="1.0" encoding="us-ascii" standalone="no"?><svg xmlns="http://www.w3.org/2000/svg" xmlns:xlink="http://www.w3.org/1999/xlink" contentStyleType="text/css" height="890px" preserveAspectRatio="none" style="width:1461px;height:890px;background:#FFFFFF;" version="1.1" viewBox="0 0 1461 890" width="1461px" zoomAndPan="magnify"><defs/><g><text fill="#000000" font-family="sans-serif" font-size="14" font-weight="bold" lengthAdjust="spacing" textLength="153" x="647.3517" y="22.9951">cubeadcs_gen2_sm</text><ellipse cx="972.7033" cy="53.2969" fill="#222222" rx="10" ry="10" style="stroke:#222222;stroke-width:1.0;"/><g id="Backoff"><rect fill="#F1F1F1" height="50" rx="12.5" ry="12.5" style="stroke:#181818;stroke-width:0.5;" width="76" x="934.7033" y="124.2969"/><line style="stroke:#181818;stroke-width:0.5;" x1="934.7033" x2="1010.7033" y1="150.5938" y2="150.5938"/><text fill="#000000" font-family="sans-serif" font-size="14" lengthAdjust="spacing" textLength="56" x="944.7033" y="142.292">Backoff</text></g><g id="EventMarkerAcquisition"><rect fill="#F1F1F1" height="50" rx="12.5" ry="12.5" style="stroke:#181818;stroke-width:0.5;" width="191" x="877.2033" y="266.2969"/><line style="stroke:#181818;stroke-width:0.5;" x1="877.2033" x2="1068.2033" y1="292.5938" y2="292.5938"/><text fill="#000000" font-family="sans-serif" font-size="14" lengthAdjust="spacing" textLength="171" x="887.2033" y="284.292">EventMarkerAcquisition</text></g><g id="Idle"><rect fill="#F1F1F1" height="50" rx="12.5" ry="12.5" style="stroke:#181818;stroke-width:0.5;" width="50" x="771.7033" y="550.2969"/><line style="stroke:#181818;stroke-width:0.5;" x1="771.7033" x2="821.7033" y1="576.5938" y2="576.5938"/><text fill="#000000" font-family="sans-serif" font-size="14" lengthAdjust="spacing" textLength="26" x="783.7033" y="568.292">Idle</text></g><g id="Check"><rect fill="#F1F1F1" height="50" rx="12.5" ry="12.5" style="stroke:#181818;stroke-width:0.5;" width="65" x="940.2033" y="408.2969"/><line style="stroke:#181818;stroke-width:0.5;" x1="940.2033" x2="1005.2033" y1="434.5938" y2="434.5938"/><text fill="#000000" font-family="sans-serif" font-size="14" lengthAdjust="spacing" textLength="45" x="950.2033" y="426.292">Check</text></g><g id="EventDownload"><rect fill="#F1F1F1" height="50" rx="12.5" ry="12.5" style="stroke:#181818;stroke-width:0.5;" width="132" x="316.7033" y="692.2969"/><line style="stroke:#181818;stroke-width:0.5;" x1="316.7033" x2="448.7033" y1="718.5938" y2="718.5938"/><text fill="#000000" font-family="sans-serif" font-size="14" lengthAdjust="spacing" textLength="112" x="326.7033" y="710.292">EventDownload</text></g><g id="StateChange"><rect fill="#F1F1F1" height="50" rx="12.5" ry="12.5" style="stroke:#181818;stroke-width:0.5;" width="114" x="961.7033" y="692.2969"/><line style="stroke:#181818;stroke-width:0.5;" x1="961.7033" x2="1075.7033" y1="718.5938" y2="718.5938"/><text fill="#000000" font-family="sans-serif" font-size="14" lengthAdjust="spacing" textLength="94" x="971.7033" y="710.292">StateChange</text></g><g id="FDIR"><rect fill="#F1F1F1" height="50" rx="12.5" ry="12.5" style="stroke:#181818;stroke-width:0.5;" width="53" x="1125.2033" y="834.2969"/><line style="stroke:#181818;stroke-width:0.5;" x1="1125.2033" x2="1178.2033" y1="860.5938" y2="860.5938"/><text fill="#000000" font-family="sans-serif" font-size="14" lengthAdjust="spacing" textLength="33" x="1135.2033" y="852.292">FDIR</text></g><!--link *start* to Backoff--><g id="link_*start*_Backoff"><path d="M972.7033,63.3099 C972.7033,77.1879 972.7033,98.2619 972.7033,118.1369 " fill="none" id="*start*-to-Backoff" style="stroke:#181818;stroke-width:1.0;"/><polygon fill="#181818" points="972.7033,124.1369,976.7033,115.1369,972.7033,119.1369,968.7033,115.1369,972.7033,124.1369" style="stroke:#181818;stroke-width:1.0;"/></g><!--link Backoff to EventMarkerAcquisition--><g id="link_Backoff_EventMarkerAcquisition"><path d="M972.7033,174.3639 C972.7033,200.0069 972.7033,234.3739 972.7033,260.0759 " fill="none" id="Backoff-to-EventMarkerAcquisition" style="stroke:#181818;stroke-width:1.0;"/><polygon fill="#181818" points="972.7033,266.0759,976.7033,257.0759,972.7033,261.0759,968.7033,257.0759,972.7033,266.0759" style="stroke:#181818;stroke-width:1.0;"/><text fill="#000000" font-family="sans-serif" font-size="13" font-weight="bold" lengthAdjust="spacing" textLength="74" x="973.7033" y="217.3638">__periodic</text><text fill="#000000" font-family="sans-serif" font-size="13" lengthAdjust="spacing" textLength="166" x="1051.7033" y="217.3638">[is_backoff_time_expired]</text><text fill="#000000" font-family="sans-serif" font-size="13" lengthAdjust="spacing" textLength="4" x="1093.7033" y="232.4966">&#160;</text></g><!--link EventMarkerAcquisition to Check--><g id="link_EventMarkerAcquisition_Check"><path d="M972.7033,316.3639 C972.7033,342.0069 972.7033,376.3739 972.7033,402.0759 " fill="none" id="EventMarkerAcquisition-to-Check" style="stroke:#181818;stroke-width:1.0;"/><polygon fill="#181818" points="972.7033,408.0759,976.7033,399.0759,972.7033,403.0759,968.7033,399.0759,972.7033,408.0759" style="stroke:#181818;stroke-width:1.0;"/><text fill="#000000" font-family="sans-serif" font-size="13" font-weight="bold" lengthAdjust="spacing" textLength="176" x="973.7033" y="359.3638">event_marker_acquired</text><text fill="#000000" font-family="sans-serif" font-size="13" lengthAdjust="spacing" textLength="4" x="1149.7033" y="359.3638">&#160;</text><text fill="#000000" font-family="sans-serif" font-size="13" lengthAdjust="spacing" textLength="4" x="1061.7033" y="374.4966">&#160;</text></g><!--link Idle to Check--><g id="link_Idle_Check"><path d="M821.7703,570.3019 C851.8343,564.3139 902.1163,550.3349 933.7033,520.2969 C951.2863,503.5769 959.8978,483.2069 965.4478,464.1349 " fill="none" id="Idle-to-Check" style="stroke:#181818;stroke-width:1.0;"/><polygon fill="#181818" points="967.1243,458.3739,960.7689,465.8978,965.7272,463.1747,968.4503,468.1331,967.1243,458.3739" style="stroke:#181818;stroke-width:1.0;"/><text fill="#000000" font-family="sans-serif" font-size="13" font-weight="bold" lengthAdjust="spacing" textLength="74" x="955.7033" y="501.3638">__periodic</text><text fill="#000000" font-family="sans-serif" font-size="13" lengthAdjust="spacing" textLength="175" x="1033.7033" y="501.3638">[is_time_to_check_expired]</text><text fill="#000000" font-family="sans-serif" font-size="13" lengthAdjust="spacing" textLength="4" x="1080.2033" y="516.4966">&#160;</text></g><!--link Check to Idle--><g id="link_Check_Idle"><path d="M940.1953,439.1729 C892.6323,447.0459 807.7523,464.1529 789.7033,488.2969 C776.6083,505.8139 778.905,525.6063 784.862,544.2933 " fill="none" id="Check-to-Idle" style="stroke:#181818;stroke-width:1.0;"/><polygon fill="#181818" points="786.6843,550.0099,787.7619,540.2201,785.1657,545.2461,780.1398,542.6499,786.6843,550.0099" style="stroke:#181818;stroke-width:1.0;"/><text fill="#000000" font-family="sans-serif" font-size="13" font-weight="bold" lengthAdjust="spacing" textLength="130" x="790.7033" y="501.3638">check_completed</text><text fill="#000000" font-family="sans-serif" font-size="13" lengthAdjust="spacing" textLength="4" x="920.7033" y="501.3638">&#160;</text><text fill="#000000" font-family="sans-serif" font-size="13" lengthAdjust="spacing" textLength="4" x="855.7033" y="516.4966">&#160;</text></g><!--link Idle to EventDownload--><g id="link_Idle_EventDownload"><path d="M771.3583,576.0509 C642.9673,575.0649 68.3869,573.8449 15.7036,630.2969 C6,640.6949 6.4077,651.5329 15.7036,662.2969 C53.7984,706.4069 215.4859,715.0529 310.4709,716.3819 " fill="none" id="Idle-to-EventDownload" style="stroke:#181818;stroke-width:1.0;"/><polygon fill="#181818" points="316.4703,716.4659,307.5272,712.3404,311.4708,716.3959,307.4152,720.3396,316.4703,716.4659" style="stroke:#181818;stroke-width:1.0;"/><text fill="#000000" font-family="sans-serif" font-size="13" font-weight="bold" lengthAdjust="spacing" textLength="74" x="16.7036" y="643.3638">__periodic</text><text fill="#000000" font-family="sans-serif" font-size="13" lengthAdjust="spacing" textLength="244" x="94.7036" y="643.3638">[is_time_to_event_download_expired]</text><text fill="#000000" font-family="sans-serif" font-size="13" lengthAdjust="spacing" textLength="4" x="175.7036" y="658.4966">&#160;</text></g><!--link EventDownload to Idle--><g id="link_EventDownload_Idle"><path d="M381.7183,692.2159 C382.3173,672.6099 386.5853,645.7379 403.7033,630.2969 C458.1033,581.2279 687.5113,576.4391 765.5003,576.2151 " fill="none" id="EventDownload-to-Idle" style="stroke:#181818;stroke-width:1.0;"/><polygon fill="#181818" points="771.5003,576.1979,762.4889,572.2237,766.5003,576.2122,762.5118,580.2237,771.5003,576.1979" style="stroke:#181818;stroke-width:1.0;"/><text fill="#000000" font-family="sans-serif" font-size="13" font-weight="bold" lengthAdjust="spacing" textLength="209" x="404.7033" y="643.3638">event_download_completed</text><text fill="#000000" font-family="sans-serif" font-size="13" lengthAdjust="spacing" textLength="4" x="613.7033" y="643.3638">&#160;</text><text fill="#000000" font-family="sans-serif" font-size="13" lengthAdjust="spacing" textLength="4" x="509.2033" y="658.4966">&#160;</text></g><!--link Idle to StateChange--><g id="link_Idle_StateChange"><path d="M771.6693,579.8109 C716.5303,588.5239 592.7153,613.9909 634.7033,662.2969 C676.3293,710.1859 858.8513,716.8181 955.3733,716.9911 " fill="none" id="Idle-to-StateChange" style="stroke:#181818;stroke-width:1.0;"/><polygon fill="#181818" points="961.3733,717.0019,952.3805,712.9858,956.3733,716.9929,952.3662,720.9857,961.3733,717.0019" style="stroke:#181818;stroke-width:1.0;"/><text fill="#000000" font-family="sans-serif" font-size="13" font-weight="bold" lengthAdjust="spacing" textLength="184" x="635.7033" y="643.3638">request_a_state_change</text><text fill="#000000" font-family="sans-serif" font-size="13" lengthAdjust="spacing" textLength="151" x="823.7033" y="643.3638">[is_state_change_valid]</text><text fill="#000000" font-family="sans-serif" font-size="13" lengthAdjust="spacing" textLength="4" x="803.2033" y="658.4966">&#160;</text></g><!--link StateChange to Idle--><g id="link_StateChange_Idle"><path d="M1013.6133,692.1869 C1008.3203,672.8329 998.1323,646.3299 979.7033,630.2969 C934.0953,590.6169 866.4956,580.5021 828.0016,577.7151 " fill="none" id="StateChange-to-Idle" style="stroke:#181818;stroke-width:1.0;"/><polygon fill="#181818" points="822.0173,577.2819,830.705,581.9213,827.0043,577.6429,831.2827,573.9422,822.0173,577.2819" style="stroke:#181818;stroke-width:1.0;"/><text fill="#000000" font-family="sans-serif" font-size="13" font-weight="bold" lengthAdjust="spacing" textLength="189" x="1002.7033" y="643.3638">state_change_completed</text><text fill="#000000" font-family="sans-serif" font-size="13" lengthAdjust="spacing" textLength="4" x="1191.7033" y="643.3638">&#160;</text><text fill="#000000" font-family="sans-serif" font-size="13" lengthAdjust="spacing" textLength="4" x="1097.2033" y="658.4966">&#160;</text></g><!--link Check to FDIR--><g id="link_Check_FDIR"><path d="M1005.2353,434.3479 C1054.9733,435.8989 1151.1433,444.8379 1217.7033,488.2969 C1311.7133,549.6809 1331.8733,585.5599 1366.7033,692.2969 C1373.5933,713.4229 1378.0933,723.2139 1366.7033,742.2969 C1325.1933,811.861 1231.7922,840.8562 1184.0722,851.7752 " fill="none" id="Check-to-FDIR" style="stroke:#181818;stroke-width:1.0;"/><polygon fill="#181818" points="1178.2233,853.1135,1187.8888,855.0053,1183.0973,851.9982,1186.1044,847.2068,1178.2233,853.1135" style="stroke:#181818;stroke-width:1.0;"/><text fill="#000000" font-family="sans-serif" font-size="13" font-weight="bold" lengthAdjust="spacing" textLength="93" x="1356.7033" y="643.3638">request_fdir</text><text fill="#000000" font-family="sans-serif" font-size="13" lengthAdjust="spacing" textLength="4" x="1449.7033" y="643.3638">&#160;</text><text fill="#000000" font-family="sans-serif" font-size="13" lengthAdjust="spacing" textLength="4" x="1403.2033" y="658.4966">&#160;</text></g><!--link EventDownload to FDIR--><g id="link_EventDownload_FDIR"><path d="M448.9333,730.3539 C609.9623,759.6709 1010.8003,832.6455 1119.0103,852.3455 " fill="none" id="EventDownload-to-FDIR" style="stroke:#181818;stroke-width:1.0;"/><polygon fill="#181818" points="1124.9133,853.4202,1116.7753,847.8729,1119.9942,852.5246,1115.3424,855.7435,1124.9133,853.4202" style="stroke:#181818;stroke-width:1.0;"/><text fill="#000000" font-family="sans-serif" font-size="13" font-weight="bold" lengthAdjust="spacing" textLength="93" x="836.7033" y="785.3638">request_fdir</text><text fill="#000000" font-family="sans-serif" font-size="13" lengthAdjust="spacing" textLength="4" x="929.7033" y="785.3638">&#160;</text><text fill="#000000" font-family="sans-serif" font-size="13" lengthAdjust="spacing" textLength="4" x="883.2033" y="800.4966">&#160;</text></g><!--link StateChange to FDIR--><g id="link_StateChange_FDIR"><path d="M1041.5633,742.3639 C1065.9233,768.0069 1100.1405,804.0239 1124.5605,829.7258 " fill="none" id="StateChange-to-FDIR" style="stroke:#181818;stroke-width:1.0;"/><polygon fill="#181818" points="1128.6933,834.0756,1125.394,824.7958,1125.2493,830.4508,1119.5943,830.3062,1128.6933,834.0756" style="stroke:#181818;stroke-width:1.0;"/><text fill="#000000" font-family="sans-serif" font-size="13" font-weight="bold" lengthAdjust="spacing" textLength="93" x="1097.7033" y="785.3638">request_fdir</text><text fill="#000000" font-family="sans-serif" font-size="13" lengthAdjust="spacing" textLength="4" x="1190.7033" y="785.3638">&#160;</text><text fill="#000000" font-family="sans-serif" font-size="13" lengthAdjust="spacing" textLength="4" x="1144.2033" y="800.4966">&#160;</text></g><!--link FDIR to Idle--><g id="link_FDIR_Idle"><path d="M1178.4333,838.0731 C1188.3133,828.9596 1198.4033,817.3148 1203.7033,804.2969 C1277.1733,623.9149 1221.5833,649.5579 1204.7033,630.2969 C1179.3033,601.3129 912.9166,583.1879 827.8956,578.0909 " fill="none" id="FDIR-to-Idle" style="stroke:#181818;stroke-width:1.0;"/><polygon fill="#181818" points="821.9063,577.7319,830.6508,582.2633,826.8973,578.0311,831.1296,574.2776,821.9063,577.7319" style="stroke:#181818;stroke-width:1.0;"/><text fill="#000000" font-family="sans-serif" font-size="13" font-weight="bold" lengthAdjust="spacing" textLength="114" x="1239.7033" y="714.3638">fdir_completed</text><text fill="#000000" font-family="sans-serif" font-size="13" lengthAdjust="spacing" textLength="4" x="1353.7033" y="714.3638">&#160;</text><text fill="#000000" font-family="sans-serif" font-size="13" lengthAdjust="spacing" textLength="87" x="1255.2033" y="729.4966">/ notify_users</text></g><!--SRC=[bP71ReCm44JlV0NdIb6a7gi8gKrQAOTUscCQhOoz92l09hP9sxylNaW21BNf1O4zysPsyUGBZ1Tf8kiKXP8ETgZlmPNHvcuRpsP9_2HaRh8iSbvu77qz7r7xLs5pj8_oK9CZJqPtbsjLOFUwtAFC-vwL-TI54QexUm_FvLxetSdnibg_HL6NnZscinv2Tu0ABHb5SZ5FatX33jBM2PvA1FogoABQVkXeci81N99v64HGiWf4a3LkHZU4CDP8Fv7FkTw03A9-WRDzi8U_C6qZrQadURqTCitYeKRdGG1lj6aIhixa_Y4SHK5CuvaO5tx0W9CfigSTN6GXdcNjeDAKLO7-igt1b4F7QAORhBzswit_V_6vr60jLvK2SwWFq2lTFDR6K_ODjKFhVW00]--></g></svg>