<?xml version="1.0" encoding="us-ascii" standalone="no"?><svg xmlns="http://www.w3.org/2000/svg" xmlns:xlink="http://www.w3.org/1999/xlink" contentStyleType="text/css" height="760px" preserveAspectRatio="none" style="width:1004px;height:760px;background:#FFFFFF;" version="1.1" viewBox="0 0 1004 760" width="1004px" zoomAndPan="magnify"><defs/><g><text fill="#000000" font-family="sans-serif" font-size="14" font-weight="bold" lengthAdjust="spacing" textLength="430" x="280" y="22.9951">CubeADCS Gen2 Integration Overview of Components</text><!--cluster OBC--><g id="cluster_OBC"><path d="M8.5,43.2969 L42.5,43.2969 A3.75,3.75 0 0 1 45,45.7969 L52,65.5938 L514.5,65.5938 A2.5,2.5 0 0 1 517,68.0938 L517,556.7969 A2.5,2.5 0 0 1 514.5,559.2969 L8.5,559.2969 A2.5,2.5 0 0 1 6,556.7969 L6,45.7969 A2.5,2.5 0 0 1 8.5,43.2969 " fill="none" style="stroke:#000000;stroke-width:1.5;"/><line style="stroke:#000000;stroke-width:1.5;" x1="6" x2="52" y1="65.5938" y2="65.5938"/><text fill="#000000" font-family="sans-serif" font-size="14" font-weight="bold" lengthAdjust="spacing" textLength="33" x="10" y="58.292">OBC</text></g><!--cluster Gen2 Integration--><g id="cluster_Gen2 Integration"><path d="M32.5,86.2969 L171.5,86.2969 A3.75,3.75 0 0 1 174,88.7969 L181,108.5938 L490.5,108.5938 A2.5,2.5 0 0 1 493,111.0938 L493,532.7969 A2.5,2.5 0 0 1 490.5,535.2969 L32.5,535.2969 A2.5,2.5 0 0 1 30,532.7969 L30,88.7969 A2.5,2.5 0 0 1 32.5,86.2969 " fill="none" style="stroke:#000000;stroke-width:1.5;"/><line style="stroke:#000000;stroke-width:1.5;" x1="30" x2="181" y1="108.5938" y2="108.5938"/><text fill="#000000" font-family="sans-serif" font-size="14" font-weight="bold" lengthAdjust="spacing" textLength="138" x="34" y="101.292">Gen2 Integration</text></g><!--cluster CubeADCS Gen2--><g id="cluster_CubeADCS Gen2"><path d="M543.5,395.2969 L671.5,395.2969 A3.75,3.75 0 0 1 674,397.7969 L681,417.5938 L994.5,417.5938 A2.5,2.5 0 0 1 997,420.0938 L997,750.7969 A2.5,2.5 0 0 1 994.5,753.2969 L543.5,753.2969 A2.5,2.5 0 0 1 541,750.7969 L541,397.7969 A2.5,2.5 0 0 1 543.5,395.2969 " fill="none" style="stroke:#000000;stroke-width:1.5;"/><line style="stroke:#000000;stroke-width:1.5;" x1="541" x2="681" y1="417.5938" y2="417.5938"/><text fill="#000000" font-family="sans-serif" font-size="14" font-weight="bold" lengthAdjust="spacing" textLength="127" x="545" y="410.292">CubeADCS Gen2</text></g><!--cluster Computer--><g id="cluster_Computer"><path d="M592.5,438.2969 L672.5,438.2969 A3.75,3.75 0 0 1 675,440.7969 L682,460.5938 L731.5,460.5938 A2.5,2.5 0 0 1 734,463.0938 L734,532.7969 A2.5,2.5 0 0 1 731.5,535.2969 L592.5,535.2969 A2.5,2.5 0 0 1 590,532.7969 L590,440.7969 A2.5,2.5 0 0 1 592.5,438.2969 " fill="none" style="stroke:#000000;stroke-width:1.5;"/><line style="stroke:#000000;stroke-width:1.5;" x1="590" x2="682" y1="460.5938" y2="460.5938"/><text fill="#000000" font-family="sans-serif" font-size="14" font-weight="bold" lengthAdjust="spacing" textLength="79" x="594" y="453.292">Computer</text></g><!--cluster Sensors--><g id="cluster_Sensors"><path d="M567.5,583.2969 L632.5,583.2969 A3.75,3.75 0 0 1 635,585.7969 L642,605.5938 L756.5,605.5938 A2.5,2.5 0 0 1 759,608.0938 L759,726.7969 A2.5,2.5 0 0 1 756.5,729.2969 L567.5,729.2969 A2.5,2.5 0 0 1 565,726.7969 L565,585.7969 A2.5,2.5 0 0 1 567.5,583.2969 " fill="none" style="stroke:#000000;stroke-width:1.5;"/><line style="stroke:#000000;stroke-width:1.5;" x1="565" x2="642" y1="605.5938" y2="605.5938"/><text fill="#000000" font-family="sans-serif" font-size="14" font-weight="bold" lengthAdjust="spacing" textLength="64" x="569" y="598.292">Sensors</text></g><!--cluster Actuators--><g id="cluster_Actuators"><path d="M785.5,591.2969 L868.5,591.2969 A3.75,3.75 0 0 1 871,593.7969 L878,613.5938 L970.5,613.5938 A2.5,2.5 0 0 1 973,616.0938 L973,718.7969 A2.5,2.5 0 0 1 970.5,721.2969 L785.5,721.2969 A2.5,2.5 0 0 1 783,718.7969 L783,593.7969 A2.5,2.5 0 0 1 785.5,591.2969 " fill="none" style="stroke:#000000;stroke-width:1.5;"/><line style="stroke:#000000;stroke-width:1.5;" x1="783" x2="878" y1="613.5938" y2="613.5938"/><text fill="#000000" font-family="sans-serif" font-size="14" font-weight="bold" lengthAdjust="spacing" textLength="82" x="787" y="606.292">Actuators</text></g><!--entity gen2_int--><g id="elem_gen2_int"><rect fill="#F1F1F1" height="46.2969" rx="2.5" ry="2.5" style="stroke:#181818;stroke-width:0.5;" width="176" x="111" y="121.2969"/><rect fill="#F1F1F1" height="10" style="stroke:#181818;stroke-width:0.5;" width="15" x="267" y="126.2969"/><rect fill="#F1F1F1" height="2" style="stroke:#181818;stroke-width:0.5;" width="4" x="265" y="128.2969"/><rect fill="#F1F1F1" height="2" style="stroke:#181818;stroke-width:0.5;" width="4" x="265" y="132.2969"/><text fill="#000000" font-family="sans-serif" font-size="14" lengthAdjust="spacing" textLength="136" x="126" y="154.292">cubeadcs_gen2_int</text></g><!--entity gen2_sm--><g id="elem_gen2_sm"><rect fill="#F1F1F1" height="46.2969" rx="2.5" ry="2.5" style="stroke:#181818;stroke-width:0.5;" width="262" x="46" y="227.2969"/><rect fill="#F1F1F1" height="10" style="stroke:#181818;stroke-width:0.5;" width="15" x="288" y="232.2969"/><rect fill="#F1F1F1" height="2" style="stroke:#181818;stroke-width:0.5;" width="4" x="286" y="234.2969"/><rect fill="#F1F1F1" height="2" style="stroke:#181818;stroke-width:0.5;" width="4" x="286" y="238.2969"/><text fill="#000000" font-family="sans-serif" font-size="14" lengthAdjust="spacing" textLength="222" x="61" y="260.292">cubeadcs_gen2_state_machine</text></g><!--entity gen2_lib--><g id="elem_gen2_lib"><rect fill="#F1F1F1" height="46.2969" rx="2.5" ry="2.5" style="stroke:#181818;stroke-width:0.5;" width="120" x="206" y="333.2969"/><rect fill="#F1F1F1" height="10" style="stroke:#181818;stroke-width:0.5;" width="15" x="306" y="338.2969"/><rect fill="#F1F1F1" height="2" style="stroke:#181818;stroke-width:0.5;" width="4" x="304" y="340.2969"/><rect fill="#F1F1F1" height="2" style="stroke:#181818;stroke-width:0.5;" width="4" x="304" y="344.2969"/><text fill="#000000" font-family="sans-serif" font-size="14" lengthAdjust="spacing" textLength="80" x="221" y="366.292">libcubeobc</text></g><!--entity drv--><g id="elem_drv"><rect fill="#F1F1F1" height="46.2969" rx="2.5" ry="2.5" style="stroke:#181818;stroke-width:0.5;" width="82" x="310" y="473.2969"/><rect fill="#F1F1F1" height="10" style="stroke:#181818;stroke-width:0.5;" width="15" x="372" y="478.2969"/><rect fill="#F1F1F1" height="2" style="stroke:#181818;stroke-width:0.5;" width="4" x="370" y="480.2969"/><rect fill="#F1F1F1" height="2" style="stroke:#181818;stroke-width:0.5;" width="4" x="370" y="484.2969"/><text fill="#000000" font-family="sans-serif" font-size="14" lengthAdjust="spacing" textLength="42" x="325" y="506.292">driver</text></g><!--entity gen2_gw--><g id="elem_gen2_gw"><rect fill="#F1F1F1" height="46.2969" rx="2.5" ry="2.5" style="stroke:#181818;stroke-width:0.5;" width="134" x="343" y="227.2969"/><rect fill="#F1F1F1" height="10" style="stroke:#181818;stroke-width:0.5;" width="15" x="457" y="232.2969"/><rect fill="#F1F1F1" height="2" style="stroke:#181818;stroke-width:0.5;" width="4" x="455" y="234.2969"/><rect fill="#F1F1F1" height="2" style="stroke:#181818;stroke-width:0.5;" width="4" x="455" y="238.2969"/><text fill="#000000" font-family="sans-serif" font-size="14" lengthAdjust="spacing" textLength="94" x="358" y="260.292">cubeadcs_gw</text></g><!--entity gen2_cp--><g id="elem_gen2_cp"><rect fill="#F1F1F1" height="46.2969" rx="2.5" ry="2.5" style="stroke:#181818;stroke-width:0.5;" width="132" x="344" y="121.2969"/><rect fill="#F1F1F1" height="10" style="stroke:#181818;stroke-width:0.5;" width="15" x="456" y="126.2969"/><rect fill="#F1F1F1" height="2" style="stroke:#181818;stroke-width:0.5;" width="4" x="454" y="128.2969"/><rect fill="#F1F1F1" height="2" style="stroke:#181818;stroke-width:0.5;" width="4" x="454" y="132.2969"/><text fill="#000000" font-family="sans-serif" font-size="14" lengthAdjust="spacing" textLength="92" x="359" y="154.292">cubeadcs_cp</text></g><!--entity es_custom--><g id="elem_es_custom"><rect fill="#F1F1F1" height="46.2969" rx="2.5" ry="2.5" style="stroke:#181818;stroke-width:0.5;" width="116" x="361" y="333.2969"/><rect fill="#F1F1F1" height="10" style="stroke:#181818;stroke-width:0.5;" width="15" x="457" y="338.2969"/><rect fill="#F1F1F1" height="2" style="stroke:#181818;stroke-width:0.5;" width="4" x="455" y="340.2969"/><rect fill="#F1F1F1" height="2" style="stroke:#181818;stroke-width:0.5;" width="4" x="455" y="344.2969"/><text fill="#000000" font-family="sans-serif" font-size="14" lengthAdjust="spacing" textLength="76" x="376" y="366.292">es_custom</text></g><!--entity core--><g id="elem_core"><rect fill="#F1F1F1" height="46.2969" rx="2.5" ry="2.5" style="stroke:#181818;stroke-width:0.5;" width="111" x="606.5" y="473.2969"/><rect fill="#F1F1F1" height="10" style="stroke:#181818;stroke-width:0.5;" width="15" x="697.5" y="478.2969"/><rect fill="#F1F1F1" height="2" style="stroke:#181818;stroke-width:0.5;" width="4" x="695.5" y="480.2969"/><rect fill="#F1F1F1" height="2" style="stroke:#181818;stroke-width:0.5;" width="4" x="695.5" y="484.2969"/><text fill="#000000" font-family="sans-serif" font-size="14" lengthAdjust="spacing" textLength="71" x="621.5" y="506.292">CubeCore</text></g><!--entity sensors--><g id="elem_sensors"><rect fill="#F1F1F1" height="95.1875" rx="2.5" ry="2.5" style="stroke:#181818;stroke-width:0.5;" width="161" x="581.5" y="618.2969"/><rect fill="#F1F1F1" height="10" style="stroke:#181818;stroke-width:0.5;" width="15" x="722.5" y="623.2969"/><rect fill="#F1F1F1" height="2" style="stroke:#181818;stroke-width:0.5;" width="4" x="720.5" y="625.2969"/><rect fill="#F1F1F1" height="2" style="stroke:#181818;stroke-width:0.5;" width="4" x="720.5" y="629.2969"/><text fill="#000000" font-family="sans-serif" font-size="14" lengthAdjust="spacing" textLength="121" x="596.5" y="651.292">magnetometers,</text><text fill="#000000" font-family="sans-serif" font-size="14" lengthAdjust="spacing" textLength="118" x="596.5" y="667.5889">fine sun sensors,</text><text fill="#000000" font-family="sans-serif" font-size="14" lengthAdjust="spacing" textLength="116" x="596.5" y="683.8857">horizon sensors,</text><text fill="#000000" font-family="sans-serif" font-size="14" lengthAdjust="spacing" textLength="15" x="596.5" y="700.1826">...</text></g><!--entity actuators--><g id="elem_actuators"><rect fill="#F1F1F1" height="78.8906" rx="2.5" ry="2.5" style="stroke:#181818;stroke-width:0.5;" width="157" x="799.5" y="626.2969"/><rect fill="#F1F1F1" height="10" style="stroke:#181818;stroke-width:0.5;" width="15" x="936.5" y="631.2969"/><rect fill="#F1F1F1" height="2" style="stroke:#181818;stroke-width:0.5;" width="4" x="934.5" y="633.2969"/><rect fill="#F1F1F1" height="2" style="stroke:#181818;stroke-width:0.5;" width="4" x="934.5" y="637.2969"/><text fill="#000000" font-family="sans-serif" font-size="14" lengthAdjust="spacing" textLength="87" x="814.5" y="659.292">torque rods,</text><text fill="#000000" font-family="sans-serif" font-size="14" lengthAdjust="spacing" textLength="117" x="814.5" y="675.5889">reaction wheels,</text><text fill="#000000" font-family="sans-serif" font-size="14" lengthAdjust="spacing" textLength="15" x="814.5" y="691.8857">...</text></g><!--link gen2_int to gen2_sm--><g id="link_gen2_int_gen2_sm"><path d="M193.0924,173.223 C189.3594,190.872 186.6328,203.7618 182.9008,221.4028 " fill="none" id="gen2_int-gen2_sm" style="stroke:#181818;stroke-width:1.0;"/><polygon fill="#181818" points="194.334,167.3529,188.5582,175.3303,193.2993,172.2446,196.385,176.9858,194.334,167.3529" style="stroke:#181818;stroke-width:1.0;"/><polygon fill="#181818" points="181.659,227.2729,187.4351,219.2956,182.6939,222.3811,179.6084,217.6399,181.659,227.2729" style="stroke:#181818;stroke-width:1.0;"/></g><!--link gen2_sm to gen2_gw--><g id="link_gen2_sm_gen2_gw"><path d="M314.062,250.2969 C325.61,250.2969 325.158,250.2969 336.705,250.2969 " fill="none" id="gen2_sm-gen2_gw" style="stroke:#181818;stroke-width:1.0;"/><polygon fill="#181818" points="308.062,250.2969,317.062,254.2969,313.062,250.2969,317.062,246.2969,308.062,250.2969" style="stroke:#181818;stroke-width:1.0;"/><polygon fill="#181818" points="342.705,250.2969,333.705,246.2969,337.705,250.2969,333.705,254.2969,342.705,250.2969" style="stroke:#181818;stroke-width:1.0;"/></g><!--link gen2_int to gen2_gw--><g id="link_gen2_int_gen2_gw"><path d="M249.1298,170.0055 C284.9368,187.6545 324.1442,206.9793 359.9352,224.6203 " fill="none" id="gen2_int-gen2_gw" style="stroke:#181818;stroke-width:1.0;"/><polygon fill="#181818" points="243.748,167.3529,250.0522,174.9197,248.2328,169.5634,253.5891,167.744,243.748,167.3529" style="stroke:#181818;stroke-width:1.0;"/><polygon fill="#181818" points="365.317,227.2729,359.0127,219.7061,360.8322,225.0624,355.4759,226.8818,365.317,227.2729" style="stroke:#181818;stroke-width:1.0;"/></g><!--link gen2_cp to gen2_gw--><g id="link_gen2_cp_gen2_gw"><path d="M410,173.3529 C410,191.0019 410,203.6319 410,221.2729 " fill="none" id="gen2_cp-gen2_gw" style="stroke:#181818;stroke-width:1.0;"/><polygon fill="#181818" points="410,167.3529,406,176.3529,410,172.3529,414,176.3529,410,167.3529" style="stroke:#181818;stroke-width:1.0;"/><polygon fill="#181818" points="410,227.2729,414,218.2729,410,222.2729,406,218.2729,410,227.2729" style="stroke:#181818;stroke-width:1.0;"/></g><!--link gen2_gw to gen2_lib--><g id="link_gen2_gw_gen2_lib"><path d="M374.5969,276.8658 C350.1599,294.5148 325.784,312.1188 301.359,329.7598 " fill="none" id="gen2_gw-gen2_lib" style="stroke:#181818;stroke-width:1.0;"/><polygon fill="#181818" points="379.461,273.3529,369.8229,275.3796,375.4076,276.2803,374.5069,281.865,379.461,273.3529" style="stroke:#181818;stroke-width:1.0;"/><polygon fill="#181818" points="296.495,333.2729,306.133,331.246,300.5483,330.3453,301.449,324.7606,296.495,333.2729" style="stroke:#181818;stroke-width:1.0;"/></g><!--link gen2_lib to es_custom--><g id="link_gen2_lib_es_custom"><path d="M332.064,356.2969 C343.681,356.2969 343.298,356.2969 354.915,356.2969 " fill="none" id="gen2_lib-es_custom" style="stroke:#181818;stroke-width:1.0;"/><polygon fill="#181818" points="326.064,356.2969,335.064,360.2969,331.064,356.2969,335.064,352.2969,326.064,356.2969" style="stroke:#181818;stroke-width:1.0;"/><polygon fill="#181818" points="360.915,356.2969,351.915,352.2969,355.915,356.2969,351.915,360.2969,360.915,356.2969" style="stroke:#181818;stroke-width:1.0;"/></g><!--link gen2_lib to drv--><g id="link_gen2_lib_drv"><path d="M282.8037,384.5775 C298.6657,410.3295 318.3834,442.3421 334.2304,468.0711 " fill="none" id="gen2_lib-drv" style="stroke:#181818;stroke-width:1.0;"/><polygon fill="#181818" points="279.657,379.4689,280.9713,389.2296,282.2792,383.7261,287.7828,385.0341,279.657,379.4689" style="stroke:#181818;stroke-width:1.0;"/><polygon fill="#181818" points="337.377,473.1799,336.063,463.4191,334.7549,468.9226,329.2513,467.6145,337.377,473.1799" style="stroke:#181818;stroke-width:1.0;"/></g><!--link drv to core--><g id="link_drv_core"><path d="M398.001,496.2969 C469.456,496.2969 528.911,496.2969 600.365,496.2969 " fill="none" id="drv-core" style="stroke:#181818;stroke-width:1.0;"/><polygon fill="#181818" points="392.001,496.2969,401.001,500.2969,397.001,496.2969,401.001,492.2969,392.001,496.2969" style="stroke:#181818;stroke-width:1.0;"/><polygon fill="#181818" points="606.365,496.2969,597.365,492.2969,601.365,496.2969,597.365,500.2969,606.365,496.2969" style="stroke:#181818;stroke-width:1.0;"/></g><!--link core to sensors--><g id="link_core_sensors"><path d="M662,525.5399 C662,550.5459 662,579.8569 662,612.0439 " fill="none" id="core-sensors" style="stroke:#181818;stroke-width:1.0;"/><polygon fill="#181818" points="662,519.5399,658,528.5399,662,524.5399,666,528.5399,662,519.5399" style="stroke:#181818;stroke-width:1.0;"/><polygon fill="#181818" points="662,618.0439,666,609.0439,662,613.0439,658,609.0439,662,618.0439" style="stroke:#181818;stroke-width:1.0;"/></g><!--link core to actuators--><g id="link_core_actuators"><path d="M695.4244,523.2167 C730.4254,550.3587 780.7156,589.356 823.3256,622.399 " fill="none" id="core-actuators" style="stroke:#181818;stroke-width:1.0;"/><polygon fill="#181818" points="690.683,519.5399,695.3439,528.216,694.6342,522.6039,700.2463,521.8941,690.683,519.5399" style="stroke:#181818;stroke-width:1.0;"/><polygon fill="#181818" points="828.067,626.0759,823.4061,617.3997,824.1158,623.0118,818.5037,623.7216,828.067,626.0759" style="stroke:#181818;stroke-width:1.0;"/></g><!--SRC=[NL51RiCW4BppYbNEJGuzHv5ILwfwoY57jue8tc1K6rp0iTIgV-z2WY6M9GmpimEpwvNl4AhnZFlNwWXlg9_XNNkKbdjbD1okQAyA9p0Ng4m_68tQEyO6BhwuH5WTNgeL_1R0qYAmjQ0BU2FSIH9xKjf_0dUG3alUUUxnr7FHAerPwNfMT-eSjEOiCauOgnkhwAaHREorT9ooKau58OPCY87LID3elEaZF9_O7tqvtaEhGhRCK7j6ZpO63hBAsDlh1Mt8P5OUKJjZNHJsN6gaQv0gtTE7lb1aSAC6TnCHr1ghVao9R3QRQ7n7Ik-zy2FtoPqstoE2DKqeiyX5dEhK8dQb4KzLCItbJQE1xRenarxlvX7S_qJivgOMwWKeXeL38kIq8C8KquOegsJhYSjpACXxNHWqewMGnrQpi6PPwj8ZEaV-1m00]--></g></svg>