<?xml version="1.0" encoding="UTF-8" standalone="no"?><svg xmlns="http://www.w3.org/2000/svg" xmlns:xlink="http://www.w3.org/1999/xlink" contentStyleType="text/css" height="326px" preserveAspectRatio="none" style="width:306px;height:326px;background:#FFFFFF;" version="1.1" viewBox="0 0 306 326" width="306px" zoomAndPan="magnify"><defs/><g><!--MD5=[1d4c1337f147c4c8667185f4c47428f1]
cluster DataCache--><g id="cluster_DataCache"><path d="M8.5,6 L286.5,6 A3.75,3.75 0 0 1 289,8.5 L296,28.2969 L296.5,28.2969 A2.5,2.5 0 0 1 299,30.7969 L299,316.5 A2.5,2.5 0 0 1 296.5,319 L8.5,319 A2.5,2.5 0 0 1 6,316.5 L6,8.5 A2.5,2.5 0 0 1 8.5,6 " fill="none" style="stroke:#000000;stroke-width:1.5;"/><line style="stroke:#000000;stroke-width:1.5;" x1="6" x2="296" y1="28.2969" y2="28.2969"/><text fill="#000000" font-family="sans-serif" font-size="14" font-weight="bold" lengthAdjust="spacing" textLength="277" x="10" y="20.9951">&lt;OBC SDK&gt;/espf/config/datacache</text></g><!--MD5=[226fc8af728df80cb2ddb40b34b22fc1]
entity dc--><g id="elem_dc"><path d="M89,156.5 L89,187.7969 A2.5,2.5 0 0 0 91.5,190.2969 L212.5,190.2969 A2.5,2.5 0 0 0 215,187.7969 L215,164 L205,154 L91.5,154 A2.5,2.5 0 0 0 89,156.5 " fill="#F1F1F1" style="stroke:#181818;stroke-width:0.5;"/><path d="M205,154 L205,161.5 A2.5,2.5 0 0 0 207.5,164 L215,164 " fill="#F1F1F1" style="stroke:#181818;stroke-width:0.5;"/><text fill="#000000" font-family="sans-serif" font-size="14" lengthAdjust="spacing" textLength="106" x="99" y="176.9951">DataCache.fidl</text></g><!--MD5=[c2206082c6741e879226bfc5f8b172a3]
entity dc_types--><g id="elem_dc_types"><path d="M64,269.5 L64,300.7969 A2.5,2.5 0 0 0 66.5,303.2969 L237.5,303.2969 A2.5,2.5 0 0 0 240,300.7969 L240,277 L230,267 L66.5,267 A2.5,2.5 0 0 0 64,269.5 " fill="#F1F1F1" style="stroke:#181818;stroke-width:0.5;"/><path d="M230,267 L230,274.5 A2.5,2.5 0 0 0 232.5,277 L240,277 " fill="#F1F1F1" style="stroke:#181818;stroke-width:0.5;"/><text fill="#000000" font-family="sans-serif" font-size="14" lengthAdjust="spacing" textLength="156" x="74" y="289.9951">DataCache_Types.fidl</text></g><!--MD5=[4c0a6c5c60b8912615fac9970792fc26]
entity dc_depl--><g id="elem_dc_depl"><path d="M84,43.5 L84,74.7969 A2.5,2.5 0 0 0 86.5,77.2969 L217.5,77.2969 A2.5,2.5 0 0 0 220,74.7969 L220,51 L210,41 L86.5,41 A2.5,2.5 0 0 0 84,43.5 " fill="#F1F1F1" style="stroke:#181818;stroke-width:0.5;"/><path d="M210,41 L210,48.5 A2.5,2.5 0 0 0 212.5,51 L220,51 " fill="#F1F1F1" style="stroke:#181818;stroke-width:0.5;"/><text fill="#000000" font-family="sans-serif" font-size="14" lengthAdjust="spacing" textLength="116" x="94" y="63.9951">deploy_dc.fdepl</text></g><!--MD5=[6bf6ed837e557291cd554320ac10809d]
link dc_depl to dc--><g id="link_dc_depl_dc"><path d="M152,77.344 C152,96.568 152,127.63 152,148.661 " fill="none" id="dc_depl-to-dc" style="stroke:#181818;stroke-width:1.0;stroke-dasharray:7.0,7.0;"/><polygon fill="#181818" points="152,153.778,156,144.778,152,148.778,148,144.778,152,153.778" style="stroke:#181818;stroke-width:1.0;"/><text fill="#000000" font-family="sans-serif" font-size="13" font-style="italic" lengthAdjust="spacing" textLength="66" x="153" y="120.0669">«imports»</text></g><!--MD5=[2ccb578b626a94f3d7f0e48aa6f51162]
link dc to dc_types--><g id="link_dc_dc_types"><path d="M152,190.344 C152,209.568 152,240.6296 152,261.6606 " fill="none" id="dc-to-dc_types" style="stroke:#181818;stroke-width:1.0;stroke-dasharray:7.0,7.0;"/><polygon fill="#181818" points="152,266.778,156,257.778,152,261.778,148,257.778,152,266.778" style="stroke:#181818;stroke-width:1.0;"/><text fill="#000000" font-family="sans-serif" font-size="13" font-style="italic" lengthAdjust="spacing" textLength="66" x="153" y="233.0669">«imports»</text></g><!--MD5=[d8e6f1d3eb210f0c8519ef8f93eaa8fb]
@startuml
folder DataCache as "<OBC SDK>/espf/config/datacache" {
file dc as "DataCache.fidl"
file dc_types as "DataCache_Types.fidl"
file dc_depl as "deploy_dc.fdepl"
}

dc_depl ..> dc: <i><<imports>></i>
dc ..> dc_types: <i><<imports>></i>
@enduml

PlantUML version 1.2022.13beta8(Unknown compile time)
(GPL source distribution)
Java Runtime: Java(TM) SE Runtime Environment
JVM: Java HotSpot(TM) 64-Bit Server VM
Default Encoding: UTF-8
Language: en
Country: US
--></g></svg>