<?xml version="1.0" encoding="UTF-8" standalone="no"?><svg xmlns="http://www.w3.org/2000/svg" xmlns:xlink="http://www.w3.org/1999/xlink" contentScriptType="application/ecmascript" contentStyleType="text/css" height="507px" preserveAspectRatio="none" style="width:271px;height:507px;background:#FFFFFF;" version="1.1" viewBox="0 0 271 507" width="271px" zoomAndPan="magnify"><defs><filter height="300%" id="f10agjkx5mpjj3" width="300%" x="-1" y="-1"><feGaussianBlur result="blurOut" stdDeviation="2.0"/><feColorMatrix in="blurOut" result="blurOut2" type="matrix" values="0 0 0 0 0 0 0 0 0 0 0 0 0 0 0 0 0 0 .4 0"/><feOffset dx="4.0" dy="4.0" in="blurOut2" result="blurOut3"/><feBlend in="SourceGraphic" in2="blurOut3" mode="normal"/></filter></defs><g><ellipse cx="134.5" cy="20" fill="#000000" filter="url(#f10agjkx5mpjj3)" rx="10" ry="10" style="stroke:none;stroke-width:1.0;"/><rect fill="#FEFECE" filter="url(#f10agjkx5mpjj3)" height="35.0938" rx="12.5" ry="12.5" style="stroke:#A80036;stroke-width:1.5;" width="84" x="92.5" y="50"/><text fill="#000000" font-family="sans-serif" font-size="12" lengthAdjust="spacing" textLength="64" x="102.5" y="72.457">Initialization</text><polygon fill="#FFFFFF" filter="url(#f10agjkx5mpjj3)" points="20,95.0938,71,95.0938,78,118.7031,249,118.7031,249,187.7969,20,187.7969,20,95.0938" style="stroke:#000000;stroke-width:2.0;"/><line style="stroke:#000000;stroke-width:2.0;" x1="20" x2="78" y1="118.7031" y2="118.7031"/><text fill="#000000" font-family="sans-serif" font-size="14" lengthAdjust="spacing" textLength="41" x="24" y="111.627">Step 1</text><rect fill="#FEFECE" filter="url(#f10agjkx5mpjj3)" height="35.0938" rx="12.5" ry="12.5" style="stroke:#A80036;stroke-width:1.5;" width="209" x="30" y="132.7031"/><text fill="#000000" font-family="sans-serif" font-size="12" lengthAdjust="spacing" textLength="183" x="43" y="155.1602">Read active magnetometer frame</text><polygon fill="#FFFFFF" filter="url(#f10agjkx5mpjj3)" points="20.5,197.7969,71.5,197.7969,78.5,221.4063,248.5,221.4063,248.5,290.5,20.5,290.5,20.5,197.7969" style="stroke:#000000;stroke-width:2.0;"/><line style="stroke:#000000;stroke-width:2.0;" x1="20.5" x2="78.5" y1="221.4063" y2="221.4063"/><text fill="#000000" font-family="sans-serif" font-size="14" lengthAdjust="spacing" textLength="41" x="24.5" y="214.3301">Step 2</text><rect fill="#FEFECE" filter="url(#f10agjkx5mpjj3)" height="35.0938" rx="12.5" ry="12.5" style="stroke:#A80036;stroke-width:1.5;" width="208" x="30.5" y="235.4063"/><text fill="#000000" font-family="sans-serif" font-size="12" lengthAdjust="spacing" textLength="170" x="52.5" y="257.8633">Verify that the frame is incorrect</text><polygon fill="#FFFFFF" filter="url(#f10agjkx5mpjj3)" points="21,300.5,72,300.5,79,324.1094,248,324.1094,248,393.2031,21,393.2031,21,300.5" style="stroke:#000000;stroke-width:2.0;"/><line style="stroke:#000000;stroke-width:2.0;" x1="21" x2="79" y1="324.1094" y2="324.1094"/><text fill="#000000" font-family="sans-serif" font-size="14" lengthAdjust="spacing" textLength="41" x="25" y="317.0332">Step 3</text><rect fill="#FEFECE" filter="url(#f10agjkx5mpjj3)" height="35.0938" rx="12.5" ry="12.5" style="stroke:#A80036;stroke-width:1.5;" width="207" x="31" y="338.1094"/><text fill="#000000" font-family="sans-serif" font-size="12" lengthAdjust="spacing" textLength="163" x="53" y="360.5664">Set new magnetometer frame</text><polygon fill="#FFFFFF" filter="url(#f10agjkx5mpjj3)" points="21.5,403.2031,72.5,403.2031,79.5,426.8125,247.5,426.8125,247.5,495.9063,21.5,495.9063,21.5,403.2031" style="stroke:#000000;stroke-width:2.0;"/><line style="stroke:#000000;stroke-width:2.0;" x1="21.5" x2="79.5" y1="426.8125" y2="426.8125"/><text fill="#000000" font-family="sans-serif" font-size="14" lengthAdjust="spacing" textLength="41" x="25.5" y="419.7363">Step 4</text><rect fill="#FEFECE" filter="url(#f10agjkx5mpjj3)" height="35.0938" rx="12.5" ry="12.5" style="stroke:#A80036;stroke-width:1.5;" width="206" x="31.5" y="440.8125"/><text fill="#000000" font-family="sans-serif" font-size="12" lengthAdjust="spacing" textLength="183" x="41.5" y="463.2695">Save the new active frame to NVM</text><line style="stroke:#A80036;stroke-width:1.5;" x1="134.5" x2="134.5" y1="30" y2="50"/><polygon fill="#A80036" points="130.5,40,134.5,50,138.5,40,134.5,44" style="stroke:#A80036;stroke-width:1.0;"/><line style="stroke:#A80036;stroke-width:1.5;" x1="134.5" x2="134.5" y1="85.0938" y2="132.7031"/><polygon fill="#A80036" points="130.5,122.7031,134.5,132.7031,138.5,122.7031,134.5,126.7031" style="stroke:#A80036;stroke-width:1.0;"/><line style="stroke:#A80036;stroke-width:1.5;" x1="134.5" x2="134.5" y1="167.7969" y2="235.4063"/><polygon fill="#A80036" points="130.5,225.4063,134.5,235.4063,138.5,225.4063,134.5,229.4063" style="stroke:#A80036;stroke-width:1.0;"/><line style="stroke:#A80036;stroke-width:1.5;" x1="134.5" x2="134.5" y1="270.5" y2="338.1094"/><polygon fill="#A80036" points="130.5,328.1094,134.5,338.1094,138.5,328.1094,134.5,332.1094" style="stroke:#A80036;stroke-width:1.0;"/><line style="stroke:#A80036;stroke-width:1.5;" x1="134.5" x2="134.5" y1="373.2031" y2="440.8125"/><polygon fill="#A80036" points="130.5,430.8125,134.5,440.8125,138.5,430.8125,134.5,434.8125" style="stroke:#A80036;stroke-width:1.0;"/><!--MD5=[e07aa5cd47faba3dff05b07d06a42f9d]
@startuml
start
:Initialization;
package "Step 1 " {
: Read active magnetometer frame ;
}
package "Step 2 " {
:    Verify that the frame is incorrect  ;
}
package "Step 3 " {
:    Set new magnetometer frame    ;
}
package "Step 4 " {
:Save the new active frame to NVM ;
}
@enduml

PlantUML version 1.2021.16(Wed Dec 08 19:25:22 EET 2021)
(GPL source distribution)
Java Runtime: OpenJDK Runtime Environment
JVM: OpenJDK 64-Bit Server VM
Default Encoding: Cp1251
Language: en
Country: US
--></g></svg>