<?xml version="1.0" encoding="UTF-8" standalone="no"?><svg xmlns="http://www.w3.org/2000/svg" xmlns:xlink="http://www.w3.org/1999/xlink" contentScriptType="application/ecmascript" contentStyleType="text/css" height="713px" preserveAspectRatio="none" style="width:353px;height:713px;background:#FFFFFF;" version="1.1" viewBox="0 0 353 713" width="353px" zoomAndPan="magnify"><defs><filter height="300%" id="fylw4gypz8co5" width="300%" x="-1" y="-1"><feGaussianBlur result="blurOut" stdDeviation="2.0"/><feColorMatrix in="blurOut" result="blurOut2" type="matrix" values="0 0 0 0 0 0 0 0 0 0 0 0 0 0 0 0 0 0 .4 0"/><feOffset dx="4.0" dy="4.0" in="blurOut2" result="blurOut3"/><feBlend in="SourceGraphic" in2="blurOut3" mode="normal"/></filter></defs><g><ellipse cx="175.5" cy="20" fill="#000000" filter="url(#fylw4gypz8co5)" rx="10" ry="10" style="stroke:none;stroke-width:1.0;"/><rect fill="#FEFECE" filter="url(#fylw4gypz8co5)" height="35.0938" rx="12.5" ry="12.5" style="stroke:#A80036;stroke-width:1.5;" width="84" x="133.5" y="50"/><text fill="#000000" font-family="sans-serif" font-size="12" lengthAdjust="spacing" textLength="64" x="143.5" y="72.457">Initialization</text><polygon fill="#FFFFFF" filter="url(#fylw4gypz8co5)" points="20.5,95.0938,71.5,95.0938,78.5,118.7031,330.5,118.7031,330.5,187.7969,20.5,187.7969,20.5,95.0938" style="stroke:#000000;stroke-width:2.0;"/><line style="stroke:#000000;stroke-width:2.0;" x1="20.5" x2="78.5" y1="118.7031" y2="118.7031"/><text fill="#000000" font-family="sans-serif" font-size="14" lengthAdjust="spacing" textLength="41" x="24.5" y="111.627">Step 1</text><rect fill="#FEFECE" filter="url(#fylw4gypz8co5)" height="35.0938" rx="12.5" ry="12.5" style="stroke:#A80036;stroke-width:1.5;" width="290" x="30.5" y="132.7031"/><text fill="#000000" font-family="sans-serif" font-size="12" lengthAdjust="spacing" textLength="130" x="64.5" y="155.1602">Read operational mode</text><text fill="#000000" font-family="sans-serif" font-size="12" font-weight="bold" lengthAdjust="spacing" textLength="89" x="197.5" y="155.1602">(expected IDLE)</text><text fill="#000000" font-family="sans-serif" font-size="12" lengthAdjust="spacing" textLength="0" x="310.5" y="155.1602"/><polygon fill="#FFFFFF" filter="url(#fylw4gypz8co5)" points="20.5,197.7969,71.5,197.7969,78.5,221.4063,330.5,221.4063,330.5,290.5,20.5,290.5,20.5,197.7969" style="stroke:#000000;stroke-width:2.0;"/><line style="stroke:#000000;stroke-width:2.0;" x1="20.5" x2="78.5" y1="221.4063" y2="221.4063"/><text fill="#000000" font-family="sans-serif" font-size="14" lengthAdjust="spacing" textLength="41" x="24.5" y="214.3301">Step 2</text><rect fill="#FEFECE" filter="url(#fylw4gypz8co5)" height="35.0938" rx="12.5" ry="12.5" style="stroke:#A80036;stroke-width:1.5;" width="290" x="30.5" y="235.4063"/><text fill="#000000" font-family="sans-serif" font-size="12" lengthAdjust="spacing" textLength="153" x="103.5" y="257.8633">Read configured estimators</text><polygon fill="#FFFFFF" filter="url(#fylw4gypz8co5)" points="21.5,300.5,72.5,300.5,79.5,324.1094,329.5,324.1094,329.5,393.2031,21.5,393.2031,21.5,300.5" style="stroke:#000000;stroke-width:2.0;"/><line style="stroke:#000000;stroke-width:2.0;" x1="21.5" x2="79.5" y1="324.1094" y2="324.1094"/><text fill="#000000" font-family="sans-serif" font-size="14" lengthAdjust="spacing" textLength="41" x="25.5" y="317.0332">Step 3</text><rect fill="#FEFECE" filter="url(#fylw4gypz8co5)" height="35.0938" rx="12.5" ry="12.5" style="stroke:#A80036;stroke-width:1.5;" width="288" x="31.5" y="338.1094"/><text fill="#000000" font-family="sans-serif" font-size="12" lengthAdjust="spacing" textLength="145" x="104.5" y="360.5664">Read configured controller</text><polygon fill="#FFFFFF" filter="url(#fylw4gypz8co5)" points="20,403.2031,71,403.2031,78,426.8125,331,426.8125,331,495.9063,20,495.9063,20,403.2031" style="stroke:#000000;stroke-width:2.0;"/><line style="stroke:#000000;stroke-width:2.0;" x1="20" x2="78" y1="426.8125" y2="426.8125"/><text fill="#000000" font-family="sans-serif" font-size="14" lengthAdjust="spacing" textLength="41" x="24" y="419.7363">Step 4</text><rect fill="#FEFECE" filter="url(#fylw4gypz8co5)" height="35.0938" rx="12.5" ry="12.5" style="stroke:#A80036;stroke-width:1.5;" width="291" x="30" y="440.8125"/><text fill="#000000" font-family="sans-serif" font-size="12" lengthAdjust="spacing" textLength="202" x="73" y="463.2695">Read chosen controller configuration</text><polygon fill="#FFFFFF" filter="url(#fylw4gypz8co5)" points="20,505.9063,71,505.9063,78,529.5156,331,529.5156,331,598.6094,20,598.6094,20,505.9063" style="stroke:#000000;stroke-width:2.0;"/><line style="stroke:#000000;stroke-width:2.0;" x1="20" x2="78" y1="529.5156" y2="529.5156"/><text fill="#000000" font-family="sans-serif" font-size="14" lengthAdjust="spacing" textLength="41" x="24" y="522.4395">Step 5</text><rect fill="#FEFECE" filter="url(#fylw4gypz8co5)" height="35.0938" rx="12.5" ry="12.5" style="stroke:#A80036;stroke-width:1.5;" width="291" x="30" y="543.5156"/><text fill="#000000" font-family="sans-serif" font-size="12" lengthAdjust="spacing" textLength="175" x="91" y="565.9727">Read configured magnetometer</text><polygon fill="#FFFFFF" filter="url(#fylw4gypz8co5)" points="20.5,608.6094,71.5,608.6094,78.5,632.2188,330.5,632.2188,330.5,701.3125,20.5,701.3125,20.5,608.6094" style="stroke:#000000;stroke-width:2.0;"/><line style="stroke:#000000;stroke-width:2.0;" x1="20.5" x2="78.5" y1="632.2188" y2="632.2188"/><text fill="#000000" font-family="sans-serif" font-size="14" lengthAdjust="spacing" textLength="41" x="24.5" y="625.1426">Step 6</text><rect fill="#FEFECE" filter="url(#fylw4gypz8co5)" height="35.0938" rx="12.5" ry="12.5" style="stroke:#A80036;stroke-width:1.5;" width="290" x="30.5" y="646.2188"/><text fill="#000000" font-family="sans-serif" font-size="12" lengthAdjust="spacing" textLength="94" x="40.5" y="668.6758">Enable ES ADCS</text><text fill="#000000" font-family="sans-serif" font-size="12" font-weight="bold" lengthAdjust="spacing" textLength="170" x="137.5" y="668.6758">(Set operational mode to RUN)</text><text fill="#000000" font-family="sans-serif" font-size="12" lengthAdjust="spacing" textLength="0" x="310.5" y="668.6758"/><line style="stroke:#A80036;stroke-width:1.5;" x1="175.5" x2="175.5" y1="30" y2="50"/><polygon fill="#A80036" points="171.5,40,175.5,50,179.5,40,175.5,44" style="stroke:#A80036;stroke-width:1.0;"/><line style="stroke:#A80036;stroke-width:1.5;" x1="175.5" x2="175.5" y1="85.0938" y2="132.7031"/><polygon fill="#A80036" points="171.5,122.7031,175.5,132.7031,179.5,122.7031,175.5,126.7031" style="stroke:#A80036;stroke-width:1.0;"/><line style="stroke:#A80036;stroke-width:1.5;" x1="175.5" x2="175.5" y1="167.7969" y2="235.4063"/><polygon fill="#A80036" points="171.5,225.4063,175.5,235.4063,179.5,225.4063,175.5,229.4063" style="stroke:#A80036;stroke-width:1.0;"/><line style="stroke:#A80036;stroke-width:1.5;" x1="175.5" x2="175.5" y1="270.5" y2="338.1094"/><polygon fill="#A80036" points="171.5,328.1094,175.5,338.1094,179.5,328.1094,175.5,332.1094" style="stroke:#A80036;stroke-width:1.0;"/><line style="stroke:#A80036;stroke-width:1.5;" x1="175.5" x2="175.5" y1="373.2031" y2="440.8125"/><polygon fill="#A80036" points="171.5,430.8125,175.5,440.8125,179.5,430.8125,175.5,434.8125" style="stroke:#A80036;stroke-width:1.0;"/><line style="stroke:#A80036;stroke-width:1.5;" x1="175.5" x2="175.5" y1="475.9063" y2="543.5156"/><polygon fill="#A80036" points="171.5,533.5156,175.5,543.5156,179.5,533.5156,175.5,537.5156" style="stroke:#A80036;stroke-width:1.0;"/><line style="stroke:#A80036;stroke-width:1.5;" x1="175.5" x2="175.5" y1="578.6094" y2="646.2188"/><polygon fill="#A80036" points="171.5,636.2188,175.5,646.2188,179.5,636.2188,175.5,640.2188" style="stroke:#A80036;stroke-width:1.0;"/><!--MD5=[e1b8709fa3c3dcadea7bfbc1270a6e4c]
@startuml
start
:Initialization;
package "Step 1 " {
:        Read operational mode **(expected IDLE)**        ;
}
package "Step 2 " {
:                     Read configured estimators                  ;
}
package "Step 3 " {
:                     Read configured controller                    ;
}
package "Step 4 " {
:           Read chosen controller configuration            ;
}
package "Step 5 " {
:                 Read configured magnetometer               ;
}
package "Step 6 " {
:Enable ES ADCS **(Set operational mode to RUN)** ;
}
@enduml

PlantUML version 1.2021.16(Wed Dec 08 19:25:22 EET 2021)
(GPL source distribution)
Java Runtime: OpenJDK Runtime Environment
JVM: OpenJDK 64-Bit Server VM
Default Encoding: Cp1251
Language: en
Country: US
--></g></svg>