<?xml version="1.0" encoding="UTF-8" standalone="no"?><svg xmlns="http://www.w3.org/2000/svg" xmlns:xlink="http://www.w3.org/1999/xlink" contentScriptType="application/ecmascript" contentStyleType="text/css" height="605px" preserveAspectRatio="none" style="width:590px;height:605px;background:#FFFFFF;" version="1.1" viewBox="0 0 590 605" width="590px" zoomAndPan="magnify"><defs><filter height="300%" id="f1vdzevv89nz5z" width="300%" x="-1" y="-1"><feGaussianBlur result="blurOut" stdDeviation="2.0"/><feColorMatrix in="blurOut" result="blurOut2" type="matrix" values="0 0 0 0 0 0 0 0 0 0 0 0 0 0 0 0 0 0 .4 0"/><feOffset dx="4.0" dy="4.0" in="blurOut2" result="blurOut3"/><feBlend in="SourceGraphic" in2="blurOut3" mode="normal"/></filter></defs><g><text fill="#000000" font-family="sans-serif" font-size="18" font-weight="bold" lengthAdjust="spacing" textLength="211" x="183.27" y="18.6855">es_adcs_op_modes_sm</text><ellipse cx="242.54" cy="38.6406" fill="#000000" filter="url(#f1vdzevv89nz5z)" rx="10" ry="10" style="stroke:none;stroke-width:1.0;"/><g id="ADCS_NOT_INIT"><rect fill="#FEFECE" filter="url(#f1vdzevv89nz5z)" height="50" rx="12.5" ry="12.5" style="stroke:#A80036;stroke-width:1.5;" width="127" x="179.04" y="109.6406"/><line style="stroke:#A80036;stroke-width:1.5;" x1="179.04" x2="306.04" y1="137.25" y2="137.25"/><text fill="#000000" font-family="sans-serif" font-size="14" lengthAdjust="spacing" textLength="107" x="189.04" y="129.1738">ADCS_NOT_INIT</text></g><g id="ADCS_RUN"><rect fill="#FEFECE" filter="url(#f1vdzevv89nz5z)" height="50" rx="12.5" ry="12.5" style="stroke:#A80036;stroke-width:1.5;" width="94" x="108.54" y="397.6406"/><line style="stroke:#A80036;stroke-width:1.5;" x1="108.54" x2="202.54" y1="425.25" y2="425.25"/><text fill="#000000" font-family="sans-serif" font-size="14" lengthAdjust="spacing" textLength="74" x="118.54" y="417.1738">ADCS_RUN</text></g><g id="ADCS_TRIGGER"><rect fill="#FEFECE" filter="url(#f1vdzevv89nz5z)" height="50" rx="12.5" ry="12.5" style="stroke:#A80036;stroke-width:1.5;" width="129" x="249.04" y="541.6406"/><line style="stroke:#A80036;stroke-width:1.5;" x1="249.04" x2="378.04" y1="569.25" y2="569.25"/><text fill="#000000" font-family="sans-serif" font-size="14" lengthAdjust="spacing" textLength="109" x="259.04" y="561.1738">ADCS_TRIGGER</text></g><g id="ADCS_IDLE"><rect fill="#FEFECE" filter="url(#f1vdzevv89nz5z)" height="50" rx="12.5" ry="12.5" style="stroke:#A80036;stroke-width:1.5;" width="96" x="194.54" y="253.6406"/><line style="stroke:#A80036;stroke-width:1.5;" x1="194.54" x2="290.54" y1="281.25" y2="281.25"/><text fill="#000000" font-family="sans-serif" font-size="14" lengthAdjust="spacing" textLength="76" x="204.54" y="273.1738">ADCS_IDLE</text></g><!--MD5=[8851ff9998b22072515fee2afca73e1a]
link *start to ADCS_NOT_INIT--><path d="M242.54,48.6506 C242.54,61.3406 242.54,85.0506 242.54,104.2106 " fill="none" id="*start-to-ADCS_NOT_INIT" style="stroke:#A80036;stroke-width:1.0;"/><polygon fill="#A80036" points="242.54,109.4806,246.54,100.4806,242.54,104.4806,238.54,100.4806,242.54,109.4806" style="stroke:#A80036;stroke-width:1.0;"/><!--MD5=[17cc5dd23bcbd2116256d5b92e9ee00a]
link ADCS_RUN to ADCS_IDLE--><path d="M154.22,397.5506 C154.29,378.8506 156.88,352.9406 168.54,333.6406 C174.8,323.2806 183.88,314.3006 193.55,306.8106 " fill="none" id="ADCS_RUN-to-ADCS_IDLE" style="stroke:#A80036;stroke-width:1.0;"/><polygon fill="#A80036" points="197.73,303.6906,188.125,305.8686,193.7231,306.6815,192.9103,312.2796,197.73,303.6906" style="stroke:#A80036;stroke-width:1.0;"/><text fill="#000000" font-family="sans-serif" font-size="13" font-weight="bold" lengthAdjust="spacing" textLength="71" x="190.54" y="348.1357">run_to_idle</text><text fill="#000000" font-family="sans-serif" font-size="13" lengthAdjust="spacing" textLength="0" x="265.54" y="348.1357"/><text fill="#000000" font-family="sans-serif" font-size="13" lengthAdjust="spacing" textLength="117" x="169.54" y="364.4873">/ prepare_idle_mode</text><!--MD5=[04faeb534a975cafb7a214b595ff85ea]
link ADCS_IDLE to ADCS_RUN--><path d="M194.27,285.1706 C138.34,292.6806 51.31,308.1806 31.54,333.6406 C6,366.5306 59.03,392.3006 103.48,407.2406 " fill="none" id="ADCS_IDLE-to-ADCS_RUN" style="stroke:#A80036;stroke-width:1.0;"/><polygon fill="#A80036" points="108.31,408.8306,101.0188,402.2095,103.5623,407.2623,98.5095,409.8058,108.31,408.8306" style="stroke:#A80036;stroke-width:1.0;"/><text fill="#000000" font-family="sans-serif" font-size="13" font-weight="bold" lengthAdjust="spacing" textLength="71" x="52.54" y="348.1357">idle_to_run</text><text fill="#000000" font-family="sans-serif" font-size="13" lengthAdjust="spacing" textLength="0" x="127.54" y="348.1357"/><text fill="#000000" font-family="sans-serif" font-size="13" lengthAdjust="spacing" textLength="115" x="32.54" y="364.4873">/ prepare_run_mode</text><!--MD5=[887574c0ccae09bf8270f249fe498d73]
link ADCS_RUN to ADCS_TRIGGER--><path d="M147.24,447.9906 C142.36,467.0906 139.42,493.4006 152.54,511.6406 C173.3,540.4906 210.2,554.1406 243.45,560.5206 " fill="none" id="ADCS_RUN-to-ADCS_TRIGGER" style="stroke:#A80036;stroke-width:1.0;"/><polygon fill="#A80036" points="248.75,561.4806,240.615,555.929,243.8313,560.5824,239.1779,563.7988,248.75,561.4806" style="stroke:#A80036;stroke-width:1.0;"/><text fill="#000000" font-family="sans-serif" font-size="13" font-weight="bold" lengthAdjust="spacing" textLength="89" x="173.54" y="492.1357">run_to_trigger</text><text fill="#000000" font-family="sans-serif" font-size="13" lengthAdjust="spacing" textLength="0" x="266.54" y="492.1357"/><text fill="#000000" font-family="sans-serif" font-size="13" lengthAdjust="spacing" textLength="133" x="153.54" y="508.4873">/ prepare_trigger_mode</text><!--MD5=[35b8e8ea174d960bea571ac6c2bd396c]
link ADCS_TRIGGER to ADCS_IDLE--><path d="M360.45,541.5706 C413.97,510.7006 490.04,454.3706 456.54,397.6406 C422.06,339.2506 347.21,307.7706 295.84,292.3606 " fill="none" id="ADCS_TRIGGER-to-ADCS_IDLE" style="stroke:#A80036;stroke-width:1.0;"/><polygon fill="#A80036" points="290.95,290.9206,298.4525,297.3012,295.7461,292.3338,300.7136,289.6274,290.95,290.9206" style="stroke:#A80036;stroke-width:1.0;"/><text fill="#000000" font-family="sans-serif" font-size="13" font-weight="bold" lengthAdjust="spacing" textLength="92" x="476.04" y="420.1357">trigger_to_idle</text><text fill="#000000" font-family="sans-serif" font-size="13" lengthAdjust="spacing" textLength="0" x="572.04" y="420.1357"/><text fill="#000000" font-family="sans-serif" font-size="13" lengthAdjust="spacing" textLength="117" x="465.54" y="436.4873">/ prepare_idle_mode</text><!--MD5=[0fe795cdfaa5737216c0267490927b10]
link ADCS_IDLE to ADCS_TRIGGER--><path d="M270.54,303.8006 C278.68,312.3706 286.68,322.6406 291.54,333.6406 C307.25,369.2306 311.77,482.2506 313.05,536.3006 " fill="none" id="ADCS_IDLE-to-ADCS_TRIGGER" style="stroke:#A80036;stroke-width:1.0;"/><polygon fill="#A80036" points="313.16,541.3406,316.9533,532.2516,313.0457,536.3419,308.9554,532.4344,313.16,541.3406" style="stroke:#A80036;stroke-width:1.0;"/><text fill="#000000" font-family="sans-serif" font-size="13" font-weight="bold" lengthAdjust="spacing" textLength="92" x="328.04" y="420.1357">idle_to_trigger</text><text fill="#000000" font-family="sans-serif" font-size="13" lengthAdjust="spacing" textLength="0" x="424.04" y="420.1357"/><text fill="#000000" font-family="sans-serif" font-size="13" lengthAdjust="spacing" textLength="133" x="309.54" y="436.4873">/ prepare_trigger_mode</text><!--MD5=[d29bd6332fccc03d703a9ff8534e01e6]
link ADCS_NOT_INIT to ADCS_IDLE--><path d="M242.54,159.7306 C242.54,184.2106 242.54,222.1606 242.54,248.3606 " fill="none" id="ADCS_NOT_INIT-to-ADCS_IDLE" style="stroke:#A80036;stroke-width:1.0;"/><polygon fill="#A80036" points="242.54,253.4306,246.54,244.4306,242.54,248.4306,238.54,244.4306,242.54,253.4306" style="stroke:#A80036;stroke-width:1.0;"/><text fill="#000000" font-family="sans-serif" font-size="13" font-weight="bold" lengthAdjust="spacing" textLength="27" x="243.54" y="204.1357">start</text><text fill="#000000" font-family="sans-serif" font-size="13" lengthAdjust="spacing" textLength="0" x="274.54" y="204.1357"/><text fill="#000000" font-family="sans-serif" font-size="13" lengthAdjust="spacing" textLength="0" x="261.04" y="220.4873"/><!--MD5=[913f65eb847f2e100c2d267db2300603]
@startuml
title <b>es_adcs_op_modes_sm
[*] - -> ADCS_NOT_INIT
state ADCS_RUN
state ADCS_TRIGGER
state ADCS_IDLE
state ADCS_NOT_INIT

ADCS_RUN - -> ADCS_IDLE: <b>run_to_idle</b> \n/ prepare_idle_mode
ADCS_RUN - -> ADCS_TRIGGER: <b>run_to_trigger</b> \n/ prepare_trigger_mode
ADCS_TRIGGER - -> ADCS_IDLE: <b>trigger_to_idle</b> \n/ prepare_idle_mode
ADCS_IDLE - -> ADCS_RUN: <b>idle_to_run</b> \n/ prepare_run_mode
ADCS_IDLE - -> ADCS_TRIGGER: <b>idle_to_trigger</b> \n/ prepare_trigger_mode
ADCS_NOT_INIT - -> ADCS_IDLE: <b>start</b> \n
@enduml

PlantUML version 1.2021.16(Wed Dec 08 19:25:22 EET 2021)
(GPL source distribution)
Java Runtime: OpenJDK Runtime Environment
JVM: OpenJDK 64-Bit Server VM
Default Encoding: Cp1251
Language: en
Country: US
--></g></svg>