<?xml version="1.0" encoding="UTF-8" standalone="no"?><svg xmlns="http://www.w3.org/2000/svg" xmlns:xlink="http://www.w3.org/1999/xlink" contentStyleType="text/css" height="221px" preserveAspectRatio="none" style="width:1423px;height:221px;background:#FFFFFF;" version="1.1" viewBox="0 0 1423 221" width="1423px" zoomAndPan="magnify"><defs/><g><!--MD5=[db66fe8cbe2cdf0454290dbf82c3f59c]
entity Developer--><g id="elem_Developer"><ellipse cx="125.5" cy="14" fill="#F1F1F1" rx="8" ry="8" style="stroke:#181818;stroke-width:0.5;"/><path d="M125.5,22 L125.5,49 M112.5,30 L138.5,30 M125.5,49 L112.5,64 M125.5,49 L138.5,64 " fill="none" style="stroke:#181818;stroke-width:0.5;"/><text fill="#000000" font-family="sans-serif" font-size="14" lengthAdjust="spacing" textLength="75" x="88" y="78.4951">Developer</text></g><!--MD5=[64dc8dc794ac81958dd03b08bc25cf29]
entity C_src--><g id="elem_C_src"><rect fill="#F1F1F1" height="39.2969" rx="2.5" ry="2.5" style="stroke:#181818;stroke-width:0.5;" width="125" x="263" y="167"/><polygon fill="#F1F1F1" points="371,172,371,186,383,186,383,178,377,172,371,172" style="stroke:#181818;stroke-width:0.5;"/><line style="stroke:#181818;stroke-width:0.5;" x1="377" x2="377" y1="172" y2="178"/><line style="stroke:#181818;stroke-width:0.5;" x1="383" x2="377" y1="178" y2="178"/><text fill="#000000" font-family="sans-serif" font-size="14" lengthAdjust="spacing" textLength="95" x="273" y="192.9951">C source files</text></g><!--MD5=[d1d5aed720b8a50cd7f04af439358cc3]
entity py_src--><g id="elem_py_src"><rect fill="#F1F1F1" height="39.2969" rx="2.5" ry="2.5" style="stroke:#181818;stroke-width:0.5;" width="173" x="577" y="167"/><polygon fill="#F1F1F1" points="733,172,733,186,745,186,745,178,739,172,733,172" style="stroke:#181818;stroke-width:0.5;"/><line style="stroke:#181818;stroke-width:0.5;" x1="739" x2="739" y1="172" y2="178"/><line style="stroke:#181818;stroke-width:0.5;" x1="745" x2="739" y1="178" y2="178"/><text fill="#000000" font-family="sans-serif" font-size="14" lengthAdjust="spacing" textLength="143" x="587" y="192.9951">Python API bindings</text></g><!--MD5=[4da7c9a851f9d9ead1c435d836e1ae74]
entity js_src--><g id="elem_js_src"><rect fill="#F1F1F1" height="39.2969" rx="2.5" ry="2.5" style="stroke:#181818;stroke-width:0.5;" width="222" x="785.5" y="167"/><polygon fill="#F1F1F1" points="990.5,172,990.5,186,1002.5,186,1002.5,178,996.5,172,990.5,172" style="stroke:#181818;stroke-width:0.5;"/><line style="stroke:#181818;stroke-width:0.5;" x1="996.5" x2="996.5" y1="172" y2="178"/><line style="stroke:#181818;stroke-width:0.5;" x1="1002.5" x2="996.5" y1="178" y2="178"/><text fill="#000000" font-family="sans-serif" font-size="14" lengthAdjust="spacing" textLength="192" x="795.5" y="192.9951">JavaScript GUI API bindings</text></g><!--MD5=[a0482caaf643f75037b8368f9ed0b7f6]
entity fdepl--><g id="elem_fdepl"><path d="M1043,171 L1043,202.2969 A2.5,2.5 0 0 0 1045.5,204.7969 L1293.5,204.7969 A2.5,2.5 0 0 0 1296,202.2969 L1296,178.5 L1286,168.5 L1045.5,168.5 A2.5,2.5 0 0 0 1043,171 " fill="#F1F1F1" style="stroke:#181818;stroke-width:0.5;"/><path d="M1286,168.5 L1286,176 A2.5,2.5 0 0 0 1288.5,178.5 L1296,178.5 " fill="#F1F1F1" style="stroke:#181818;stroke-width:0.5;"/><text fill="#000000" font-family="sans-serif" font-size="14" lengthAdjust="spacing" textLength="233" x="1053" y="191.4951">FDEPL (deployment schema) file</text></g><!--MD5=[4afe2bb2b2cd3d754758cfc5c98d7d79]
entity fidl--><g id="elem_fidl"><path d="M1331,171 L1331,202.2969 A2.5,2.5 0 0 0 1333.5,204.7969 L1413.5,204.7969 A2.5,2.5 0 0 0 1416,202.2969 L1416,178.5 L1406,168.5 L1333.5,168.5 A2.5,2.5 0 0 0 1331,171 " fill="#F1F1F1" style="stroke:#181818;stroke-width:0.5;"/><path d="M1406,168.5 L1406,176 A2.5,2.5 0 0 0 1408.5,178.5 L1416,178.5 " fill="#F1F1F1" style="stroke:#181818;stroke-width:0.5;"/><text fill="#000000" font-family="sans-serif" font-size="14" lengthAdjust="spacing" textLength="65" x="1341" y="191.4951">FIDL files</text></g><!--MD5=[b8a25ba2b03820baa183eb0c67c7262e]
entity OBC--><g id="elem_OBC"><path d="M8.5,158.5 L52.5,158.5 A3.75,3.75 0 0 1 55,161 L62,180.7969 L76.5,180.7969 A2.5,2.5 0 0 1 79,183.2969 L79,211.5938 A2.5,2.5 0 0 1 76.5,214.0938 L8.5,214.0938 A2.5,2.5 0 0 1 6,211.5938 L6,161 A2.5,2.5 0 0 1 8.5,158.5 " fill="#F1F1F1" style="stroke:#181818;stroke-width:0.5;"/><line style="stroke:#181818;stroke-width:0.5;" x1="6" x2="62" y1="180.7969" y2="180.7969"/><text fill="#000000" font-family="sans-serif" font-size="14" lengthAdjust="spacing" textLength="31" x="16" y="174.4951">OBC</text><text fill="#000000" font-family="sans-serif" font-size="14" lengthAdjust="spacing" textLength="30" x="16" y="200.792">SDK</text></g><!--MD5=[5ea844383c8092654ac9158850e2cd30]
entity macchiato--><g id="elem_macchiato"><rect fill="#F1F1F1" height="46.2969" rx="2.5" ry="2.5" style="stroke:#181818;stroke-width:0.5;" width="115" x="839" y="20.5"/><rect fill="#F1F1F1" height="10" style="stroke:#181818;stroke-width:0.5;" width="15" x="934" y="25.5"/><rect fill="#F1F1F1" height="2" style="stroke:#181818;stroke-width:0.5;" width="4" x="932" y="27.5"/><rect fill="#F1F1F1" height="2" style="stroke:#181818;stroke-width:0.5;" width="4" x="932" y="31.5"/><text fill="#000000" font-family="sans-serif" font-size="14" lengthAdjust="spacing" textLength="75" x="854" y="53.4951">macchiato</text></g><!--MD5=[6d460d156365209272a94bf2149b82f1]
link macchiato to fdepl--><g id="link_macchiato_fdepl"><path d="M939.156,66.531 C992.144,93.898 1081.7,140.1519 1132.11,166.1908 " fill="none" id="macchiato-to-fdepl" style="stroke:#181818;stroke-width:1.0;"/><polygon fill="#181818" points="1136.57,168.4921,1130.4166,160.8021,1132.1298,166.1933,1126.7386,167.9065,1136.57,168.4921" style="stroke:#181818;stroke-width:1.0;"/><text fill="#000000" font-family="sans-serif" font-size="13" lengthAdjust="spacing" textLength="58" x="1058.5" y="124.5669">(1) parse</text></g><!--MD5=[4888bc9847e07be4b34579bc47679f8c]
link macchiato to fidl--><g id="link_macchiato_fidl"><path d="M954.03,57.222 C1035.28,75.864 1187.77,113.337 1313.5,158.5 C1319.92,160.8079 1326.62,163.5098 1333.11,166.2959 " fill="none" id="macchiato-to-fidl" style="stroke:#181818;stroke-width:1.0;"/><polygon fill="#181818" points="1338.02,168.4378,1331.3708,161.1723,1333.4373,166.4382,1328.1714,168.5046,1338.02,168.4378" style="stroke:#181818;stroke-width:1.0;"/><text fill="#000000" font-family="sans-serif" font-size="13" lengthAdjust="spacing" textLength="58" x="1213.5" y="124.5669">(2) parse</text></g><!--MD5=[dec05833afe306858420bf4c6564ad74]
link macchiato to C_src--><g id="link_macchiato_C_src"><path d="M838.837,54.647 C773.221,66.58 663.029,87.79 569.5,111.5 C506.444,127.4853 435.378,149.5026 386.277,165.3593 " fill="none" id="macchiato-to-C_src" style="stroke:#181818;stroke-width:1.0;"/><polygon fill="#181818" points="381.297,166.9707,391.0912,168.0071,386.0544,165.4321,388.6294,160.3953,381.297,166.9707" style="stroke:#181818;stroke-width:1.0;"/><text fill="#000000" font-family="sans-serif" font-size="13" lengthAdjust="spacing" textLength="180" x="570.5" y="124.5669">(3) generate/merge sources</text></g><!--MD5=[bb121ebf566a35380c1160ee860aaf8e]
link macchiato to py_src--><g id="link_macchiato_py_src"><path d="M860.094,66.531 C815.918,93.264 741.963,138.0179 698.453,164.3481 " fill="none" id="macchiato-to-py_src" style="stroke:#181818;stroke-width:1.0;stroke-dasharray:7.0,7.0;"/><polygon fill="#181818" points="694.08,166.9943,703.8508,165.757,698.3578,164.4057,699.7091,158.9126,694.08,166.9943" style="stroke:#181818;stroke-width:1.0;"/><text fill="#000000" font-family="sans-serif" font-size="13" font-style="italic" lengthAdjust="spacing" textLength="53" x="781.5" y="124.5669">optional</text></g><!--MD5=[048c5798d15c4ef0e82cd32739b6bc5b]
link macchiato to js_src--><g id="link_macchiato_js_src"><path d="M896.5,66.531 C896.5,92.381 896.5,135.0821 896.5,161.681 " fill="none" id="macchiato-to-js_src" style="stroke:#181818;stroke-width:1.0;stroke-dasharray:7.0,7.0;"/><polygon fill="#181818" points="896.5,166.7763,900.5,157.7763,896.5,161.7763,892.5,157.7763,896.5,166.7763" style="stroke:#181818;stroke-width:1.0;"/><text fill="#000000" font-family="sans-serif" font-size="13" font-style="italic" lengthAdjust="spacing" textLength="53" x="897.5" y="124.5669">optional</text></g><!--MD5=[0209477704f0b271ae7d9db9d575a303]
link Developer to C_src--><g id="link_Developer_C_src"><path d="M155.618,81.779 C169.633,97.542 187.23,115.2733 205.5,128.5 C225.561,143.023 249.905,155.3911 271.41,164.8569 " fill="none" id="Developer-to-C_src" style="stroke:#181818;stroke-width:1.0;"/><polygon fill="#181818" points="276.238,166.9545,269.578,159.6989,271.6523,164.9617,266.3895,167.036,276.238,166.9545" style="stroke:#181818;stroke-width:1.0;"/><text fill="#000000" font-family="sans-serif" font-size="13" lengthAdjust="spacing" textLength="260" x="206.5" y="124.5669">(4) fill-in generated command templates</text></g><!--MD5=[b610c60dd3fd00e520b559a67431d6aa]
link OBC to C_src--><g id="link_OBC_C_src"><path d="M79.2072,186.5 C124.357,186.5 201.889,186.5 257.921,186.5 " fill="none" id="OBC-to-C_src" style="stroke:#181818;stroke-width:1.0;"/><polygon fill="#181818" points="262.934,186.5,253.934,182.5,257.934,186.5,253.934,190.5,262.934,186.5" style="stroke:#181818;stroke-width:1.0;"/><text fill="#000000" font-family="sans-serif" font-size="13" lengthAdjust="spacing" textLength="144" x="99" y="164.5669">(5) include in build and</text><text fill="#000000" font-family="sans-serif" font-size="13" lengthAdjust="spacing" textLength="147" x="97.5" y="179.6997">register to ESPS I stack</text></g><!--MD5=[695dc5c04d166684b6ace5f43c735fa2]
link Developer to OBC--><g id="link_Developer_OBC"><path d="M87.8106,63.301 C69.6434,74.564 49.6366,90.753 39.5,111.5 C33.3211,124.1465 32.9751,139.5085 34.6034,152.9511 " fill="none" id="Developer-to-OBC" style="stroke:#181818;stroke-width:1.0;"/><polygon fill="#181818" points="35.3472,158.1921,38.0429,148.7193,34.6446,153.2417,30.1223,149.8434,35.3472,158.1921" style="stroke:#181818;stroke-width:1.0;"/><text fill="#000000" font-family="sans-serif" font-size="13" lengthAdjust="spacing" textLength="124" x="40.5" y="124.5669">(6) build and enjoy!</text></g><!--MD5=[238f266fa071c7e2ec727afd1a95fe89]
@startuml
skinparam rectangle {
roundCorner<<Concept>> 45
}

Actor Developer
artifact C_src as "C source files"
artifact py_src as "Python API bindings"
artifact js_src as "JavaScript GUI API bindings"
file fdepl as "FDEPL (deployment schema) file"
file fidl as "FIDL files"
package OBC as "SDK"

[macchiato] - -> fdepl: (1) parse
[macchiato] - -> fidl: (2) parse
[macchiato] - -> C_src: (3) generate/merge sources
[macchiato] ..> py_src: <i>optional</i>
[macchiato] ..> js_src: <i>optional</i>
Developer - -> C_src: (4) fill-in generated command templates
OBC -> C_src: (5) include in build and\nregister to ESPS I stack
Developer - -> OBC: (6) build and enjoy!
@enduml

PlantUML version 1.2022.13beta8(Unknown compile time)
(GPL source distribution)
Java Runtime: Java(TM) SE Runtime Environment
JVM: Java HotSpot(TM) 64-Bit Server VM
Default Encoding: UTF-8
Language: en
Country: US
--></g></svg>