<?xml version="1.0" encoding="UTF-8" standalone="no"?><svg xmlns="http://www.w3.org/2000/svg" xmlns:xlink="http://www.w3.org/1999/xlink" contentStyleType="text/css" height="542px" preserveAspectRatio="none" style="width:247px;height:542px;background:#FFFFFF;" version="1.1" viewBox="0 0 247 542" width="247px" zoomAndPan="magnify"><defs><filter height="1" id="b1ajl77fsbdtak0" width="1" x="0" y="0"><feFlood flood-color="#006400" result="flood"/><feComposite in="SourceGraphic" in2="flood" operator="over"/></filter><filter height="1" id="b1ajl77fsbdtak1" width="1" x="0" y="0"><feFlood flood-color="#FFA500" result="flood"/><feComposite in="SourceGraphic" in2="flood" operator="over"/></filter><filter height="1" id="b1ajl77fsbdtak2" width="1" x="0" y="0"><feFlood flood-color="#FF0000" result="flood"/><feComposite in="SourceGraphic" in2="flood" operator="over"/></filter></defs><g><!--MD5=[e5b7da8fa23ec8cac7d321a34f6e9ee1]
entity Application--><g id="elem_Application"><path d="M33.1704,6 L129.1704,6 A3.75,3.75 0 0 1 131.6704,8.5 L138.6704,28.2969 L153.1704,28.2969 A2.5,2.5 0 0 1 155.6704,30.7969 L155.6704,42.7969 A2.5,2.5 0 0 1 153.1704,45.2969 L33.1704,45.2969 A2.5,2.5 0 0 1 30.6704,42.7969 L30.6704,8.5 A2.5,2.5 0 0 1 33.1704,6 " fill="#F1F1F1" style="stroke:#181818;stroke-width:0.5;"/><line style="stroke:#181818;stroke-width:0.5;" x1="30.6704" x2="138.6704" y1="28.2969" y2="28.2969"/><text fill="#000000" font-family="sans-serif" font-size="14" lengthAdjust="spacing" textLength="83" x="40.6704" y="21.9951">Application</text></g><!--MD5=[3aec1cb46682c99da819179fa6c28e94]
entity Middlewares--><g id="elem_Middlewares"><path d="M30.6704,105 L131.6704,105 A3.75,3.75 0 0 1 134.1704,107.5 L141.1704,127.2969 L155.6704,127.2969 A2.5,2.5 0 0 1 158.1704,129.7969 L158.1704,141.7969 A2.5,2.5 0 0 1 155.6704,144.2969 L30.6704,144.2969 A2.5,2.5 0 0 1 28.1704,141.7969 L28.1704,107.5 A2.5,2.5 0 0 1 30.6704,105 " fill="#F1F1F1" style="stroke:#181818;stroke-width:0.5;"/><line style="stroke:#181818;stroke-width:0.5;" x1="28.1704" x2="141.1704" y1="127.2969" y2="127.2969"/><text fill="#000000" font-family="sans-serif" font-size="14" lengthAdjust="spacing" textLength="88" x="38.1704" y="120.9951">Middlewares</text></g><!--MD5=[747dc2ab2b798890433dfa93782dc32c]
entity Drivers--><g id="elem_Drivers"><path d="M68.1704,303 L132.1704,303 A3.75,3.75 0 0 1 134.6704,305.5 L141.6704,325.2969 L156.1704,325.2969 A2.5,2.5 0 0 1 158.6704,327.7969 L158.6704,339.7969 A2.5,2.5 0 0 1 156.1704,342.2969 L68.1704,342.2969 A2.5,2.5 0 0 1 65.6704,339.7969 L65.6704,305.5 A2.5,2.5 0 0 1 68.1704,303 " fill="#F1F1F1" style="stroke:#181818;stroke-width:0.5;"/><line style="stroke:#181818;stroke-width:0.5;" x1="65.6704" x2="141.6704" y1="325.2969" y2="325.2969"/><text fill="#000000" font-family="sans-serif" font-size="14" lengthAdjust="spacing" textLength="51" x="75.6704" y="318.9951">Drivers</text></g><!--MD5=[0be1888afdf25964064a1eeaedb2f5ed]
entity PlatformHAL--><g id="elem_PlatformHAL"><path d="M48.1704,402 L152.1704,402 A3.75,3.75 0 0 1 154.6704,404.5 L161.6704,424.2969 L176.1704,424.2969 A2.5,2.5 0 0 1 178.6704,426.7969 L178.6704,438.7969 A2.5,2.5 0 0 1 176.1704,441.2969 L48.1704,441.2969 A2.5,2.5 0 0 1 45.6704,438.7969 L45.6704,404.5 A2.5,2.5 0 0 1 48.1704,402 " fill="#F1F1F1" style="stroke:#181818;stroke-width:0.5;"/><line style="stroke:#181818;stroke-width:0.5;" x1="45.6704" x2="161.6704" y1="424.2969" y2="424.2969"/><text fill="#000000" font-family="sans-serif" font-size="14" lengthAdjust="spacing" textLength="91" x="55.6704" y="417.9951">PlatformHAL</text></g><!--MD5=[7d9febfcf24494fb6780c0c5f1be18db]
entity HAL--><g id="elem_HAL"><path d="M172.6708,204 L213.6708,204 A3.75,3.75 0 0 1 216.1708,206.5 L223.1708,226.2969 L237.6708,226.2969 A2.5,2.5 0 0 1 240.1708,228.7969 L240.1708,240.7969 A2.5,2.5 0 0 1 237.6708,243.2969 L172.6708,243.2969 A2.5,2.5 0 0 1 170.1708,240.7969 L170.1708,206.5 A2.5,2.5 0 0 1 172.6708,204 " fill="#F1F1F1" style="stroke:#181818;stroke-width:0.5;"/><line style="stroke:#181818;stroke-width:0.5;" x1="170.1708" x2="223.1708" y1="226.2969" y2="226.2969"/><text fill="#000000" font-family="sans-serif" font-size="14" lengthAdjust="spacing" textLength="28" x="180.1708" y="219.9951">HAL</text></g><!--MD5=[cff1c92bb96cb0cb4ef5be51443e5664]
link Application to Middlewares--><g id="link_Application_Middlewares"><path d="M82.8608,45.203 C79.9086,60.769 79.6349,83.021 82.0395,99.827 " fill="none" id="Application-to-Middlewares" style="stroke:#006400;stroke-width:1.0;"/><polygon fill="#006400" points="82.8717,104.855,85.3471,95.3223,82.0546,99.9222,77.4546,96.6297,82.8717,104.855" style="stroke:#006400;stroke-width:1.0;"/></g><!--MD5=[4b70861982948692ab3da328f25c31ac]
link Middlewares to Application--><g id="link_Middlewares_Application"><path d="M104.0748,104.855 C107.2076,89.305 107.5045,67.054 104.9654,50.235 " fill="none" id="Middlewares-to-Application" style="stroke:#FFA500;stroke-width:1.0;stroke-dasharray:7.0,7.0;"/><polygon fill="#FFA500" points="104.0864,45.203,101.6941,54.7569,104.9464,50.1285,109.5748,53.3808,104.0864,45.203" style="stroke:#FFA500;stroke-width:1.0;"/></g><!--MD5=[1abc7cd47fc7b934c483c9c806531215]
link Middlewares to PlatformHAL--><g id="link_Middlewares_PlatformHAL"><path d="M73.1723,144.213 C45.5172,182.319 6,271.294 31.1704,342 C38.9444,363.838 55.6832,384.0013 72.4139,398.4238 " fill="none" id="Middlewares-to-PlatformHAL" style="stroke:#006400;stroke-width:1.0;"/><polygon fill="#006400" points="76.6618,401.9643,72.3093,393.1294,72.821,398.763,67.1873,399.2747,76.6618,401.9643" style="stroke:#006400;stroke-width:1.0;"/></g><!--MD5=[4416936d02d18ec236df59f47b27f3fb]
link PlatformHAL to Middlewares--><g id="link_PlatformHAL_Middlewares"><path d="M105.5614,401.9643 C93.5847,387.4068 74.6032,365.6887 66.1704,342 C42.0816,274.332 77.2406,189.931 90.8841,149.401 " fill="none" id="PlatformHAL-to-Middlewares" style="stroke:#FFA500;stroke-width:1.0;stroke-dasharray:7.0,7.0;"/><polygon fill="#FFA500" points="92.5844,144.213,85.9804,151.5197,91.0272,148.9643,93.5826,154.0111,92.5844,144.213" style="stroke:#FFA500;stroke-width:1.0;"/></g><!--MD5=[e11eaa25bfb9d54d30d8232143d49cdb]
link Middlewares to Drivers--><g id="link_Middlewares_Drivers"><path d="M87.0989,144.293 C84.374,180.147 91.6816,258.248 101.1789,297.692 " fill="none" id="Middlewares-to-Drivers" style="stroke:#006400;stroke-width:1.0;"/><polygon fill="#006400" points="102.4707,302.764,104.1252,293.0551,101.2364,297.9187,96.3728,295.03,102.4707,302.764" style="stroke:#006400;stroke-width:1.0;"/></g><!--MD5=[dce3e88c1a003d659f2b4aa7d2b720b6]
link Drivers to Middlewares--><g id="link_Drivers_Middlewares"><path d="M118.7012,302.764 C121.8019,266.954 114.5166,188.855 104.6882,149.371 " fill="none" id="Drivers-to-Middlewares" style="stroke:#FFA500;stroke-width:1.0;stroke-dasharray:7.0,7.0;"/><polygon fill="#FFA500" points="103.3497,144.293,101.7755,154.0152,104.624,149.1279,109.5113,151.9764,103.3497,144.293" style="stroke:#FFA500;stroke-width:1.0;"/></g><!--MD5=[6da28232b6493d72fbbaa88a66fa3234]
link Drivers to HAL--><g id="link_Drivers_HAL"><path d="M140.9508,302.855 C159.3038,287.037 181.3698,264.285 194.9048,247.37 " fill="none" id="Drivers-to-HAL" style="stroke:#006400;stroke-width:1.0;"/><polygon fill="#006400" points="198.1548,243.203,189.4663,247.841,195.0804,247.1461,195.7752,252.7601,198.1548,243.203" style="stroke:#006400;stroke-width:1.0;"/></g><!--MD5=[05d0dcd3aaa58ad01ea9393575b0acb9]
link HAL to Drivers--><g id="link_HAL_Drivers"><path d="M176.9298,243.203 C158.7448,259.037 136.6988,281.79 123.0338,298.692 " fill="none" id="HAL-to-Drivers" style="stroke:#FFA500;stroke-width:1.0;stroke-dasharray:7.0,7.0;"/><polygon fill="#FFA500" points="119.748,302.855,128.4631,298.2674,122.8452,298.9298,122.1828,293.3118,119.748,302.855" style="stroke:#FFA500;stroke-width:1.0;"/></g><!--MD5=[f283be7b80cdc01a97c9d389dfa3ed1d]
link PlatformHAL to Drivers--><g id="link_PlatformHAL_Drivers"><path d="M123.0748,401.8548 C126.2078,386.3051 126.5048,364.0544 123.9658,347.2347 " fill="none" id="PlatformHAL-to-Drivers" style="stroke:#006400;stroke-width:1.0;"/><polygon fill="#006400" points="123.0868,342.2026,120.6955,351.7567,123.9474,347.128,128.5761,350.3798,123.0868,342.2026" style="stroke:#006400;stroke-width:1.0;"/></g><!--MD5=[4bfcd552db12103c9416f04e29d79418]
link Drivers to PlatformHAL--><g id="link_Drivers_PlatformHAL"><path d="M101.8608,342.2026 C98.9086,357.7688 98.6349,380.021 101.0395,396.8274 " fill="none" id="Drivers-to-PlatformHAL" style="stroke:#FFA500;stroke-width:1.0;stroke-dasharray:7.0,7.0;"/><polygon fill="#FFA500" points="101.8717,401.8548,104.3479,392.3223,101.055,396.922,96.4553,393.629,101.8717,401.8548" style="stroke:#FFA500;stroke-width:1.0;"/></g><!--MD5=[58e95dd98106d2dc604ab8bc3fee89f0]
link Application to HAL--><g id="link_Application_HAL"><path d="M119.4618,45.264 C137.7038,59.628 161.1568,81.004 175.1708,105 C192.4188,134.533 199.8568,173.898 202.9898,198.725 " fill="none" id="Application-to-HAL" style="stroke:#FF0000;stroke-width:1.0;"/><polygon fill="#FF0000" points="203.5948,203.793,206.4997,194.3823,203.0021,198.8283,198.5561,195.3307,203.5948,203.793" style="stroke:#FF0000;stroke-width:1.0;"/></g><!--MD5=[d45becc89334c7217dcd0f09305d6508]
link Middlewares to HAL--><g id="link_Middlewares_HAL"><path d="M114.7651,144.203 C133.3578,160.306 160.2128,183.564 179.8218,200.546 " fill="none" id="Middlewares-to-HAL" style="stroke:#FF0000;stroke-width:1.0;"/><polygon fill="#FF0000" points="183.6418,203.855,179.4578,194.9391,179.8624,200.5814,174.22,200.9861,183.6418,203.855" style="stroke:#FF0000;stroke-width:1.0;"/></g><!--MD5=[d87dd06b5fa70a336f9c65ea7e96a2f3]
link PlatformHAL to HAL--><g id="link_PlatformHAL_HAL"><path d="M131.4108,401.8898 C145.7628,386.9667 164.7828,364.8124 176.1708,342 C191.3268,311.637 198.9018,272.816 202.4288,248.296 " fill="none" id="PlatformHAL-to-HAL" style="stroke:#FF0000;stroke-width:1.0;"/><polygon fill="#FF0000" points="203.1218,243.289,197.9277,251.6569,202.4375,248.242,205.8524,252.7518,203.1218,243.289" style="stroke:#FF0000;stroke-width:1.0;"/></g><rect fill="#DDDDDD" height="62.8906" id="_legend" rx="7.5" ry="7.5" style="stroke:#000000;stroke-width:1.0;" width="208" x="12.5854" y="459.2969"/><text fill="#000000" filter="url(#b1ajl77fsbdtak0)" font-family="sans-serif" font-size="14" lengthAdjust="spacing" textLength="12" x="17.5854" y="479.292">   </text><text fill="#000000" font-family="sans-serif" font-size="14" lengthAdjust="spacing" textLength="138" x="33.5854" y="479.292">Direct calls allowed</text><text fill="#000000" filter="url(#b1ajl77fsbdtak1)" font-family="sans-serif" font-size="14" lengthAdjust="spacing" textLength="12" x="17.5854" y="495.5889">   </text><text fill="#000000" font-family="sans-serif" font-size="14" lengthAdjust="spacing" textLength="102" x="33.5854" y="495.5889">Only callbacks</text><text fill="#000000" filter="url(#b1ajl77fsbdtak2)" font-family="sans-serif" font-size="14" lengthAdjust="spacing" textLength="12" x="17.5854" y="511.8857">   </text><text fill="#000000" font-family="sans-serif" font-size="14" lengthAdjust="spacing" textLength="178" x="33.5854" y="511.8857">Dependency not allowed</text><line style="stroke:#000000;stroke-width:1.0;" x1="17.5854" x2="215.5854" y1="466.2969" y2="466.2969"/><line style="stroke:#000000;stroke-width:1.0;" x1="17.5854" x2="215.5854" y1="482.5938" y2="482.5938"/><line style="stroke:#000000;stroke-width:1.0;" x1="17.5854" x2="215.5854" y1="498.8906" y2="498.8906"/><line style="stroke:#000000;stroke-width:1.0;" x1="17.5854" x2="215.5854" y1="515.1875" y2="515.1875"/><line style="stroke:#000000;stroke-width:1.0;" x1="17.5854" x2="17.5854" y1="466.2969" y2="515.1875"/><line style="stroke:#000000;stroke-width:1.0;" x1="29.5854" x2="29.5854" y1="466.2969" y2="515.1875"/><line style="stroke:#000000;stroke-width:1.0;" x1="215.5854" x2="215.5854" y1="466.2969" y2="515.1875"/><!--MD5=[174b2c172981ce40252c0543b8f8fc89]
@startuml
package Application
package Middlewares
package Drivers
package PlatformHAL
package HAL

legend
|<back:darkgreen>   </back>| Direct calls allowed |
|<back:orange>   </back>| Only callbacks |
|<back:red>   </back>| Dependency not allowed |
endlegend

Application -[#darkgreen]-> Middlewares
Middlewares -[#darkgreen]-> PlatformHAL
Middlewares -[#darkgreen]-> Drivers
Drivers -[#darkgreen]-> HAL
HAL .[#orange].> Drivers
PlatformHAL .[#orange].> Middlewares
PlatformHAL -[#darkgreen]-> Drivers
Drivers .[#orange].> Middlewares
Drivers .[#orange].> PlatformHAL
Middlewares .[#orange].> Application

Application -[#red]-> HAL
Middlewares -[#red]-> HAL
PlatformHAL -[#red]-> HAL
@enduml

PlantUML version 1.2022.13beta8(Unknown compile time)
(GPL source distribution)
Java Runtime: Java(TM) SE Runtime Environment
JVM: Java HotSpot(TM) 64-Bit Server VM
Default Encoding: UTF-8
Language: en
Country: US
--></g></svg>