<?xml version="1.0" encoding="us-ascii" standalone="no"?><svg xmlns="http://www.w3.org/2000/svg" xmlns:xlink="http://www.w3.org/1999/xlink" contentStyleType="text/css" height="1914px" preserveAspectRatio="none" style="width:2738px;height:1914px;background:#FFFFFF;" version="1.1" viewBox="0 0 2738 1914" width="2738px" zoomAndPan="magnify"><defs/><g><rect fill="none" height="116.2031" style="stroke:#000000;stroke-width:1.5;" width="319" x="451.5" y="390.7578"/><rect fill="none" height="81.3984" style="stroke:#000000;stroke-width:1.5;" width="384" x="451.5" y="520.9609"/><rect fill="none" height="423.8594" style="stroke:#000000;stroke-width:1.5;" width="1386.5" x="441.5" y="809.1563"/><rect fill="none" height="46.2656" style="stroke:#000000;stroke-width:1.5;" width="1064.5" x="451.5" y="928.6875"/><rect fill="none" height="46.2656" style="stroke:#000000;stroke-width:1.5;" width="1176.5" x="451.5" y="988.9531"/><rect fill="none" height="81.3984" style="stroke:#000000;stroke-width:1.5;" width="1273.5" x="451.5" y="1049.2188"/><rect fill="none" height="81.3984" style="stroke:#000000;stroke-width:1.5;" width="1366.5" x="451.5" y="1144.6172"/><rect fill="none" height="81.3984" style="stroke:#000000;stroke-width:1.5;" width="1948.5" x="451.5" y="1515.2109"/><rect fill="none" height="46.2656" style="stroke:#000000;stroke-width:1.5;" width="2280.5" x="451.5" y="1668.875"/><rect fill="none" height="46.2656" style="stroke:#000000;stroke-width:1.5;" width="2205.5" x="451.5" y="1729.1406"/><rect fill="none" height="44.1328" style="stroke:#000000;stroke-width:1.5;" width="159" x="451.5" y="1818.5391"/><line style="stroke:#181818;stroke-width:0.5;stroke-dasharray:5.0,5.0;" x1="27" x2="27" y1="36.2969" y2="1879.6719"/><line style="stroke:#181818;stroke-width:0.5;stroke-dasharray:5.0,5.0;" x1="198.5" x2="198.5" y1="36.2969" y2="1879.6719"/><line style="stroke:#181818;stroke-width:0.5;stroke-dasharray:5.0,5.0;" x1="370.5" x2="370.5" y1="36.2969" y2="1879.6719"/><line style="stroke:#181818;stroke-width:0.5;stroke-dasharray:5.0,5.0;" x1="492.5" x2="492.5" y1="36.2969" y2="1879.6719"/><line style="stroke:#181818;stroke-width:0.5;stroke-dasharray:5.0,5.0;" x1="765" x2="765" y1="36.2969" y2="1879.6719"/><line style="stroke:#181818;stroke-width:0.5;stroke-dasharray:5.0,5.0;" x1="862" x2="862" y1="36.2969" y2="1879.6719"/><line style="stroke:#181818;stroke-width:0.5;stroke-dasharray:5.0,5.0;" x1="979" x2="979" y1="36.2969" y2="1879.6719"/><line style="stroke:#181818;stroke-width:0.5;stroke-dasharray:5.0,5.0;" x1="1119" x2="1119" y1="36.2969" y2="1879.6719"/><line style="stroke:#181818;stroke-width:0.5;stroke-dasharray:5.0,5.0;" x1="1242" x2="1242" y1="36.2969" y2="1879.6719"/><line style="stroke:#181818;stroke-width:0.5;stroke-dasharray:5.0,5.0;" x1="1335" x2="1335" y1="36.2969" y2="1879.6719"/><line style="stroke:#181818;stroke-width:0.5;stroke-dasharray:5.0,5.0;" x1="1444" x2="1444" y1="36.2969" y2="1879.6719"/><line style="stroke:#181818;stroke-width:0.5;stroke-dasharray:5.0,5.0;" x1="1567" x2="1567" y1="36.2969" y2="1879.6719"/><line style="stroke:#181818;stroke-width:0.5;stroke-dasharray:5.0,5.0;" x1="1671" x2="1671" y1="36.2969" y2="1879.6719"/><line style="stroke:#181818;stroke-width:0.5;stroke-dasharray:5.0,5.0;" x1="1766" x2="1766" y1="36.2969" y2="1879.6719"/><line style="stroke:#181818;stroke-width:0.5;stroke-dasharray:5.0,5.0;" x1="1861" x2="1861" y1="36.2969" y2="1879.6719"/><line style="stroke:#181818;stroke-width:0.5;stroke-dasharray:5.0,5.0;" x1="1955" x2="1955" y1="36.2969" y2="1879.6719"/><line style="stroke:#181818;stroke-width:0.5;stroke-dasharray:5.0,5.0;" x1="2055" x2="2055" y1="36.2969" y2="1879.6719"/><line style="stroke:#181818;stroke-width:0.5;stroke-dasharray:5.0,5.0;" x1="2162" x2="2162" y1="36.2969" y2="1879.6719"/><line style="stroke:#181818;stroke-width:0.5;stroke-dasharray:5.0,5.0;" x1="2305" x2="2305" y1="36.2969" y2="1879.6719"/><line style="stroke:#181818;stroke-width:0.5;stroke-dasharray:5.0,5.0;" x1="2446" x2="2446" y1="36.2969" y2="1879.6719"/><line style="stroke:#181818;stroke-width:0.5;stroke-dasharray:5.0,5.0;" x1="2543" x2="2543" y1="36.2969" y2="1879.6719"/><line style="stroke:#181818;stroke-width:0.5;stroke-dasharray:5.0,5.0;" x1="2620" x2="2620" y1="36.2969" y2="1879.6719"/><line style="stroke:#181818;stroke-width:0.5;stroke-dasharray:5.0,5.0;" x1="2689" x2="2689" y1="36.2969" y2="1879.6719"/><rect fill="#E2E2F0" height="30.2969" rx="2.5" ry="2.5" style="stroke:#181818;stroke-width:0.5;" width="45" x="5" y="5"/><text fill="#000000" font-family="sans-serif" font-size="14" lengthAdjust="spacing" textLength="31" x="12" y="24.9951">MCU</text><rect fill="#E2E2F0" height="30.2969" rx="2.5" ry="2.5" style="stroke:#181818;stroke-width:0.5;" width="45" x="5" y="1878.6719"/><text fill="#000000" font-family="sans-serif" font-size="14" lengthAdjust="spacing" textLength="31" x="12" y="1898.667">MCU</text><rect fill="#E2E2F0" height="30.2969" rx="2.5" ry="2.5" style="stroke:#181818;stroke-width:0.5;" width="162" x="117.5" y="5"/><text fill="#000000" font-family="sans-serif" font-size="14" lengthAdjust="spacing" textLength="148" x="124.5" y="24.9951">startup_stm32f7xx.s</text><rect fill="#E2E2F0" height="30.2969" rx="2.5" ry="2.5" style="stroke:#181818;stroke-width:0.5;" width="162" x="117.5" y="1878.6719"/><text fill="#000000" font-family="sans-serif" font-size="14" lengthAdjust="spacing" textLength="148" x="124.5" y="1898.667">startup_stm32f7xx.s</text><rect fill="#E2E2F0" height="30.2969" rx="2.5" ry="2.5" style="stroke:#181818;stroke-width:0.5;" width="162" x="289.5" y="5"/><text fill="#000000" font-family="sans-serif" font-size="14" lengthAdjust="spacing" textLength="148" x="296.5" y="24.9951">system_stm32f7xx.c</text><rect fill="#E2E2F0" height="30.2969" rx="2.5" ry="2.5" style="stroke:#181818;stroke-width:0.5;" width="162" x="289.5" y="1878.6719"/><text fill="#000000" font-family="sans-serif" font-size="14" lengthAdjust="spacing" textLength="148" x="296.5" y="1898.667">system_stm32f7xx.c</text><rect fill="#E2E2F0" height="30.2969" rx="2.5" ry="2.5" style="stroke:#181818;stroke-width:0.5;" width="62" x="461.5" y="5"/><text fill="#000000" font-family="sans-serif" font-size="14" lengthAdjust="spacing" textLength="48" x="468.5" y="24.9951">main.c</text><rect fill="#E2E2F0" height="30.2969" rx="2.5" ry="2.5" style="stroke:#181818;stroke-width:0.5;" width="62" x="461.5" y="1878.6719"/><text fill="#000000" font-family="sans-serif" font-size="14" lengthAdjust="spacing" textLength="48" x="468.5" y="1898.667">main.c</text><rect fill="#E2E2F0" height="30.2969" rx="2.5" ry="2.5" style="stroke:#181818;stroke-width:0.5;" width="89" x="721" y="5"/><text fill="#000000" font-family="sans-serif" font-size="14" lengthAdjust="spacing" textLength="75" x="728" y="24.9951">MCU_Init.c</text><rect fill="#E2E2F0" height="30.2969" rx="2.5" ry="2.5" style="stroke:#181818;stroke-width:0.5;" width="89" x="721" y="1878.6719"/><text fill="#000000" font-family="sans-serif" font-size="14" lengthAdjust="spacing" textLength="75" x="728" y="1898.667">MCU_Init.c</text><rect fill="#E2E2F0" height="30.2969" rx="2.5" ry="2.5" style="stroke:#181818;stroke-width:0.5;" width="85" x="820" y="5"/><text fill="#000000" font-family="sans-serif" font-size="14" lengthAdjust="spacing" textLength="71" x="827" y="24.9951">es_exeh.c</text><rect fill="#E2E2F0" height="30.2969" rx="2.5" ry="2.5" style="stroke:#181818;stroke-width:0.5;" width="85" x="820" y="1878.6719"/><text fill="#000000" font-family="sans-serif" font-size="14" lengthAdjust="spacing" textLength="71" x="827" y="1898.667">es_exeh.c</text><rect fill="#E2E2F0" height="30.2969" rx="2.5" ry="2.5" style="stroke:#181818;stroke-width:0.5;" width="129" x="915" y="5"/><text fill="#000000" font-family="sans-serif" font-size="14" lengthAdjust="spacing" textLength="115" x="922" y="24.9951">EEPROM_emul.c</text><rect fill="#E2E2F0" height="30.2969" rx="2.5" ry="2.5" style="stroke:#181818;stroke-width:0.5;" width="129" x="915" y="1878.6719"/><text fill="#000000" font-family="sans-serif" font-size="14" lengthAdjust="spacing" textLength="115" x="922" y="1898.667">EEPROM_emul.c</text><rect fill="#E2E2F0" height="30.2969" rx="2.5" ry="2.5" style="stroke:#181818;stroke-width:0.5;" width="131" x="1054" y="5"/><text fill="#000000" font-family="sans-serif" font-size="14" lengthAdjust="spacing" textLength="117" x="1061" y="24.9951">stm32f7xx_hal.c</text><rect fill="#E2E2F0" height="30.2969" rx="2.5" ry="2.5" style="stroke:#181818;stroke-width:0.5;" width="131" x="1054" y="1878.6719"/><text fill="#000000" font-family="sans-serif" font-size="14" lengthAdjust="spacing" textLength="117" x="1061" y="1898.667">stm32f7xx_hal.c</text><rect fill="#E2E2F0" height="30.2969" rx="2.5" ry="2.5" style="stroke:#181818;stroke-width:0.5;" width="94" x="1195" y="5"/><text fill="#000000" font-family="sans-serif" font-size="14" lengthAdjust="spacing" textLength="80" x="1202" y="24.9951">OpModes.c</text><rect fill="#E2E2F0" height="30.2969" rx="2.5" ry="2.5" style="stroke:#181818;stroke-width:0.5;" width="94" x="1195" y="1878.6719"/><text fill="#000000" font-family="sans-serif" font-size="14" lengthAdjust="spacing" textLength="80" x="1202" y="1898.667">OpModes.c</text><rect fill="#E2E2F0" height="30.2969" rx="2.5" ry="2.5" style="stroke:#181818;stroke-width:0.5;" width="73" x="1299" y="5"/><text fill="#000000" font-family="sans-serif" font-size="14" lengthAdjust="spacing" textLength="59" x="1306" y="24.9951">ESTTC.c</text><rect fill="#E2E2F0" height="30.2969" rx="2.5" ry="2.5" style="stroke:#181818;stroke-width:0.5;" width="73" x="1299" y="1878.6719"/><text fill="#000000" font-family="sans-serif" font-size="14" lengthAdjust="spacing" textLength="59" x="1306" y="1898.667">ESTTC.c</text><rect fill="#E2E2F0" height="30.2969" rx="2.5" ry="2.5" style="stroke:#181818;stroke-width:0.5;" width="124" x="1382" y="5"/><text fill="#000000" font-family="sans-serif" font-size="14" lengthAdjust="spacing" textLength="110" x="1389" y="24.9951">UhfKeepAlive.c</text><rect fill="#E2E2F0" height="30.2969" rx="2.5" ry="2.5" style="stroke:#181818;stroke-width:0.5;" width="124" x="1382" y="1878.6719"/><text fill="#000000" font-family="sans-serif" font-size="14" lengthAdjust="spacing" textLength="110" x="1389" y="1898.667">UhfKeepAlive.c</text><rect fill="#E2E2F0" height="30.2969" rx="2.5" ry="2.5" style="stroke:#181818;stroke-width:0.5;" width="102" x="1516" y="5"/><text fill="#000000" font-family="sans-serif" font-size="14" lengthAdjust="spacing" textLength="88" x="1523" y="24.9951">Telemetry.c</text><rect fill="#E2E2F0" height="30.2969" rx="2.5" ry="2.5" style="stroke:#181818;stroke-width:0.5;" width="102" x="1516" y="1878.6719"/><text fill="#000000" font-family="sans-serif" font-size="14" lengthAdjust="spacing" textLength="88" x="1523" y="1898.667">Telemetry.c</text><rect fill="#E2E2F0" height="30.2969" rx="2.5" ry="2.5" style="stroke:#181818;stroke-width:0.5;" width="87" x="1628" y="5"/><text fill="#000000" font-family="sans-serif" font-size="14" lengthAdjust="spacing" textLength="73" x="1635" y="24.9951">Beacons.c</text><rect fill="#E2E2F0" height="30.2969" rx="2.5" ry="2.5" style="stroke:#181818;stroke-width:0.5;" width="87" x="1628" y="1878.6719"/><text fill="#000000" font-family="sans-serif" font-size="14" lengthAdjust="spacing" textLength="73" x="1635" y="1898.667">Beacons.c</text><rect fill="#E2E2F0" height="30.2969" rx="2.5" ry="2.5" style="stroke:#181818;stroke-width:0.5;" width="83" x="1725" y="5"/><text fill="#000000" font-family="sans-serif" font-size="14" lengthAdjust="spacing" textLength="69" x="1732" y="24.9951">PwrMng.c</text><rect fill="#E2E2F0" height="30.2969" rx="2.5" ry="2.5" style="stroke:#181818;stroke-width:0.5;" width="83" x="1725" y="1878.6719"/><text fill="#000000" font-family="sans-serif" font-size="14" lengthAdjust="spacing" textLength="69" x="1732" y="1898.667">PwrMng.c</text><rect fill="#E2E2F0" height="30.2969" rx="2.5" ry="2.5" style="stroke:#181818;stroke-width:0.5;" width="87" x="1818" y="5"/><text fill="#000000" font-family="sans-serif" font-size="14" lengthAdjust="spacing" textLength="73" x="1825" y="24.9951">ExtFram.c</text><rect fill="#E2E2F0" height="30.2969" rx="2.5" ry="2.5" style="stroke:#181818;stroke-width:0.5;" width="87" x="1818" y="1878.6719"/><text fill="#000000" font-family="sans-serif" font-size="14" lengthAdjust="spacing" textLength="73" x="1825" y="1898.667">ExtFram.c</text><rect fill="#E2E2F0" height="30.2969" rx="2.5" ry="2.5" style="stroke:#181818;stroke-width:0.5;" width="81" x="1915" y="5"/><text fill="#000000" font-family="sans-serif" font-size="14" lengthAdjust="spacing" textLength="67" x="1922" y="24.9951">SdMngr.c</text><rect fill="#E2E2F0" height="30.2969" rx="2.5" ry="2.5" style="stroke:#181818;stroke-width:0.5;" width="81" x="1915" y="1878.6719"/><text fill="#000000" font-family="sans-serif" font-size="14" lengthAdjust="spacing" textLength="67" x="1922" y="1898.667">SdMngr.c</text><rect fill="#E2E2F0" height="30.2969" rx="2.5" ry="2.5" style="stroke:#181818;stroke-width:0.5;" width="98" x="2006" y="5"/><text fill="#000000" font-family="sans-serif" font-size="14" lengthAdjust="spacing" textLength="84" x="2013" y="24.9951">cmsis_os2.c</text><rect fill="#E2E2F0" height="30.2969" rx="2.5" ry="2.5" style="stroke:#181818;stroke-width:0.5;" width="98" x="2006" y="1878.6719"/><text fill="#000000" font-family="sans-serif" font-size="14" lengthAdjust="spacing" textLength="84" x="2013" y="1898.667">cmsis_os2.c</text><rect fill="#E2E2F0" height="30.2969" rx="2.5" ry="2.5" style="stroke:#181818;stroke-width:0.5;" width="97" x="2114" y="5"/><text fill="#000000" font-family="sans-serif" font-size="14" lengthAdjust="spacing" textLength="83" x="2121" y="24.9951">AppTasks.c</text><rect fill="#E2E2F0" height="30.2969" rx="2.5" ry="2.5" style="stroke:#181818;stroke-width:0.5;" width="97" x="2114" y="1878.6719"/><text fill="#000000" font-family="sans-serif" font-size="14" lengthAdjust="spacing" textLength="83" x="2121" y="1898.667">AppTasks.c</text><rect fill="#E2E2F0" height="30.2969" rx="2.5" ry="2.5" style="stroke:#181818;stroke-width:0.5;" width="169" x="2221" y="5"/><text fill="#000000" font-family="sans-serif" font-size="14" lengthAdjust="spacing" textLength="155" x="2228" y="24.9951">ESSA_Stack_Facade.c</text><rect fill="#E2E2F0" height="30.2969" rx="2.5" ry="2.5" style="stroke:#181818;stroke-width:0.5;" width="169" x="2221" y="1878.6719"/><text fill="#000000" font-family="sans-serif" font-size="14" lengthAdjust="spacing" textLength="155" x="2228" y="1898.667">ESSA_Stack_Facade.c</text><rect fill="#E2E2F0" height="30.2969" rx="2.5" ry="2.5" style="stroke:#181818;stroke-width:0.5;" width="93" x="2400" y="5"/><text fill="#000000" font-family="sans-serif" font-size="14" lengthAdjust="spacing" textLength="79" x="2407" y="24.9951">DefTasks.c</text><rect fill="#E2E2F0" height="30.2969" rx="2.5" ry="2.5" style="stroke:#181818;stroke-width:0.5;" width="93" x="2400" y="1878.6719"/><text fill="#000000" font-family="sans-serif" font-size="14" lengthAdjust="spacing" textLength="79" x="2407" y="1898.667">DefTasks.c</text><rect fill="#E2E2F0" height="30.2969" rx="2.5" ry="2.5" style="stroke:#181818;stroke-width:0.5;" width="80" x="2503" y="5"/><text fill="#000000" font-family="sans-serif" font-size="14" lengthAdjust="spacing" textLength="66" x="2510" y="24.9951">AntUHF.c</text><rect fill="#E2E2F0" height="30.2969" rx="2.5" ry="2.5" style="stroke:#181818;stroke-width:0.5;" width="80" x="2503" y="1878.6719"/><text fill="#000000" font-family="sans-serif" font-size="14" lengthAdjust="spacing" textLength="66" x="2510" y="1898.667">AntUHF.c</text><rect fill="#E2E2F0" height="30.2969" rx="2.5" ry="2.5" style="stroke:#181818;stroke-width:0.5;" width="54" x="2593" y="5"/><text fill="#000000" font-family="sans-serif" font-size="14" lengthAdjust="spacing" textLength="40" x="2600" y="24.9951">UHF.c</text><rect fill="#E2E2F0" height="30.2969" rx="2.5" ry="2.5" style="stroke:#181818;stroke-width:0.5;" width="54" x="2593" y="1878.6719"/><text fill="#000000" font-family="sans-serif" font-size="14" lengthAdjust="spacing" textLength="40" x="2600" y="1898.667">UHF.c</text><rect fill="#E2E2F0" height="30.2969" rx="2.5" ry="2.5" style="stroke:#181818;stroke-width:0.5;" width="65" x="2657" y="5"/><text fill="#000000" font-family="sans-serif" font-size="14" lengthAdjust="spacing" textLength="51" x="2664" y="24.9951">EPS_I.c</text><rect fill="#E2E2F0" height="30.2969" rx="2.5" ry="2.5" style="stroke:#181818;stroke-width:0.5;" width="65" x="2657" y="1878.6719"/><text fill="#000000" font-family="sans-serif" font-size="14" lengthAdjust="spacing" textLength="51" x="2664" y="1898.667">EPS_I.c</text><polygon fill="#181818" points="186.5,63.4297,196.5,67.4297,186.5,71.4297,190.5,67.4297" style="stroke:#181818;stroke-width:1.0;"/><line style="stroke:#181818;stroke-width:1.0;" x1="27.5" x2="192.5" y1="67.4297" y2="67.4297"/><text fill="#000000" font-family="sans-serif" font-size="13" lengthAdjust="spacing" textLength="147" x="34.5" y="62.3638">Power-on or MCU reset</text><line style="stroke:#181818;stroke-width:1.0;" x1="198.5" x2="240.5" y1="111.6953" y2="111.6953"/><line style="stroke:#181818;stroke-width:1.0;" x1="240.5" x2="240.5" y1="111.6953" y2="124.6953"/><line style="stroke:#181818;stroke-width:1.0;" x1="199.5" x2="240.5" y1="124.6953" y2="124.6953"/><polygon fill="#181818" points="209.5,120.6953,199.5,124.6953,209.5,128.6953,205.5,124.6953" style="stroke:#181818;stroke-width:1.0;"/><text fill="#000000" font-family="sans-serif" font-size="13" lengthAdjust="spacing" textLength="155" x="205.5" y="91.4966">system initialization and</text><text fill="#000000" font-family="sans-serif" font-size="13" lengthAdjust="spacing" textLength="96" x="205.5" y="106.6294">ISR table setup</text><polygon fill="#181818" points="358.5,149.8281,368.5,153.8281,358.5,157.8281,362.5,153.8281" style="stroke:#181818;stroke-width:1.0;"/><line style="stroke:#181818;stroke-width:1.0;" x1="198.5" x2="364.5" y1="153.8281" y2="153.8281"/><text fill="#000000" font-family="sans-serif" font-size="13" lengthAdjust="spacing" textLength="78" x="205.5" y="148.7622">SystemInit()</text><polygon fill="#181818" points="480.5,178.9609,490.5,182.9609,480.5,186.9609,484.5,182.9609" style="stroke:#181818;stroke-width:1.0;"/><line style="stroke:#181818;stroke-width:1.0;" x1="198.5" x2="486.5" y1="182.9609" y2="182.9609"/><text fill="#000000" font-family="sans-serif" font-size="13" lengthAdjust="spacing" textLength="42" x="205.5" y="177.895">main()</text><polygon fill="#181818" points="753.5,208.0938,763.5,212.0938,753.5,216.0938,757.5,212.0938" style="stroke:#181818;stroke-width:1.0;"/><line style="stroke:#181818;stroke-width:1.0;" x1="492.5" x2="759.5" y1="212.0938" y2="212.0938"/><text fill="#000000" font-family="sans-serif" font-size="13" lengthAdjust="spacing" textLength="168" x="499.5" y="207.0278">PVD_BrownoutReset_Init()</text><path d="M403,225.0938 L403,250.0938 L760,250.0938 L760,235.0938 L750,225.0938 L403,225.0938 " fill="#FEFFDD" style="stroke:#181818;stroke-width:0.5;"/><path d="M750,225.0938 L750,235.0938 L760,235.0938 L750,225.0938 " fill="#FEFFDD" style="stroke:#181818;stroke-width:0.5;"/><text fill="#000000" font-family="sans-serif" font-size="13" lengthAdjust="spacing" textLength="336" x="409" y="242.1606">setup brownout detector voltage levels for CPU core</text><polygon fill="#181818" points="850.5,272.3594,860.5,276.3594,850.5,280.3594,854.5,276.3594" style="stroke:#181818;stroke-width:1.0;"/><line style="stroke:#181818;stroke-width:1.0;" x1="492.5" x2="856.5" y1="276.3594" y2="276.3594"/><text fill="#000000" font-family="sans-serif" font-size="13" lengthAdjust="spacing" textLength="78" x="499.5" y="271.2935">EXEH_bInit()</text><path d="M604,289.3594 L604,314.3594 L857,314.3594 L857,299.3594 L847,289.3594 L604,289.3594 " fill="#FEFFDD" style="stroke:#181818;stroke-width:0.5;"/><path d="M847,289.3594 L847,299.3594 L857,299.3594 L847,289.3594 " fill="#FEFFDD" style="stroke:#181818;stroke-width:0.5;"/><text fill="#000000" font-family="sans-serif" font-size="13" lengthAdjust="spacing" textLength="232" x="610" y="306.4263">initialize the basic exception handler</text><polygon fill="#181818" points="967.5,336.625,977.5,340.625,967.5,344.625,971.5,340.625" style="stroke:#181818;stroke-width:1.0;"/><line style="stroke:#181818;stroke-width:1.0;" x1="492.5" x2="973.5" y1="340.625" y2="340.625"/><text fill="#000000" font-family="sans-serif" font-size="13" lengthAdjust="spacing" textLength="128" x="499.5" y="335.5591">EEPROM_Emul_Init()</text><path d="M715,353.625 L715,378.625 L974,378.625 L974,363.625 L964,353.625 L715,353.625 " fill="#FEFFDD" style="stroke:#181818;stroke-width:0.5;"/><path d="M964,353.625 L964,363.625 L974,363.625 L964,353.625 " fill="#FEFFDD" style="stroke:#181818;stroke-width:0.5;"/><text fill="#000000" font-family="sans-serif" font-size="13" lengthAdjust="spacing" textLength="238" x="721" y="370.6919">initialize the Flash EEPROM emulation</text><path d="M451.5,390.7578 L517.5,390.7578 L517.5,397.8906 L507.5,407.8906 L451.5,407.8906 L451.5,390.7578 " fill="#EEEEEE" style="stroke:#000000;stroke-width:1.5;"/><rect fill="none" height="116.2031" style="stroke:#000000;stroke-width:1.5;" width="319" x="451.5" y="390.7578"/><text fill="#000000" font-family="sans-serif" font-size="13" font-weight="bold" lengthAdjust="spacing" textLength="21" x="466.5" y="403.8247">alt</text><text fill="#000000" font-family="sans-serif" font-size="11" font-weight="bold" lengthAdjust="spacing" textLength="136" x="532.5" y="402.9683">["Application Mode"]</text><line style="stroke:#181818;stroke-width:1.0;" x1="492.5" x2="534.5" y1="429.0234" y2="429.0234"/><line style="stroke:#181818;stroke-width:1.0;" x1="534.5" x2="534.5" y1="429.0234" y2="442.0234"/><line style="stroke:#181818;stroke-width:1.0;" x1="493.5" x2="534.5" y1="442.0234" y2="442.0234"/><polygon fill="#181818" points="503.5,438.0234,493.5,442.0234,503.5,446.0234,499.5,442.0234" style="stroke:#181818;stroke-width:1.0;"/><text fill="#000000" font-family="sans-serif" font-size="13" lengthAdjust="spacing" textLength="259" x="499.5" y="423.9575">Set ISR table address to application area</text><line style="stroke:#000000;stroke-width:1.0;stroke-dasharray:2.0,2.0;" x1="451.5" x2="770.5" y1="451.0234" y2="451.0234"/><text fill="#000000" font-family="sans-serif" font-size="11" font-weight="bold" lengthAdjust="spacing" textLength="94" x="456.5" y="461.2339">["Boot Mode"]</text><line style="stroke:#181818;stroke-width:1.0;" x1="492.5" x2="534.5" y1="485.9609" y2="485.9609"/><line style="stroke:#181818;stroke-width:1.0;" x1="534.5" x2="534.5" y1="485.9609" y2="498.9609"/><line style="stroke:#181818;stroke-width:1.0;" x1="493.5" x2="534.5" y1="498.9609" y2="498.9609"/><polygon fill="#181818" points="503.5,494.9609,493.5,498.9609,503.5,502.9609,499.5,498.9609" style="stroke:#181818;stroke-width:1.0;"/><text fill="#000000" font-family="sans-serif" font-size="13" lengthAdjust="spacing" textLength="259" x="499.5" y="480.895">Set ISR table address to bootloader area</text><path d="M451.5,520.9609 L523.5,520.9609 L523.5,528.0938 L513.5,538.0938 L451.5,538.0938 L451.5,520.9609 " fill="#EEEEEE" style="stroke:#000000;stroke-width:1.5;"/><rect fill="none" height="81.3984" style="stroke:#000000;stroke-width:1.5;" width="384" x="451.5" y="520.9609"/><text fill="#000000" font-family="sans-serif" font-size="13" font-weight="bold" lengthAdjust="spacing" textLength="27" x="466.5" y="534.0278">opt</text><text fill="#000000" font-family="sans-serif" font-size="11" font-weight="bold" lengthAdjust="spacing" textLength="292" x="538.5" y="533.1714">["Watchdog enabled in build configuration"]</text><polygon fill="#181818" points="753.5,555.2266,763.5,559.2266,753.5,563.2266,757.5,559.2266" style="stroke:#181818;stroke-width:1.0;"/><line style="stroke:#181818;stroke-width:1.0;" x1="492.5" x2="759.5" y1="559.2266" y2="559.2266"/><text fill="#000000" font-family="sans-serif" font-size="13" lengthAdjust="spacing" textLength="98" x="499.5" y="554.1606">MX_IWDG_Init()</text><path d="M545,572.2266 L545,597.2266 L760,597.2266 L760,582.2266 L750,572.2266 L545,572.2266 " fill="#FEFFDD" style="stroke:#181818;stroke-width:0.5;"/><path d="M750,572.2266 L750,582.2266 L760,582.2266 L750,572.2266 " fill="#FEFFDD" style="stroke:#181818;stroke-width:0.5;"/><text fill="#000000" font-family="sans-serif" font-size="13" lengthAdjust="spacing" textLength="194" x="551" y="589.2935">enable Independent watchdog</text><polygon fill="#181818" points="1107.5,626.4922,1117.5,630.4922,1107.5,634.4922,1111.5,630.4922" style="stroke:#181818;stroke-width:1.0;"/><line style="stroke:#181818;stroke-width:1.0;" x1="492.5" x2="1113.5" y1="630.4922" y2="630.4922"/><text fill="#000000" font-family="sans-serif" font-size="13" lengthAdjust="spacing" textLength="61" x="499.5" y="625.4263">HAL_Init()</text><path d="M847,643.4922 L847,668.4922 L1114,668.4922 L1114,653.4922 L1104,643.4922 L847,643.4922 " fill="#FEFFDD" style="stroke:#181818;stroke-width:0.5;"/><path d="M1104,643.4922 L1104,653.4922 L1114,653.4922 L1104,643.4922 " fill="#FEFFDD" style="stroke:#181818;stroke-width:0.5;"/><text fill="#000000" font-family="sans-serif" font-size="13" lengthAdjust="spacing" textLength="246" x="853" y="660.5591">common ST low-level HAL initialization</text><polygon fill="#181818" points="753.5,690.7578,763.5,694.7578,753.5,698.7578,757.5,694.7578" style="stroke:#181818;stroke-width:1.0;"/><line style="stroke:#181818;stroke-width:1.0;" x1="492.5" x2="759.5" y1="694.7578" y2="694.7578"/><text fill="#000000" font-family="sans-serif" font-size="13" lengthAdjust="spacing" textLength="163" x="499.5" y="689.6919">SystemClock_IdleConfig()</text><path d="M413,707.7578 L413,732.7578 L760,732.7578 L760,717.7578 L750,707.7578 L413,707.7578 " fill="#FEFFDD" style="stroke:#181818;stroke-width:0.5;"/><path d="M750,707.7578 L750,717.7578 L760,717.7578 L750,707.7578 " fill="#FEFFDD" style="stroke:#181818;stroke-width:0.5;"/><text fill="#000000" font-family="sans-serif" font-size="13" lengthAdjust="spacing" textLength="326" x="419" y="724.8247">initialization of system clocks and peripheral clocks</text><polygon fill="#181818" points="753.5,755.0234,763.5,759.0234,753.5,763.0234,757.5,759.0234" style="stroke:#181818;stroke-width:1.0;"/><line style="stroke:#181818;stroke-width:1.0;" x1="492.5" x2="759.5" y1="759.0234" y2="759.0234"/><text fill="#000000" font-family="sans-serif" font-size="13" lengthAdjust="spacing" textLength="93" x="499.5" y="753.9575">MX_GPIO_Init()</text><path d="M459,772.0234 L459,797.0234 L760,797.0234 L760,782.0234 L750,772.0234 L459,772.0234 " fill="#FEFFDD" style="stroke:#181818;stroke-width:0.5;"/><path d="M750,772.0234 L750,782.0234 L760,782.0234 L750,772.0234 " fill="#FEFFDD" style="stroke:#181818;stroke-width:0.5;"/><text fill="#000000" font-family="sans-serif" font-size="13" lengthAdjust="spacing" textLength="280" x="465" y="789.0903">apply initial GPIO port configuration settings</text><path d="M441.5,809.1563 L513.5,809.1563 L513.5,816.2891 L503.5,826.2891 L441.5,826.2891 L441.5,809.1563 " fill="#EEEEEE" style="stroke:#000000;stroke-width:1.5;"/><rect fill="none" height="423.8594" style="stroke:#000000;stroke-width:1.5;" width="1386.5" x="441.5" y="809.1563"/><text fill="#000000" font-family="sans-serif" font-size="13" font-weight="bold" lengthAdjust="spacing" textLength="27" x="456.5" y="822.2231">opt</text><text fill="#000000" font-family="sans-serif" font-size="11" font-weight="bold" lengthAdjust="spacing" textLength="172" x="528.5" y="821.3667">[OPMODES_ENABLED == 0]</text><polygon fill="#181818" points="1323.5,843.4219,1333.5,847.4219,1323.5,851.4219,1327.5,847.4219" style="stroke:#181818;stroke-width:1.0;"/><line style="stroke:#181818;stroke-width:1.0;" x1="492.5" x2="1329.5" y1="847.4219" y2="847.4219"/><text fill="#000000" font-family="sans-serif" font-size="13" lengthAdjust="spacing" textLength="77" x="499.5" y="842.356">ESTTC_Init()</text><line style="stroke:#000000;stroke-width:1.0;stroke-dasharray:2.0,2.0;" x1="441.5" x2="1828" y1="856.4219" y2="856.4219"/><polygon fill="#181818" points="1230,874.5547,1240,878.5547,1230,882.5547,1234,878.5547" style="stroke:#181818;stroke-width:1.0;"/><line style="stroke:#181818;stroke-width:1.0;" x1="492.5" x2="1236" y1="878.5547" y2="878.5547"/><text fill="#000000" font-family="sans-serif" font-size="13" lengthAdjust="spacing" textLength="95" x="499.5" y="873.4888">OpModes_Init()</text><path d="M991,891.5547 L991,916.5547 L1237,916.5547 L1237,901.5547 L1227,891.5547 L991,891.5547 " fill="#FEFFDD" style="stroke:#181818;stroke-width:0.5;"/><path d="M1227,891.5547 L1227,901.5547 L1237,901.5547 L1227,891.5547 " fill="#FEFFDD" style="stroke:#181818;stroke-width:0.5;"/><text fill="#000000" font-family="sans-serif" font-size="13" lengthAdjust="spacing" textLength="225" x="997" y="908.6216">ConOps state machine initialization</text><path d="M451.5,928.6875 L523.5,928.6875 L523.5,935.8203 L513.5,945.8203 L451.5,945.8203 L451.5,928.6875 " fill="#EEEEEE" style="stroke:#000000;stroke-width:1.5;"/><rect fill="none" height="46.2656" style="stroke:#000000;stroke-width:1.5;" width="1064.5" x="451.5" y="928.6875"/><text fill="#000000" font-family="sans-serif" font-size="13" font-weight="bold" lengthAdjust="spacing" textLength="27" x="466.5" y="941.7544">opt</text><text fill="#000000" font-family="sans-serif" font-size="11" font-weight="bold" lengthAdjust="spacing" textLength="168" x="538.5" y="940.8979">[UHF_KEEP_ALIVE_ENABLE]</text><polygon fill="#181818" points="1432,962.9531,1442,966.9531,1432,970.9531,1436,966.9531" style="stroke:#181818;stroke-width:1.0;"/><line style="stroke:#181818;stroke-width:1.0;" x1="492.5" x2="1438" y1="966.9531" y2="966.9531"/><text fill="#000000" font-family="sans-serif" font-size="13" lengthAdjust="spacing" textLength="121" x="499.5" y="961.8872">UhfKeepAlive_Init()</text><path d="M451.5,988.9531 L523.5,988.9531 L523.5,996.0859 L513.5,1006.0859 L451.5,1006.0859 L451.5,988.9531 " fill="#EEEEEE" style="stroke:#000000;stroke-width:1.5;"/><rect fill="none" height="46.2656" style="stroke:#000000;stroke-width:1.5;" width="1176.5" x="451.5" y="988.9531"/><text fill="#000000" font-family="sans-serif" font-size="13" font-weight="bold" lengthAdjust="spacing" textLength="27" x="466.5" y="1002.02">opt</text><text fill="#000000" font-family="sans-serif" font-size="11" font-weight="bold" lengthAdjust="spacing" textLength="250" x="538.5" y="1001.1636">[OPMODES_TELEMETRY_ENABLED == 1]</text><polygon fill="#181818" points="1555,1023.2188,1565,1027.2188,1555,1031.2188,1559,1027.2188" style="stroke:#181818;stroke-width:1.0;"/><line style="stroke:#181818;stroke-width:1.0;" x1="492.5" x2="1561" y1="1027.2188" y2="1027.2188"/><text fill="#000000" font-family="sans-serif" font-size="13" lengthAdjust="spacing" textLength="102" x="499.5" y="1022.1528">Telemetry_Init()</text><path d="M451.5,1049.2188 L523.5,1049.2188 L523.5,1056.3516 L513.5,1066.3516 L451.5,1066.3516 L451.5,1049.2188 " fill="#EEEEEE" style="stroke:#000000;stroke-width:1.5;"/><rect fill="none" height="81.3984" style="stroke:#000000;stroke-width:1.5;" width="1273.5" x="451.5" y="1049.2188"/><text fill="#000000" font-family="sans-serif" font-size="13" font-weight="bold" lengthAdjust="spacing" textLength="27" x="466.5" y="1062.2856">opt</text><text fill="#000000" font-family="sans-serif" font-size="11" font-weight="bold" lengthAdjust="spacing" textLength="238" x="538.5" y="1061.4292">[OPMODES_BEACONS_ENABLED == 1]</text><polygon fill="#181818" points="1659.5,1083.4844,1669.5,1087.4844,1659.5,1091.4844,1663.5,1087.4844" style="stroke:#181818;stroke-width:1.0;"/><line style="stroke:#181818;stroke-width:1.0;" x1="492.5" x2="1665.5" y1="1087.4844" y2="1087.4844"/><text fill="#000000" font-family="sans-serif" font-size="13" lengthAdjust="spacing" textLength="62" x="499.5" y="1082.4185">BCN_Init()</text><path d="M1426,1100.4844 L1426,1125.4844 L1666,1125.4844 L1666,1110.4844 L1656,1100.4844 L1426,1100.4844 " fill="#FEFFDD" style="stroke:#181818;stroke-width:0.5;"/><path d="M1656,1100.4844 L1656,1110.4844 L1666,1110.4844 L1656,1100.4844 " fill="#FEFFDD" style="stroke:#181818;stroke-width:0.5;"/><text fill="#000000" font-family="sans-serif" font-size="13" lengthAdjust="spacing" textLength="219" x="1432" y="1117.5513">Radio beacon triggers initialization</text><path d="M451.5,1144.6172 L523.5,1144.6172 L523.5,1151.75 L513.5,1161.75 L451.5,1161.75 L451.5,1144.6172 " fill="#EEEEEE" style="stroke:#000000;stroke-width:1.5;"/><rect fill="none" height="81.3984" style="stroke:#000000;stroke-width:1.5;" width="1366.5" x="451.5" y="1144.6172"/><text fill="#000000" font-family="sans-serif" font-size="13" font-weight="bold" lengthAdjust="spacing" textLength="27" x="466.5" y="1157.6841">opt</text><text fill="#000000" font-family="sans-serif" font-size="11" font-weight="bold" lengthAdjust="spacing" textLength="222" x="538.5" y="1156.8276">[POWER_MANAGER_ENABLED == 1]</text><polygon fill="#181818" points="1754.5,1178.8828,1764.5,1182.8828,1754.5,1186.8828,1758.5,1182.8828" style="stroke:#181818;stroke-width:1.0;"/><line style="stroke:#181818;stroke-width:1.0;" x1="492.5" x2="1760.5" y1="1182.8828" y2="1182.8828"/><text fill="#000000" font-family="sans-serif" font-size="13" lengthAdjust="spacing" textLength="86" x="499.5" y="1177.8169">PwrMng_Init()</text><path d="M1479,1195.8828 L1479,1220.8828 L1761,1220.8828 L1761,1205.8828 L1751,1195.8828 L1479,1195.8828 " fill="#FEFFDD" style="stroke:#181818;stroke-width:0.5;"/><path d="M1751,1195.8828 L1751,1205.8828 L1761,1205.8828 L1751,1195.8828 " fill="#FEFFDD" style="stroke:#181818;stroke-width:0.5;"/><text fill="#000000" font-family="sans-serif" font-size="13" lengthAdjust="spacing" textLength="261" x="1485" y="1212.9497">Sleep/Wakeup management initialization</text><polygon fill="#181818" points="753.5,1257.1484,763.5,1261.1484,753.5,1265.1484,757.5,1261.1484" style="stroke:#181818;stroke-width:1.0;"/><line style="stroke:#181818;stroke-width:1.0;" x1="492.5" x2="759.5" y1="1261.1484" y2="1261.1484"/><text fill="#000000" font-family="sans-serif" font-size="13" lengthAdjust="spacing" textLength="98" x="499.5" y="1256.0825">MX_ADC1_Init()</text><polygon fill="#181818" points="753.5,1286.2813,763.5,1290.2813,753.5,1294.2813,757.5,1290.2813" style="stroke:#181818;stroke-width:1.0;"/><line style="stroke:#181818;stroke-width:1.0;" x1="492.5" x2="759.5" y1="1290.2813" y2="1290.2813"/><text fill="#000000" font-family="sans-serif" font-size="13" lengthAdjust="spacing" textLength="88" x="499.5" y="1285.2153">MX_RTC_Init()</text><polygon fill="#181818" points="753.5,1315.4141,763.5,1319.4141,753.5,1323.4141,757.5,1319.4141" style="stroke:#181818;stroke-width:1.0;"/><line style="stroke:#181818;stroke-width:1.0;" x1="492.5" x2="759.5" y1="1319.4141" y2="1319.4141"/><text fill="#000000" font-family="sans-serif" font-size="13" lengthAdjust="spacing" textLength="82" x="499.5" y="1314.3481">MX_I2C_Init()</text><polygon fill="#181818" points="1849.5,1344.5469,1859.5,1348.5469,1849.5,1352.5469,1853.5,1348.5469" style="stroke:#181818;stroke-width:1.0;"/><line style="stroke:#181818;stroke-width:1.0;" x1="492.5" x2="1855.5" y1="1348.5469" y2="1348.5469"/><text fill="#000000" font-family="sans-serif" font-size="13" lengthAdjust="spacing" textLength="90" x="499.5" y="1343.481">ExtFram_Init()</text><polygon fill="#181818" points="1943.5,1373.6797,1953.5,1377.6797,1943.5,1381.6797,1947.5,1377.6797" style="stroke:#181818;stroke-width:1.0;"/><line style="stroke:#181818;stroke-width:1.0;" x1="492.5" x2="1949.5" y1="1377.6797" y2="1377.6797"/><text fill="#000000" font-family="sans-serif" font-size="13" lengthAdjust="spacing" textLength="113" x="499.5" y="1372.6138">SdMngr_InitTask()</text><polygon fill="#181818" points="2043,1402.8125,2053,1406.8125,2043,1410.8125,2047,1406.8125" style="stroke:#181818;stroke-width:1.0;"/><line style="stroke:#181818;stroke-width:1.0;" x1="492.5" x2="2049" y1="1406.8125" y2="1406.8125"/><text fill="#000000" font-family="sans-serif" font-size="13" lengthAdjust="spacing" textLength="116" x="499.5" y="1401.7466">osKernelInitialize()</text><polygon fill="#181818" points="2150.5,1431.9453,2160.5,1435.9453,2150.5,1439.9453,2154.5,1435.9453" style="stroke:#181818;stroke-width:1.0;"/><line style="stroke:#181818;stroke-width:1.0;" x1="492.5" x2="2156.5" y1="1435.9453" y2="1435.9453"/><text fill="#000000" font-family="sans-serif" font-size="13" lengthAdjust="spacing" textLength="91" x="499.5" y="1430.8794">AppTask_Init()</text><polygon fill="#181818" points="1323.5,1461.0781,1333.5,1465.0781,1323.5,1469.0781,1327.5,1465.0781" style="stroke:#181818;stroke-width:1.0;"/><line style="stroke:#181818;stroke-width:1.0;" x1="492.5" x2="1329.5" y1="1465.0781" y2="1465.0781"/><text fill="#000000" font-family="sans-serif" font-size="13" lengthAdjust="spacing" textLength="107" x="499.5" y="1460.0122">ESTTC_InitTask()</text><path d="M1102,1478.0781 L1102,1503.0781 L1330,1503.0781 L1330,1488.0781 L1320,1478.0781 L1102,1478.0781 " fill="#FEFFDD" style="stroke:#181818;stroke-width:0.5;"/><path d="M1320,1478.0781 L1320,1488.0781 L1330,1488.0781 L1320,1478.0781 " fill="#FEFFDD" style="stroke:#181818;stroke-width:0.5;"/><text fill="#000000" font-family="sans-serif" font-size="13" lengthAdjust="spacing" textLength="207" x="1108" y="1495.145">ESTTC protocol task initialization</text><path d="M451.5,1515.2109 L523.5,1515.2109 L523.5,1522.3438 L513.5,1532.3438 L451.5,1532.3438 L451.5,1515.2109 " fill="#EEEEEE" style="stroke:#000000;stroke-width:1.5;"/><rect fill="none" height="81.3984" style="stroke:#000000;stroke-width:1.5;" width="1948.5" x="451.5" y="1515.2109"/><text fill="#000000" font-family="sans-serif" font-size="13" font-weight="bold" lengthAdjust="spacing" textLength="27" x="466.5" y="1528.2778">opt</text><text fill="#000000" font-family="sans-serif" font-size="11" font-weight="bold" lengthAdjust="spacing" textLength="193" x="538.5" y="1527.4214">[RS485_MAC_LAYER_ENABLED]</text><polygon fill="#181818" points="2293.5,1549.4766,2303.5,1553.4766,2293.5,1557.4766,2297.5,1553.4766" style="stroke:#181818;stroke-width:1.0;"/><line style="stroke:#181818;stroke-width:1.0;" x1="492.5" x2="2299.5" y1="1553.4766" y2="1553.4766"/><text fill="#000000" font-family="sans-serif" font-size="13" lengthAdjust="spacing" textLength="164" x="499.5" y="1548.4106">ESSA_Stack_Facade_Init()</text><path d="M2067,1566.4766 L2067,1591.4766 L2300,1591.4766 L2300,1576.4766 L2290,1566.4766 L2067,1566.4766 " fill="#FEFFDD" style="stroke:#181818;stroke-width:0.5;"/><path d="M2290,1566.4766 L2290,1576.4766 L2300,1576.4766 L2290,1566.4766 " fill="#FEFFDD" style="stroke:#181818;stroke-width:0.5;"/><text fill="#000000" font-family="sans-serif" font-size="13" lengthAdjust="spacing" textLength="212" x="2073" y="1583.5435">ESPS I protocol stack initialization</text><polygon fill="#181818" points="2434.5,1620.7422,2444.5,1624.7422,2434.5,1628.7422,2438.5,1624.7422" style="stroke:#181818;stroke-width:1.0;"/><line style="stroke:#181818;stroke-width:1.0;" x1="492.5" x2="2440.5" y1="1624.7422" y2="1624.7422"/><text fill="#000000" font-family="sans-serif" font-size="13" lengthAdjust="spacing" textLength="120" x="499.5" y="1619.6763">ServicesTask_Init()</text><polygon fill="#181818" points="2531,1649.875,2541,1653.875,2531,1657.875,2535,1653.875" style="stroke:#181818;stroke-width:1.0;"/><line style="stroke:#181818;stroke-width:1.0;" x1="492.5" x2="2537" y1="1653.875" y2="1653.875"/><text fill="#000000" font-family="sans-serif" font-size="13" lengthAdjust="spacing" textLength="83" x="499.5" y="1648.8091">AntUHF_Init()</text><path d="M451.5,1668.875 L523.5,1668.875 L523.5,1676.0078 L513.5,1686.0078 L451.5,1686.0078 L451.5,1668.875 " fill="#EEEEEE" style="stroke:#000000;stroke-width:1.5;"/><rect fill="none" height="46.2656" style="stroke:#000000;stroke-width:1.5;" width="2280.5" x="451.5" y="1668.875"/><text fill="#000000" font-family="sans-serif" font-size="13" font-weight="bold" lengthAdjust="spacing" textLength="27" x="466.5" y="1681.9419">opt</text><text fill="#000000" font-family="sans-serif" font-size="11" font-weight="bold" lengthAdjust="spacing" textLength="166" x="538.5" y="1681.0854">[ENABLE_EPS_I_SUPPORT]</text><polygon fill="#181818" points="2677.5,1703.1406,2687.5,1707.1406,2677.5,1711.1406,2681.5,1707.1406" style="stroke:#181818;stroke-width:1.0;"/><line style="stroke:#181818;stroke-width:1.0;" x1="492.5" x2="2683.5" y1="1707.1406" y2="1707.1406"/><text fill="#000000" font-family="sans-serif" font-size="13" lengthAdjust="spacing" textLength="70" x="499.5" y="1702.0747">EPS_I_Init()</text><path d="M451.5,1729.1406 L523.5,1729.1406 L523.5,1736.2734 L513.5,1746.2734 L451.5,1746.2734 L451.5,1729.1406 " fill="#EEEEEE" style="stroke:#000000;stroke-width:1.5;"/><rect fill="none" height="46.2656" style="stroke:#000000;stroke-width:1.5;" width="2205.5" x="451.5" y="1729.1406"/><text fill="#000000" font-family="sans-serif" font-size="13" font-weight="bold" lengthAdjust="spacing" textLength="27" x="466.5" y="1742.2075">opt</text><text fill="#000000" font-family="sans-serif" font-size="11" font-weight="bold" lengthAdjust="spacing" textLength="171" x="538.5" y="1741.3511">[ENABLE_UHF_II_SUPPORT]</text><polygon fill="#181818" points="2608,1763.4063,2618,1767.4063,2608,1771.4063,2612,1767.4063" style="stroke:#181818;stroke-width:1.0;"/><line style="stroke:#181818;stroke-width:1.0;" x1="492.5" x2="2614" y1="1767.4063" y2="1767.4063"/><text fill="#000000" font-family="sans-serif" font-size="13" lengthAdjust="spacing" textLength="61" x="499.5" y="1762.3403">UHF_Init()</text><polygon fill="#181818" points="2043,1799.5391,2053,1803.5391,2043,1807.5391,2047,1803.5391" style="stroke:#181818;stroke-width:1.0;"/><line style="stroke:#181818;stroke-width:1.0;" x1="492.5" x2="2049" y1="1803.5391" y2="1803.5391"/><text fill="#000000" font-family="sans-serif" font-size="13" lengthAdjust="spacing" textLength="96" x="499.5" y="1798.4731">osKernelStart()</text><path d="M451.5,1818.5391 L529.5,1818.5391 L529.5,1825.6719 L519.5,1835.6719 L451.5,1835.6719 L451.5,1818.5391 " fill="#EEEEEE" style="stroke:#000000;stroke-width:1.5;"/><rect fill="none" height="44.1328" style="stroke:#000000;stroke-width:1.5;" width="159" x="451.5" y="1818.5391"/><text fill="#000000" font-family="sans-serif" font-size="13" font-weight="bold" lengthAdjust="spacing" textLength="33" x="466.5" y="1831.606">loop</text><text fill="#000000" font-family="sans-serif" font-size="11" font-weight="bold" lengthAdjust="spacing" textLength="61" x="544.5" y="1830.7495">[forever]</text><line style="stroke:#181818;stroke-width:1.0;" x1="492.5" x2="534.5" y1="1841.6719" y2="1841.6719"/><line style="stroke:#181818;stroke-width:1.0;" x1="534.5" x2="534.5" y1="1841.6719" y2="1854.6719"/><line style="stroke:#181818;stroke-width:1.0;" x1="493.5" x2="534.5" y1="1854.6719" y2="1854.6719"/><polygon fill="#181818" points="503.5,1850.6719,493.5,1854.6719,503.5,1858.6719,499.5,1854.6719" style="stroke:#181818;stroke-width:1.0;"/><!--SRC=[bLPRRwj647xthnZbwVGXxJbfgnuXdKhOnecLE4RWd9n8bT0QnZOAi6XtdKj_VMU7Yp6GLds1NUQR-MPdvq8fb4dZj1I5WTNiOL9szg6XpR44eU52L-j8c_pNgzqVRsy_wujpy5DO0T-rmRo3YyznkKWB1jf5NqWUHCiYDGneDdsGzyExOG3g2D_mC91xlfSVCuRGEbYl8gHz7tRZtjKdgpsD3c80MfShcQ1cOBqUq8MRpQmYiwk- -E5cSUko-E6mkqKitInzmJvgWndcZE8L6lNUXqndzmoOeeXbCN33VmnOxB-gLR7lInU1kwfyV3CB9VA-F9opD4n8L_M5mMPTtMsSwrH7Kb_r4QxlCy0joutGpoCnyiCwHA4RKLx5pz52n28P16AEExR0w6Ope2iCXRLYvEL8qAkG3qLUuuaVHaihd52UmUMVJROxuCjNL9Uo0AbiGe92ZMRI54CNMUKwf9IagSZIluL9IKqKoL_5CWp0Y6s6GCh7yapzANGWP5MRtfz-wWfjLJZyfEzSA_IngGJoxViycYhvMiYZ2QnVKMsYa0OXmvq1kUlWcHosjGOaQ30sTAuNcHcnjnelc6dOqQUP_m2nLDYosZfp-1bjnrWgUNju17D0s0gTne1lCPOSZ0D58qDrCbeLfmDrPThDw1bQO8zWaGbzgBN1rZK7VI8om-cNfN5r2xPMBrhQAgmX6ZXTZ4WIkbeDHeBeA0g5Oa91GIerASt_CxGbZKnINglQJf60BCraGW-uU1GcFYHo3rXOnOJE1jjZcYKK-6ANxe-ANRWOkVZLZsZvEByUXke4gOp2iaYm95waP7-j2Kz-D9Qf-pdsCJJ8abZcESKYt40cNoyvIxXXdgVwPCJHAh5dcQGINzBLp_Xa7xZSgnowzhgaOgklRIb1YIej3wX4Ld-TZ8Vdsb-k_wCQx3M_DwHW5Q2Kofn7tzQCIOkzhYvjxQ_MSo-Cl7jtUkVDuTit-7pAPjlndUhLSDlKQG7rp72QnQY3BOXYjIurqAmbQIxYGrhW8EJMAUfhqItLGEJUBRzxjMyjAOyS1xhpfdMkcu_DqJRUdRVoDi5Jzv1VMdCyaHne1zE_sffwxcnz7uvReX7csCTe55WOY2IbAk8H1qQb-pqgtG_16R6_VlI2QENUkzVq7gMbqKYTa-VYA3FBmunYzSkZU4PgcBaeg3lcjeG-u1uKr5akklFPbuPg512SycMyrgy6SZl2ATMg-Tq8MsaufoFmz6QH7PjTiHtX3aXzYwh0RDcsr2w6XhW3zGGVs1zaUirmthCx82YLD3AM6JL9_JoQnK7uszVVwUfcqPtxTBgy3gSVMckzNuRnSL5ZQRelJzJQgdsOFWrFyvjX-xfwIMFKtH2quU4_3QT-jm6o1waSZ_YN8WeVV7yTR4wdOCTOD5OujIwR72epOuTkuFlvnVAFXFKgaxAqKvqQjpgVNMp2Yly1]--></g></svg>