<?xml version="1.0" encoding="us-ascii" standalone="no"?><svg xmlns="http://www.w3.org/2000/svg" xmlns:xlink="http://www.w3.org/1999/xlink" contentStyleType="text/css" height="897px" preserveAspectRatio="none" style="width:1221px;height:897px;background:#FFFFFF;" version="1.1" viewBox="0 0 1221 897" width="1221px" zoomAndPan="magnify"><defs/><g><text fill="#000000" font-family="sans-serif" font-size="14" font-weight="bold" lengthAdjust="spacing" textLength="337" x="435" y="22.9951">Operations - key players and interactions</text><!--cluster Ground Segment--><g id="cluster_Ground Segment"><path d="M984.5,531.2969 L1120.5,531.2969 A3.75,3.75 0 0 1 1123,533.7969 L1130,553.5938 L1130.5,553.5938 A2.5,2.5 0 0 1 1133,556.0938 L1133,655.7969 A2.5,2.5 0 0 1 1130.5,658.2969 L984.5,658.2969 A2.5,2.5 0 0 1 982,655.7969 L982,533.7969 A2.5,2.5 0 0 1 984.5,531.2969 " fill="none" style="stroke:#000000;stroke-width:1.5;"/><line style="stroke:#000000;stroke-width:1.5;" x1="982" x2="1130" y1="553.5938" y2="553.5938"/><text fill="#000000" font-family="sans-serif" font-size="14" font-weight="bold" lengthAdjust="spacing" textLength="135" x="986" y="546.292">Ground Segment</text></g><!--cluster Satellite--><g id="cluster_Satellite"><path d="M8.5,43.2969 L78.5,43.2969 A3.75,3.75 0 0 1 81,45.7969 L88,65.5938 L955.5,65.5938 A2.5,2.5 0 0 1 958,68.0938 L958,788.7969 A2.5,2.5 0 0 1 955.5,791.2969 L8.5,791.2969 A2.5,2.5 0 0 1 6,788.7969 L6,45.7969 A2.5,2.5 0 0 1 8.5,43.2969 " fill="none" style="stroke:#000000;stroke-width:1.5;"/><line style="stroke:#000000;stroke-width:1.5;" x1="6" x2="88" y1="65.5938" y2="65.5938"/><text fill="#000000" font-family="sans-serif" font-size="14" font-weight="bold" lengthAdjust="spacing" textLength="69" x="10" y="58.292">Satellite</text></g><!--cluster Gen2 Service--><g id="cluster_Gen2 Service"><path d="M36.5,372.2969 L141.5,372.2969 A3.75,3.75 0 0 1 144,374.7969 L151,394.5938 L320.5,394.5938 A2.5,2.5 0 0 1 323,397.0938 L323,764.7969 A2.5,2.5 0 0 1 320.5,767.2969 L36.5,767.2969 A2.5,2.5 0 0 1 34,764.7969 L34,374.7969 A2.5,2.5 0 0 1 36.5,372.2969 " fill="none" style="stroke:#000000;stroke-width:1.5;"/><line style="stroke:#000000;stroke-width:1.5;" x1="34" x2="151" y1="394.5938" y2="394.5938"/><text fill="#000000" font-family="sans-serif" font-size="14" font-weight="bold" lengthAdjust="spacing" textLength="104" x="38" y="387.292">Gen2 Service</text></g><!--entity op--><g id="elem_op"><ellipse cx="1031" cy="574.7969" fill="#F1F1F1" rx="8" ry="8" style="stroke:#181818;stroke-width:0.5;"/><path d="M1031,582.7969 L1031,609.7969 M1018,590.7969 L1044,590.7969 M1031,609.7969 L1018,624.7969 M1031,609.7969 L1044,624.7969 " fill="none" style="stroke:#181818;stroke-width:0.5;"/><text fill="#000000" font-family="sans-serif" font-size="14" lengthAdjust="spacing" textLength="66" x="998" y="639.292">Operator</text></g><!--entity PS--><g id="elem_PS"><rect fill="#F1F1F1" height="62.5938" rx="2.5" ry="2.5" style="stroke:#181818;stroke-width:0.5;" width="171" x="770.5" y="78.2969"/><rect fill="#F1F1F1" height="10" style="stroke:#181818;stroke-width:0.5;" width="15" x="921.5" y="83.2969"/><rect fill="#F1F1F1" height="2" style="stroke:#181818;stroke-width:0.5;" width="4" x="919.5" y="85.2969"/><rect fill="#F1F1F1" height="2" style="stroke:#181818;stroke-width:0.5;" width="4" x="919.5" y="89.2969"/><text fill="#000000" font-family="sans-serif" font-size="14" lengthAdjust="spacing" textLength="131" x="785.5" y="111.292">Onboard (Payload)</text><text fill="#000000" font-family="sans-serif" font-size="14" lengthAdjust="spacing" textLength="71" x="785.5" y="127.5889">Scheduler</text></g><!--entity conops--><g id="elem_conops"><rect fill="#F1F1F1" height="46.2969" rx="2.5" ry="2.5" style="stroke:#181818;stroke-width:0.5;" width="92" x="338" y="86.7969"/><rect fill="#F1F1F1" height="10" style="stroke:#181818;stroke-width:0.5;" width="15" x="410" y="91.7969"/><rect fill="#F1F1F1" height="2" style="stroke:#181818;stroke-width:0.5;" width="4" x="408" y="93.7969"/><rect fill="#F1F1F1" height="2" style="stroke:#181818;stroke-width:0.5;" width="4" x="408" y="97.7969"/><text fill="#000000" font-family="sans-serif" font-size="14" lengthAdjust="spacing" textLength="52" x="353" y="119.792">conops</text></g><!--entity PC--><g id="elem_PC"><rect fill="#F1F1F1" height="46.2969" rx="2.5" ry="2.5" style="stroke:#181818;stroke-width:0.5;" width="128" x="22" y="86.7969"/><rect fill="#F1F1F1" height="10" style="stroke:#181818;stroke-width:0.5;" width="15" x="130" y="91.7969"/><rect fill="#F1F1F1" height="2" style="stroke:#181818;stroke-width:0.5;" width="4" x="128" y="93.7969"/><rect fill="#F1F1F1" height="2" style="stroke:#181818;stroke-width:0.5;" width="4" x="128" y="97.7969"/><text fill="#000000" font-family="sans-serif" font-size="14" lengthAdjust="spacing" textLength="88" x="37" y="119.792">payload_ctrl</text></g><!--entity AC--><g id="elem_AC"><rect fill="#F1F1F1" height="46.2969" rx="2.5" ry="2.5" style="stroke:#181818;stroke-width:0.5;" width="113" x="317.5" y="233.2969"/><rect fill="#F1F1F1" height="10" style="stroke:#181818;stroke-width:0.5;" width="15" x="410.5" y="238.2969"/><rect fill="#F1F1F1" height="2" style="stroke:#181818;stroke-width:0.5;" width="4" x="408.5" y="240.2969"/><rect fill="#F1F1F1" height="2" style="stroke:#181818;stroke-width:0.5;" width="4" x="408.5" y="244.2969"/><text fill="#000000" font-family="sans-serif" font-size="14" lengthAdjust="spacing" textLength="73" x="332.5" y="266.292">aocs_cntrl</text></g><!--entity if_aocs--><g id="elem_if_aocs"><ellipse cx="240" cy="256.2969" fill="#F1F1F1" rx="8" ry="8" style="stroke:#181818;stroke-width:0.5;"/><text fill="#000000" font-family="sans-serif" font-size="14" font-weight="bold" lengthAdjust="spacing" textLength="118" x="181" y="286.292">if_aocs_cntrl.h</text></g><!--entity gen_2--><g id="elem_gen_2"><rect fill="#F1F1F1" height="46.2969" rx="2.5" ry="2.5" style="stroke:#181818;stroke-width:0.5;" width="174" x="133" y="407.2969"/><rect fill="#F1F1F1" height="10" style="stroke:#181818;stroke-width:0.5;" width="15" x="287" y="412.2969"/><rect fill="#F1F1F1" height="2" style="stroke:#181818;stroke-width:0.5;" width="4" x="285" y="414.2969"/><rect fill="#F1F1F1" height="2" style="stroke:#181818;stroke-width:0.5;" width="4" x="285" y="418.2969"/><text fill="#000000" font-family="sans-serif" font-size="14" lengthAdjust="spacing" textLength="134" x="148" y="440.292">Gen2 Components</text></g><!--entity gen_2_cp--><g id="elem_gen_2_cp"><rect fill="#F1F1F1" height="46.2969" rx="2.5" ry="2.5" style="stroke:#181818;stroke-width:0.5;" width="219" x="50.5" y="581.2969"/><rect fill="#F1F1F1" height="10" style="stroke:#181818;stroke-width:0.5;" width="15" x="249.5" y="586.2969"/><rect fill="#F1F1F1" height="2" style="stroke:#181818;stroke-width:0.5;" width="4" x="247.5" y="588.2969"/><rect fill="#F1F1F1" height="2" style="stroke:#181818;stroke-width:0.5;" width="4" x="247.5" y="592.2969"/><text fill="#000000" font-family="sans-serif" font-size="14" lengthAdjust="spacing" textLength="179" x="65.5" y="614.292">Gen2 Command Protocol</text></g><!--entity gen_2_drv--><g id="elem_gen_2_drv"><rect fill="#F1F1F1" height="46.2969" rx="2.5" ry="2.5" style="stroke:#181818;stroke-width:0.5;" width="125" x="160.5" y="705.2969"/><rect fill="#F1F1F1" height="10" style="stroke:#181818;stroke-width:0.5;" width="15" x="265.5" y="710.2969"/><rect fill="#F1F1F1" height="2" style="stroke:#181818;stroke-width:0.5;" width="4" x="263.5" y="712.2969"/><rect fill="#F1F1F1" height="2" style="stroke:#181818;stroke-width:0.5;" width="4" x="263.5" y="716.2969"/><text fill="#000000" font-family="sans-serif" font-size="14" lengthAdjust="spacing" textLength="85" x="175.5" y="738.292">Gen2 Driver</text></g><!--reverse link PS to op--><g id="link_PS_op"><path d="M899.2919,145.252 C940.6799,180.592 999.36,239.0879 1026,309.2969 C1059.05,396.4029 1047.52,508.7299 1038.17,566.0489 " fill="none" id="PS-backto-op" style="stroke:#008000;stroke-width:1.0;stroke-dasharray:7.0,7.0;"/><polygon fill="#008000" points="894.729,141.3559,898.9759,150.242,898.5314,144.6027,904.1708,144.1581,894.729,141.3559" style="stroke:#008000;stroke-width:1.0;"/><text fill="#008000" font-family="sans-serif" font-size="13" font-weight="bold" lengthAdjust="spacing" textLength="14" x="1070.5" y="322.3638">5.</text><text fill="#008000" font-family="sans-serif" font-size="13" lengthAdjust="spacing" textLength="94" x="1088.5" y="322.3638">Update/Upload</text><text fill="#008000" font-family="sans-serif" font-size="13" lengthAdjust="spacing" textLength="119" x="1067" y="337.4966">on-board schedule</text><text fill="#008000" font-family="sans-serif" font-size="13" lengthAdjust="spacing" textLength="173" x="1040" y="352.6294">using file upload procedure</text></g><!--reverse link conops to PS--><g id="link_conops_PS"><path d="M436.117,109.7969 C514.87,109.7969 670.436,109.7969 770.365,109.7969 " fill="none" id="conops-backto-PS" style="stroke:#800000;stroke-width:1.0;stroke-dasharray:7.0,7.0;"/><polygon fill="#800000" points="430.117,109.7969,439.117,113.7969,435.117,109.7969,439.117,105.7969,430.117,109.7969" style="stroke:#800000;stroke-width:1.0;"/><text fill="#800000" font-family="sans-serif" font-size="13" font-weight="bold" lengthAdjust="spacing" textLength="14" x="518.75" y="87.8638">6.</text><text fill="#800000" font-family="sans-serif" font-size="13" lengthAdjust="spacing" textLength="45" x="536.75" y="87.8638">Trigger</text><text fill="#800000" font-family="sans-serif" font-size="13" font-weight="bold" lengthAdjust="spacing" textLength="92" x="585.75" y="87.8638">payload_ctrl</text><text fill="#800000" font-family="sans-serif" font-size="13" lengthAdjust="spacing" textLength="4" x="677.75" y="87.8638">&#160;</text><text fill="#800000" font-family="sans-serif" font-size="13" lengthAdjust="spacing" textLength="304" x="448.25" y="102.9966">with AOCS state and params from schedule file</text></g><!--reverse link gen_2_cp to op--><g id="link_gen_2_cp_op"><path d="M275.871,604.2969 C474.582,604.2969 878.176,604.2969 997.62,604.2969 " fill="none" id="gen_2_cp-backto-op" style="stroke:#FF0000;stroke-width:1.0;stroke-dasharray:7.0,7.0;"/><polygon fill="#FF0000" points="269.871,604.2969,278.871,608.2969,274.871,604.2969,278.871,600.2969,269.871,604.2969" style="stroke:#FF0000;stroke-width:1.0;"/><text fill="#FF0000" font-family="sans-serif" font-size="13" font-weight="bold" lengthAdjust="spacing" textLength="14" x="548.25" y="582.3638">1.</text><text fill="#FF0000" font-family="sans-serif" font-size="13" lengthAdjust="spacing" textLength="111" x="566.25" y="582.3638">Commanding the</text><text fill="#FF0000" font-family="sans-serif" font-size="13" font-weight="bold" lengthAdjust="spacing" textLength="38" x="681.25" y="582.3638">Gen2</text><text fill="#FF0000" font-family="sans-serif" font-size="13" lengthAdjust="spacing" textLength="261" x="503.25" y="597.4966">module using CubeSpace APIs (15 FIDLs)</text></g><!--reverse link gen_2 to op--><g id="link_gen_2_op"><path d="M265.4329,456.3336 C280.7149,465.1516 292.877,472.7179 308,483.2969 C326.372,496.1489 326.415,506.4099 347,515.2969 C466.679,566.9629 877.635,594.4039 997.77,601.4509 " fill="none" id="gen_2-backto-op" style="stroke:#0000FF;stroke-width:1.0;stroke-dasharray:7.0,7.0;"/><polygon fill="#0000FF" points="260.236,453.3349,266.0322,461.2975,264.5667,455.8338,270.0305,454.3683,260.236,453.3349" style="stroke:#0000FF;stroke-width:1.0;"/><text fill="#0000FF" font-family="sans-serif" font-size="13" font-weight="bold" lengthAdjust="spacing" textLength="14" x="348" y="496.3638">2.</text><text fill="#0000FF" font-family="sans-serif" font-size="13" lengthAdjust="spacing" textLength="149" x="366" y="496.3638">Commanding the Gen2</text><text fill="#0000FF" font-family="sans-serif" font-size="13" lengthAdjust="spacing" textLength="165" x="349" y="511.4966">service using service FIDL</text></g><!--link gen_2 to gen_2_cp--><g id="link_gen_2_gen_2_cp"><path d="M212.279,453.4309 C200.758,486.4569 181.1713,542.6057 169.6673,575.5827 " fill="none" id="gen_2-to-gen_2_cp" style="stroke:#181818;stroke-width:1.0;"/><polygon fill="#181818" points="167.691,581.2479,174.4322,574.0676,169.3379,576.5269,166.8787,571.4326,167.691,581.2479" style="stroke:#181818;stroke-width:1.0;"/></g><!--link gen_2 to gen_2_drv--><g id="link_gen_2_gen_2_drv"><path d="M246.5752,457.9715 C262.4222,475.2995 278.254,496.4299 287,523.2969 C306.674,583.7309 312.024,607.8749 287,666.2969 C280.412,681.6769 272.4375,691.1721 260.1615,701.4231 " fill="none" id="gen_2-gen_2_drv" style="stroke:#181818;stroke-width:1.0;"/><polygon fill="#181818" points="242.526,453.5439,245.6481,462.8848,245.9003,457.2336,251.5516,457.4858,242.526,453.5439" style="stroke:#181818;stroke-width:1.0;"/><polygon fill="#181818" points="255.556,705.2689,265.028,702.5705,259.3939,702.0641,259.9003,696.4299,255.556,705.2689" style="stroke:#181818;stroke-width:1.0;"/></g><!--link gen_2_cp to gen_2_drv--><g id="link_gen_2_cp_gen_2_drv"><path d="M174.162,632.721 C185.509,654.694 197.3192,677.5647 208.7102,699.6247 " fill="none" id="gen_2_cp-gen_2_drv" style="stroke:#181818;stroke-width:1.0;"/><polygon fill="#181818" points="171.409,627.3899,171.9845,637.2219,173.7032,631.8325,179.0926,633.5512,171.409,627.3899" style="stroke:#181818;stroke-width:1.0;"/><polygon fill="#181818" points="211.463,704.9559,210.8879,695.1238,209.169,700.5132,203.7796,698.7943,211.463,704.9559" style="stroke:#181818;stroke-width:1.0;"/></g><!--link if_aocs to gen_2--><g id="link_if_aocs_gen_2"><path d="M238.3421,271.5527 C235.3851,296.9857 227.7621,362.547 223.2801,401.085 " fill="none" id="if_aocs-gen_2" style="stroke:#181818;stroke-width:1.0;"/><polygon fill="#181818" points="239.035,265.5929,234.0224,274.0707,238.4576,270.5594,241.9688,274.9946,239.035,265.5929" style="stroke:#181818;stroke-width:1.0;"/><polygon fill="#181818" points="222.587,407.0449,227.5999,398.5672,223.1646,402.0784,219.6535,397.643,222.587,407.0449" style="stroke:#181818;stroke-width:1.0;"/></g><!--reverse link AC to op--><g id="link_AC_op"><path d="M393.4582,284.3504 C423.4032,324.7094 488.621,405.4419 566,453.2969 C712.271,543.7579 918.523,585.0179 998,598.2689 " fill="none" id="AC-backto-op" style="stroke:#4B0082;stroke-width:1.0;stroke-dasharray:7.0,7.0;"/><polygon fill="#4B0082" points="389.883,279.5319,392.0334,289.1431,392.8623,283.5473,398.4581,284.3762,389.883,279.5319" style="stroke:#4B0082;stroke-width:1.0;"/><text fill="#4B0082" font-family="sans-serif" font-size="13" font-weight="bold" lengthAdjust="spacing" textLength="13" x="567" y="434.8638">3.</text><text fill="#4B0082" font-family="sans-serif" font-size="13" lengthAdjust="spacing" textLength="109" x="584" y="434.8638">Commanding via</text><text fill="#4B0082" font-family="sans-serif" font-size="13" font-weight="bold" lengthAdjust="spacing" textLength="78" x="697" y="434.8638">aocs_cntrl</text><text fill="#4B0082" font-family="sans-serif" font-size="13" lengthAdjust="spacing" textLength="27" x="779" y="434.8638">FIDL</text></g><!--link op to conops--><g id="link_op_conops"><path d="M1001.99,566.0129 C934.443,481.8789 757.472,276.4409 562,171.2969 C519.746,148.5679 473.1182,133.5593 436.1402,123.5653 " fill="none" id="op-to-conops" style="stroke:#FF00FF;stroke-width:1.0;stroke-dasharray:7.0,7.0;"/><polygon fill="#FF00FF" points="430.348,121.9999,437.9926,128.2095,435.1748,123.3044,440.0799,120.4866,430.348,121.9999" style="stroke:#FF00FF;stroke-width:1.0;"/><text fill="#FF00FF" font-family="sans-serif" font-size="13" font-weight="bold" lengthAdjust="spacing" textLength="14" x="808" y="329.8638">4.</text><text fill="#FF00FF" font-family="sans-serif" font-size="13" lengthAdjust="spacing" textLength="111" x="826" y="329.8638">Commanding the</text><text fill="#FF00FF" font-family="sans-serif" font-size="13" font-weight="bold" lengthAdjust="spacing" textLength="57" x="941" y="329.8638">ConOps</text><text fill="#FF00FF" font-family="sans-serif" font-size="13" lengthAdjust="spacing" textLength="144" x="831" y="344.9966">using the ConOps FIDL</text></g><!--link conops to AC--><g id="link_conops_AC"><path d="M382.459,133.0579 C380.575,160.2919 377.8183,200.1252 375.9403,227.2612 " fill="none" id="conops-to-AC" style="stroke:#CD853F;stroke-width:1.0;stroke-dasharray:7.0,7.0;"/><polygon fill="#CD853F" points="375.526,233.2469,380.1378,224.5445,375.8712,228.2588,372.1569,223.9922,375.526,233.2469" style="stroke:#CD853F;stroke-width:1.0;"/><text fill="#CD853F" font-family="sans-serif" font-size="13" font-weight="bold" lengthAdjust="spacing" textLength="14" x="391" y="184.3638">7.</text><text fill="#CD853F" font-family="sans-serif" font-size="13" lengthAdjust="spacing" textLength="134" x="409" y="184.3638">Request AOCS state,</text><text fill="#CD853F" font-family="sans-serif" font-size="13" lengthAdjust="spacing" textLength="172" x="381" y="199.4966">commissioning status, etc.</text></g><!--link conops to PC--><g id="link_conops_PC"><path d="M337.807,109.7969 C287.523,109.7969 212.758,109.7969 156.295,109.7969 " fill="none" id="conops-to-PC" style="stroke:#FF6347;stroke-width:1.0;stroke-dasharray:7.0,7.0;"/><polygon fill="#FF6347" points="150.295,109.7969,159.295,113.7969,155.295,109.7969,159.295,105.7969,150.295,109.7969" style="stroke:#FF6347;stroke-width:1.0;"/><text fill="#FF6347" font-family="sans-serif" font-size="13" font-weight="bold" lengthAdjust="spacing" textLength="14" x="162.5" y="87.8638">8.</text><text fill="#FF6347" font-family="sans-serif" font-size="13" lengthAdjust="spacing" textLength="145" x="180.5" y="87.8638">Request payload logic,</text><text fill="#FF6347" font-family="sans-serif" font-size="13" lengthAdjust="spacing" textLength="154" x="169" y="102.9966">AOCS state and params</text></g><!--link PC to conops--><g id="link_PC_conops"><path d="M130.63,132.7989 C142.325,137.7479 155.132,142.2539 167.5,144.7969 C200.803,151.6459 287.573,153.2699 320.5,144.7969 C330.375,142.2559 335.0787,140.6701 344.1127,135.7911 " fill="none" id="PC-to-conops" style="stroke:#008080;stroke-width:1.0;stroke-dasharray:7.0,7.0;"/><polygon fill="#008080" points="349.392,132.9399,339.5723,133.6971,344.9926,135.3159,343.3739,140.7362,349.392,132.9399" style="stroke:#008080;stroke-width:1.0;"/><text fill="#008080" font-family="sans-serif" font-size="13" font-weight="bold" lengthAdjust="spacing" textLength="14" x="168.5" y="125.8638">9.</text><text fill="#008080" font-family="sans-serif" font-size="13" lengthAdjust="spacing" textLength="133" x="186.5" y="125.8638">Receive notifications</text><text fill="#008080" font-family="sans-serif" font-size="13" lengthAdjust="spacing" textLength="119" x="184.5" y="140.9966">from payload logic</text></g><!--link PC to AC--><g id="link_PC_AC"><path d="M115.7634,136.7364 C140.3134,157.3344 174.837,183.8659 213,203.2969 C245.981,220.0899 279.7143,231.3525 311.3443,240.0825 " fill="none" id="PC-AC" style="stroke:#808080;stroke-width:1.0;stroke-dasharray:7.0,7.0;"/><polygon fill="#808080" points="111.167,132.8799,115.4907,141.7289,114.9974,136.0936,120.6327,135.6004,111.167,132.8799" style="stroke:#808080;stroke-width:1.0;"/><polygon fill="#808080" points="317.128,241.6789,309.5166,235.4285,312.3082,240.3486,307.3882,243.1402,317.128,241.6789" style="stroke:#808080;stroke-width:1.0;"/><text fill="#808080" font-family="sans-serif" font-size="13" font-weight="bold" lengthAdjust="spacing" textLength="24" x="214" y="184.3638">10.</text><text fill="#808080" font-family="sans-serif" font-size="13" lengthAdjust="spacing" textLength="127" x="242" y="184.3638">Trigger and monitor</text><text fill="#808080" font-family="sans-serif" font-size="13" lengthAdjust="spacing" textLength="91" x="246" y="199.4966">AOCS pointing</text></g><!--link AC to if_aocs--><g id="link_AC_if_aocs"><path d="M311.432,256.2969 C288.675,256.2969 277.917,256.2969 255.16,256.2969 " fill="none" id="AC-if_aocs" style="stroke:#181818;stroke-width:1.0;"/><polygon fill="#181818" points="317.432,256.2969,308.432,252.2969,312.432,256.2969,308.432,260.2969,317.432,256.2969" style="stroke:#181818;stroke-width:1.0;"/><polygon fill="#181818" points="249.16,256.2969,258.16,260.2969,254.16,256.2969,258.16,252.2969,249.16,256.2969" style="stroke:#181818;stroke-width:1.0;"/></g><rect fill="#DDDDDD" height="67.75" id="_legend" rx="7.5" ry="7.5" style="stroke:#000000;stroke-width:1.0;" width="280" x="463.5" y="809.2969"/><text fill="#000000" font-family="sans-serif" font-size="14" font-weight="bold" lengthAdjust="spacing" textLength="79" x="473.5" y="829.292">Line Style</text><text fill="#000000" font-family="sans-serif" font-size="14" font-weight="bold" lengthAdjust="spacing" textLength="93" x="565.5" y="829.292">Description</text><text fill="#000000" font-family="sans-serif" font-size="14" lengthAdjust="spacing" textLength="4" x="468.5" y="845.792">&#160;</text><path d="M481,832.5938 L481,835.5938 L473.5,835.5938 L473.5,837.0938 L481,837.0938 L481,840.0938 L485.5,836.2988 L481,832.5938 " fill="#000000" style="stroke:;stroke-width:0.0;stroke-dasharray:;"/><text fill="#000000" font-family="sans-serif" font-size="14" lengthAdjust="spacing" textLength="4" x="486.5" y="845.792">&#160;</text><text fill="#000000" font-family="sans-serif" font-size="14" lengthAdjust="spacing" textLength="170" x="564.5" y="845.5889">Component interaction</text><text fill="#000000" font-family="sans-serif" font-size="14" lengthAdjust="spacing" textLength="4" x="468.5" y="866.7451">&#160;</text><text fill="#FF0000" font-family="sans-serif" font-size="18" lengthAdjust="spacing" textLength="15" x="472.5" y="865.8018">&#8674;</text><text fill="#000000" font-family="sans-serif" font-size="14" lengthAdjust="spacing" textLength="4" x="487.5" y="866.7451">,</text><text fill="#0000FF" font-family="sans-serif" font-size="18" lengthAdjust="spacing" textLength="15" x="495.5" y="865.8018">&#8674;</text><text fill="#000000" font-family="sans-serif" font-size="14" lengthAdjust="spacing" textLength="4" x="510.5" y="866.7451">,</text><text fill="#008000" font-family="sans-serif" font-size="18" lengthAdjust="spacing" textLength="15" x="518.5" y="865.8018">&#8674;</text><text fill="#000000" font-family="sans-serif" font-size="14" lengthAdjust="spacing" textLength="23" x="533.5" y="866.7451">, ...</text><text fill="#000000" font-family="sans-serif" font-size="14" lengthAdjust="spacing" textLength="164" x="564.5" y="862.0889">Operations interaction</text><line style="stroke:#000000;stroke-width:1.0;" x1="468.5" x2="738.5" y1="816.2969" y2="816.2969"/><line style="stroke:#000000;stroke-width:1.0;" x1="468.5" x2="738.5" y1="832.5938" y2="832.5938"/><line style="stroke:#000000;stroke-width:1.0;" x1="468.5" x2="738.5" y1="849.0938" y2="849.0938"/><line style="stroke:#000000;stroke-width:1.0;" x1="468.5" x2="738.5" y1="870.0469" y2="870.0469"/><line style="stroke:#000000;stroke-width:1.0;" x1="468.5" x2="468.5" y1="816.2969" y2="870.0469"/><line style="stroke:#000000;stroke-width:1.0;" x1="560.5" x2="560.5" y1="816.2969" y2="870.0469"/><line style="stroke:#000000;stroke-width:1.0;" x1="738.5" x2="738.5" y1="816.2969" y2="870.0469"/><!--SRC=[ZLLXJzim4FsUNt6YqWGT3QCR6-kwIgXi4n9IgtLy8gXodMjgaTYUxS2wiV- -ivss0J69JpXtr_VUFPyF9ro9CD5ec1DAMkZ1BQv1bsoDnWAJEGZfACj3EaaquxUiGDZxPbHDsHaM5Kgt1t-IGOHHPW3CWjB9trRvZ3aiI-7GLoRN4xbGpEImFsNhKh7y89CpliAyBj7S-9zFPyarLr9fUvDSwrWqvywKCJic3AQudNEvYPsDa_q3s1ikHc8vt-NIrPxFDh5s0oZx9D_S2Hv4NOV0M5LQIUh81j02vRo_IrNUaAbHJd5LxWhcN3SrvqRSDHt4J6xko0ToGcb8qrgdwOXwWqvX4EKdXx_S81nX0DtkIThjmfNEoQkZA-rRpgIIlMYLRVp9P6s5B60fwERgK0NQA4v9WmbXfsc9I-U9ee7GgPXHgc6Bvq3ttjFzCA8eqD1dssLAPF9Uk1MSJSOpi8uaXMdGpB3AmjAeQgieI6awZDIzqTOOw1ZC8pKT0k-nvstSz9su5LBK-zVjPh9I0JCsEQuNEAChGpYRNbZOFpw1hnVdb_RWEJReBCeQ8vS_1RB-CsIUAfCstdt3jFdoy4c4wxNQQ4B3NgxkvJRkRtVRwFzobAWrXRSZs98-eh65ZY1fXOh2upb8V_j4-frW5DsDDcM3sWZOlcxYTMnpt-4Z0BvxrlYnaXDjlVNH2H-DiGQ-mTsefLTUHsn_2i0VFF1t_5cZTQs9ESma9pPXBIsFO395Qti8w7YwmwKNGR1ELRGy8d0y1-ZJDdGpeb2gGd12Vtuw4u9hsU6GbGqidGBenmZAaLuhIEN4Kl2u03CPHliHKU81Xvls2yFMcuVBrd6WtxHVaXTIKR-q2JCP16f5IvJwJ-ZtmnwLhLnx7agaAygJXyzmAIJ2pArf_kdh72qtGdjT3ya336ddq79TbBJ1HaChVkFW-7GqVCMCKVSHTJGyyd7w4sf7yB1RQEr53YqyUfKjjAlN_UCl_QSuXplo6bzU7JRR2yhJD2MbhVz2ZwMIET6YVm00]--></g></svg>