<?xml version="1.0" encoding="us-ascii" standalone="no"?><svg xmlns="http://www.w3.org/2000/svg" xmlns:xlink="http://www.w3.org/1999/xlink" contentStyleType="text/css" height="833px" preserveAspectRatio="none" style="width:1153px;height:833px;background:#FFFFFF;" version="1.1" viewBox="0 0 1153 833" width="1153px" zoomAndPan="magnify"><defs/><g><text fill="#000000" font-family="sans-serif" font-size="14" font-weight="bold" lengthAdjust="spacing" textLength="373" x="386.25" y="27.9951">Payload control start/stop sequence overview</text><rect fill="none" height="266.3281" style="stroke:#000000;stroke-width:1.5;" width="766.5" x="370" y="294.2578"/><rect fill="none" height="104.5313" style="stroke:#000000;stroke-width:1.5;" width="529.5" x="597" y="449.0547"/><line style="stroke:#181818;stroke-width:0.5;stroke-dasharray:5.0,5.0;" x1="69" x2="69" y1="118.5938" y2="752.3828"/><line style="stroke:#181818;stroke-width:0.5;stroke-dasharray:5.0,5.0;" x1="220" x2="220" y1="118.5938" y2="752.3828"/><line style="stroke:#181818;stroke-width:0.5;stroke-dasharray:5.0,5.0;" x1="413" x2="413" y1="118.5938" y2="752.3828"/><line style="stroke:#181818;stroke-width:0.5;stroke-dasharray:5.0,5.0;" x1="658" x2="658" y1="118.5938" y2="752.3828"/><line style="stroke:#181818;stroke-width:0.5;stroke-dasharray:5.0,5.0;" x1="856" x2="856" y1="118.5938" y2="752.3828"/><line style="stroke:#181818;stroke-width:0.5;stroke-dasharray:5.0,5.0;" x1="1062.5" x2="1062.5" y1="118.5938" y2="752.3828"/><text fill="#000000" font-family="sans-serif" font-size="14" lengthAdjust="spacing" textLength="122" x="5" y="115.292">Ground Operator</text><ellipse cx="69" cy="50.7969" fill="#E2E2F0" rx="8" ry="8" style="stroke:#181818;stroke-width:0.5;"/><path d="M69,58.7969 L69,85.7969 M56,66.7969 L82,66.7969 M69,85.7969 L56,100.7969 M69,85.7969 L82,100.7969 " fill="none" style="stroke:#181818;stroke-width:0.5;"/><text fill="#000000" font-family="sans-serif" font-size="14" lengthAdjust="spacing" textLength="122" x="5" y="764.3779">Ground Operator</text><ellipse cx="69" cy="776.1797" fill="#E2E2F0" rx="8" ry="8" style="stroke:#181818;stroke-width:0.5;"/><path d="M69,784.1797 L69,811.1797 M56,792.1797 L82,792.1797 M69,811.1797 L56,826.1797 M69,811.1797 L82,826.1797 " fill="none" style="stroke:#181818;stroke-width:0.5;"/><rect fill="#E2E2F0" height="30.2969" rx="2.5" ry="2.5" style="stroke:#181818;stroke-width:0.5;" width="146" x="147" y="87.2969"/><text fill="#000000" font-family="sans-serif" font-size="14" lengthAdjust="spacing" textLength="132" x="154" y="107.292">payload_scheduler</text><rect fill="#E2E2F0" height="30.2969" rx="2.5" ry="2.5" style="stroke:#181818;stroke-width:0.5;" width="146" x="147" y="751.3828"/><text fill="#000000" font-family="sans-serif" font-size="14" lengthAdjust="spacing" textLength="132" x="154" y="771.3779">payload_scheduler</text><rect fill="#E2E2F0" height="30.2969" rx="2.5" ry="2.5" style="stroke:#181818;stroke-width:0.5;" width="66" x="380" y="87.2969"/><text fill="#000000" font-family="sans-serif" font-size="14" lengthAdjust="spacing" textLength="52" x="387" y="107.292">conops</text><rect fill="#E2E2F0" height="30.2969" rx="2.5" ry="2.5" style="stroke:#181818;stroke-width:0.5;" width="66" x="380" y="751.3828"/><text fill="#000000" font-family="sans-serif" font-size="14" lengthAdjust="spacing" textLength="52" x="387" y="771.3779">conops</text><rect fill="#E2E2F0" height="30.2969" rx="2.5" ry="2.5" style="stroke:#181818;stroke-width:0.5;" width="102" x="607" y="87.2969"/><text fill="#000000" font-family="sans-serif" font-size="14" lengthAdjust="spacing" textLength="88" x="614" y="107.292">payload_ctrl</text><rect fill="#E2E2F0" height="30.2969" rx="2.5" ry="2.5" style="stroke:#181818;stroke-width:0.5;" width="102" x="607" y="751.3828"/><text fill="#000000" font-family="sans-serif" font-size="14" lengthAdjust="spacing" textLength="88" x="614" y="771.3779">payload_ctrl</text><rect fill="#E2E2F0" height="30.2969" rx="2.5" ry="2.5" style="stroke:#181818;stroke-width:0.5;" width="46" x="833" y="87.2969"/><text fill="#000000" font-family="sans-serif" font-size="14" lengthAdjust="spacing" textLength="32" x="840" y="107.292">aocs</text><rect fill="#E2E2F0" height="30.2969" rx="2.5" ry="2.5" style="stroke:#181818;stroke-width:0.5;" width="46" x="833" y="751.3828"/><text fill="#000000" font-family="sans-serif" font-size="14" lengthAdjust="spacing" textLength="32" x="840" y="771.3779">aocs</text><rect fill="#E2E2F0" height="30.2969" rx="2.5" ry="2.5" style="stroke:#181818;stroke-width:0.5;" width="107" x="1009.5" y="87.2969"/><text fill="#000000" font-family="sans-serif" font-size="14" lengthAdjust="spacing" textLength="93" x="1016.5" y="107.292">user_payload</text><rect fill="#E2E2F0" height="30.2969" rx="2.5" ry="2.5" style="stroke:#181818;stroke-width:0.5;" width="107" x="1009.5" y="751.3828"/><text fill="#000000" font-family="sans-serif" font-size="14" lengthAdjust="spacing" textLength="93" x="1016.5" y="771.3779">user_payload</text><line style="stroke:#181818;stroke-width:1.0;" x1="218" x2="208" y1="149.7266" y2="145.7266"/><line style="stroke:#181818;stroke-width:1.0;" x1="218" x2="208" y1="149.7266" y2="153.7266"/><line style="stroke:#181818;stroke-width:1.0;" x1="69" x2="219" y1="149.7266" y2="149.7266"/><text fill="#000000" font-family="sans-serif" font-size="13" lengthAdjust="spacing" textLength="127" x="76" y="144.6606">upload schedule file</text><line style="stroke:#181818;stroke-width:1.0;" x1="220" x2="262" y1="178.8594" y2="178.8594"/><line style="stroke:#181818;stroke-width:1.0;" x1="262" x2="262" y1="178.8594" y2="191.8594"/><line style="stroke:#181818;stroke-width:1.0;" x1="221" x2="262" y1="191.8594" y2="191.8594"/><polygon fill="#181818" points="231,187.8594,221,191.8594,231,195.8594,227,191.8594" style="stroke:#181818;stroke-width:1.0;"/><text fill="#000000" font-family="sans-serif" font-size="13" lengthAdjust="spacing" textLength="119" x="227" y="173.7935">load new schedule</text><rect fill="#EEEEEE" height="3" style="stroke:#EEEEEE;stroke-width:1.0;" width="1146.5" x="0" y="220.4258"/><line style="stroke:#000000;stroke-width:1.0;" x1="0" x2="1146.5" y1="220.4258" y2="220.4258"/><line style="stroke:#000000;stroke-width:1.0;" x1="0" x2="1146.5" y1="223.4258" y2="223.4258"/><rect fill="#EEEEEE" height="23.1328" style="stroke:#000000;stroke-width:2.0;" width="410" x="368.25" y="209.8594"/><text fill="#000000" font-family="sans-serif" font-size="13" font-weight="bold" lengthAdjust="spacing" textLength="391" x="374.25" y="225.9263">schedule entry start time reached for payload #pid</text><polygon fill="#181818" points="401,275.2578,411,279.2578,401,283.2578,405,279.2578" style="stroke:#181818;stroke-width:1.0;"/><line style="stroke:#181818;stroke-width:1.0;" x1="220" x2="407" y1="279.2578" y2="279.2578"/><text fill="#000000" font-family="sans-serif" font-size="13" lengthAdjust="spacing" textLength="169" x="227" y="259.0591">indicate that #pid payload</text><text fill="#000000" font-family="sans-serif" font-size="13" lengthAdjust="spacing" textLength="113" x="227" y="274.1919">shall be activated</text><path d="M370,294.2578 L442,294.2578 L442,301.3906 L432,311.3906 L370,311.3906 L370,294.2578 " fill="#EEEEEE" style="stroke:#000000;stroke-width:1.5;"/><rect fill="none" height="266.3281" style="stroke:#000000;stroke-width:1.5;" width="766.5" x="370" y="294.2578"/><text fill="#000000" font-family="sans-serif" font-size="13" font-weight="bold" lengthAdjust="spacing" textLength="27" x="385" y="307.3247">opt</text><text fill="#000000" font-family="sans-serif" font-size="11" font-weight="bold" lengthAdjust="spacing" textLength="112" x="457" y="306.4683">[ConOps state is</text><text fill="#000000" font-family="sans-serif" font-size="11" font-weight="bold" lengthAdjust="spacing" textLength="24" x="573" y="306.4683">Idle</text><text fill="#000000" font-family="sans-serif" font-size="11" font-weight="bold" lengthAdjust="spacing" textLength="271" x="601" y="306.4683">and operational conditions are fulfilled]</text><polygon fill="#181818" points="646,328.5234,656,332.5234,646,336.5234,650,332.5234" style="stroke:#181818;stroke-width:1.0;"/><line style="stroke:#181818;stroke-width:1.0;" x1="413" x2="652" y1="332.5234" y2="332.5234"/><text fill="#000000" font-family="sans-serif" font-size="13" lengthAdjust="spacing" textLength="205" x="420" y="327.4575">request payload #pid activation</text><polygon fill="#181818" points="844,372.7891,854,376.7891,844,380.7891,848,376.7891" style="stroke:#181818;stroke-width:1.0;"/><line style="stroke:#181818;stroke-width:1.0;" x1="658" x2="850" y1="376.7891" y2="376.7891"/><text fill="#000000" font-family="sans-serif" font-size="13" lengthAdjust="spacing" textLength="170" x="665" y="356.5903">activate pointing mode for</text><text fill="#000000" font-family="sans-serif" font-size="13" lengthAdjust="spacing" textLength="85" x="669" y="371.7231">#pid payload</text><line style="stroke:#181818;stroke-width:1.0;" x1="856" x2="898" y1="421.0547" y2="421.0547"/><line style="stroke:#181818;stroke-width:1.0;" x1="898" x2="898" y1="421.0547" y2="434.0547"/><line style="stroke:#181818;stroke-width:1.0;" x1="857" x2="898" y1="434.0547" y2="434.0547"/><polygon fill="#181818" points="867,430.0547,857,434.0547,867,438.0547,863,434.0547" style="stroke:#181818;stroke-width:1.0;"/><text fill="#000000" font-family="sans-serif" font-size="13" lengthAdjust="spacing" textLength="103" x="863" y="400.856">start monitoring</text><text fill="#000000" font-family="sans-serif" font-size="13" lengthAdjust="spacing" textLength="130" x="863" y="415.9888">pointing parameters</text><path d="M597,449.0547 L669,449.0547 L669,456.1875 L659,466.1875 L597,466.1875 L597,449.0547 " fill="#EEEEEE" style="stroke:#000000;stroke-width:1.5;"/><rect fill="none" height="104.5313" style="stroke:#000000;stroke-width:1.5;" width="529.5" x="597" y="449.0547"/><text fill="#000000" font-family="sans-serif" font-size="13" font-weight="bold" lengthAdjust="spacing" textLength="27" x="612" y="462.1216">opt</text><text fill="#000000" font-family="sans-serif" font-size="11" font-weight="bold" lengthAdjust="spacing" textLength="188" x="684" y="461.2651">[pointing mode established]</text><line style="stroke:#181818;stroke-width:1.0;" x1="659" x2="669" y1="487.3203" y2="483.3203"/><line style="stroke:#181818;stroke-width:1.0;" x1="659" x2="669" y1="487.3203" y2="491.3203"/><line style="stroke:#181818;stroke-width:1.0;" x1="658" x2="855" y1="487.3203" y2="487.3203"/><text fill="#000000" font-family="sans-serif" font-size="13" lengthAdjust="spacing" textLength="174" x="675" y="482.2544">notify pointing mode ready</text><polygon fill="#181818" points="1051,512.4531,1061,516.4531,1051,520.4531,1055,516.4531" style="stroke:#181818;stroke-width:1.0;"/><line style="stroke:#181818;stroke-width:1.0;" x1="658" x2="1057" y1="516.4531" y2="516.4531"/><text fill="#000000" font-family="sans-serif" font-size="13" font-weight="bold" lengthAdjust="spacing" textLength="230" x="665" y="511.3872">if_payload_control.h::start(...)</text><line style="stroke:#181818;stroke-width:1.0;" x1="659" x2="669" y1="545.5859" y2="541.5859"/><line style="stroke:#181818;stroke-width:1.0;" x1="659" x2="669" y1="545.5859" y2="549.5859"/><line style="stroke:#181818;stroke-width:1.0;" x1="658" x2="1062" y1="545.5859" y2="545.5859"/><text fill="#000000" font-family="sans-serif" font-size="13" font-weight="bold" lengthAdjust="spacing" textLength="381" x="675" y="540.52">p_payload_event({ #pid, PL_STATE_STARTED, 0 })</text><rect fill="#EEEEEE" height="3" style="stroke:#EEEEEE;stroke-width:1.0;" width="1146.5" x="0" y="588.1523"/><line style="stroke:#000000;stroke-width:1.0;" x1="0" x2="1146.5" y1="588.1523" y2="588.1523"/><line style="stroke:#000000;stroke-width:1.0;" x1="0" x2="1146.5" y1="591.1523" y2="591.1523"/><rect fill="#EEEEEE" height="23.1328" style="stroke:#000000;stroke-width:2.0;" width="397" x="374.75" y="577.5859"/><text fill="#000000" font-family="sans-serif" font-size="13" font-weight="bold" lengthAdjust="spacing" textLength="378" x="380.75" y="593.6528">schedule entry end time reached for payload #pid</text><polygon fill="#181818" points="401,642.9844,411,646.9844,401,650.9844,405,646.9844" style="stroke:#181818;stroke-width:1.0;"/><line style="stroke:#181818;stroke-width:1.0;" x1="220" x2="407" y1="646.9844" y2="646.9844"/><text fill="#000000" font-family="sans-serif" font-size="13" lengthAdjust="spacing" textLength="169" x="227" y="626.7856">indicate that #pid payload</text><text fill="#000000" font-family="sans-serif" font-size="13" lengthAdjust="spacing" textLength="129" x="227" y="641.9185">shall be deactivated</text><polygon fill="#181818" points="646,672.1172,656,676.1172,646,680.1172,650,676.1172" style="stroke:#181818;stroke-width:1.0;"/><line style="stroke:#181818;stroke-width:1.0;" x1="413" x2="652" y1="676.1172" y2="676.1172"/><text fill="#000000" font-family="sans-serif" font-size="13" lengthAdjust="spacing" textLength="221" x="420" y="671.0513">request payload #pid deactivation</text><polygon fill="#181818" points="1051,701.25,1061,705.25,1051,709.25,1055,705.25" style="stroke:#181818;stroke-width:1.0;"/><line style="stroke:#181818;stroke-width:1.0;" x1="658" x2="1057" y1="705.25" y2="705.25"/><text fill="#000000" font-family="sans-serif" font-size="13" font-weight="bold" lengthAdjust="spacing" textLength="225" x="665" y="700.1841">if_payload_control.h::stop(...)</text><line style="stroke:#181818;stroke-width:1.0;" x1="659" x2="669" y1="734.3828" y2="730.3828"/><line style="stroke:#181818;stroke-width:1.0;" x1="659" x2="669" y1="734.3828" y2="738.3828"/><line style="stroke:#181818;stroke-width:1.0;" x1="658" x2="1062" y1="734.3828" y2="734.3828"/><text fill="#000000" font-family="sans-serif" font-size="13" font-weight="bold" lengthAdjust="spacing" textLength="381" x="675" y="729.3169">p_payload_event({ #pid, PL_STATE_STOPPED, 0 })</text><!--SRC=[hPBVQzim4CVVzLSStKiBNRfdqmIAMy9WOB4aRu6WM9T6e4YQT4u9O__xJdBYu5BO67knZU_xlH-VEp9a4QGwMQyqjDvHz1OIgKWFYNo0X3ywT2s2Fs8y6dmJGhNa8zpCe- -SXYPWLFpZ1bI2UIC2MqrhWd84eS-xIUqUTMSnPerSZ3HSquUK0_N7vfQYBRvw55Q-BQwdfXudx1B6pTcS1IifnBo1pxCPbwwW2oLmQGbsng8GSi624YzHXs-3GeZfz2f79dJg0G6P0q94bMEmOoQNgf-2qJ2TdhFMJGN6QTCgGg2zeZv-5gzTsYjhOOl0OCsHHLe87mXgxnecmxNOPn8yRcTVjSN7X-qC59FtXRpnJjbCKPlypKmY3zLPdijofhefWzKLDygRJ3HkyboIZKBMMPbnLaCd4BnnPDmh7Bp6FEFQZReN8XkknXxCmJl39y6-jHioy8xK0GbZwiSRf-RErDQQn2WlAVksdIUpExrJCtHzEdUyabL6OtQRuMBwCvxigwhqSpkPJEx4IWuvMHu6DHvvfxS_orZt8Bzj5ikdvKj-Vb- -FD_35_Xr9x3mfk7zmKtaqF- -28tNc_Z39WTftkNVeV7X7yaqKbx8_0O0]--></g></svg>