<?xml version="1.0" encoding="us-ascii" standalone="no"?><svg xmlns="http://www.w3.org/2000/svg" xmlns:xlink="http://www.w3.org/1999/xlink" contentStyleType="text/css" height="1035px" preserveAspectRatio="none" style="width:777px;height:1035px;background:#FFFFFF;" version="1.1" viewBox="0 0 777 1035" width="777px" zoomAndPan="magnify"><defs/><g><text fill="#000000" font-family="sans-serif" font-size="14" font-weight="bold" lengthAdjust="spacing" textLength="339" x="212.25" y="22.9951">OBC payload control mechanism overview</text><!--cluster Ground Segment--><g id="cluster_Ground Segment"><path d="M292,901.2969 L428,901.2969 A3.75,3.75 0 0 1 430.5,903.7969 L437.5,923.5938 L438,923.5938 A2.5,2.5 0 0 1 440.5,926.0938 L440.5,1025.7969 A2.5,2.5 0 0 1 438,1028.2969 L292,1028.2969 A2.5,2.5 0 0 1 289.5,1025.7969 L289.5,903.7969 A2.5,2.5 0 0 1 292,901.2969 " fill="none" style="stroke:#000000;stroke-width:1.5;"/><line style="stroke:#000000;stroke-width:1.5;" x1="289.5" x2="437.5" y1="923.5938" y2="923.5938"/><text fill="#000000" font-family="sans-serif" font-size="14" font-weight="bold" lengthAdjust="spacing" textLength="135" x="293.5" y="916.292">Ground Segment</text></g><!--cluster Satellite--><g id="cluster_Satellite"><path d="M97,43.2969 L167,43.2969 A3.75,3.75 0 0 1 169.5,45.7969 L176.5,65.5938 L768,65.5938 A2.5,2.5 0 0 1 770.5,68.0938 L770.5,641.7969 A2.5,2.5 0 0 1 768,644.2969 L97,644.2969 A2.5,2.5 0 0 1 94.5,641.7969 L94.5,45.7969 A2.5,2.5 0 0 1 97,43.2969 " fill="none" style="stroke:#000000;stroke-width:1.5;"/><line style="stroke:#000000;stroke-width:1.5;" x1="94.5" x2="176.5" y1="65.5938" y2="65.5938"/><text fill="#000000" font-family="sans-serif" font-size="14" font-weight="bold" lengthAdjust="spacing" textLength="69" x="98.5" y="58.292">Satellite</text></g><!--entity op--><g id="elem_op"><ellipse cx="364.5" cy="944.7969" fill="#F1F1F1" rx="8" ry="8" style="stroke:#181818;stroke-width:0.5;"/><path d="M364.5,952.7969 L364.5,979.7969 M351.5,960.7969 L377.5,960.7969 M364.5,979.7969 L351.5,994.7969 M364.5,979.7969 L377.5,994.7969 " fill="none" style="stroke:#181818;stroke-width:0.5;"/><text fill="#000000" font-family="sans-serif" font-size="14" lengthAdjust="spacing" textLength="66" x="331.5" y="1009.292">Operator</text></g><!--entity PS--><g id="elem_PS"><rect fill="#F1F1F1" height="46.2969" rx="2.5" ry="2.5" style="stroke:#181818;stroke-width:0.5;" width="172" x="175.5" y="582.2969"/><rect fill="#F1F1F1" height="10" style="stroke:#181818;stroke-width:0.5;" width="15" x="327.5" y="587.2969"/><rect fill="#F1F1F1" height="2" style="stroke:#181818;stroke-width:0.5;" width="4" x="325.5" y="589.2969"/><rect fill="#F1F1F1" height="2" style="stroke:#181818;stroke-width:0.5;" width="4" x="325.5" y="593.2969"/><text fill="#000000" font-family="sans-serif" font-size="14" lengthAdjust="spacing" textLength="132" x="190.5" y="615.292">payload_scheduler</text></g><!--entity conops--><g id="elem_conops"><rect fill="#F1F1F1" height="46.2969" rx="2.5" ry="2.5" style="stroke:#181818;stroke-width:0.5;" width="92" x="215.5" y="459.2969"/><rect fill="#F1F1F1" height="10" style="stroke:#181818;stroke-width:0.5;" width="15" x="287.5" y="464.2969"/><rect fill="#F1F1F1" height="2" style="stroke:#181818;stroke-width:0.5;" width="4" x="285.5" y="466.2969"/><rect fill="#F1F1F1" height="2" style="stroke:#181818;stroke-width:0.5;" width="4" x="285.5" y="470.2969"/><text fill="#000000" font-family="sans-serif" font-size="14" lengthAdjust="spacing" textLength="52" x="230.5" y="492.292">conops</text></g><!--entity aocs--><g id="elem_aocs"><rect fill="#F1F1F1" height="46.2969" rx="2.5" ry="2.5" style="stroke:#181818;stroke-width:0.5;" width="72" x="497.5" y="459.2969"/><rect fill="#F1F1F1" height="10" style="stroke:#181818;stroke-width:0.5;" width="15" x="549.5" y="464.2969"/><rect fill="#F1F1F1" height="2" style="stroke:#181818;stroke-width:0.5;" width="4" x="547.5" y="466.2969"/><rect fill="#F1F1F1" height="2" style="stroke:#181818;stroke-width:0.5;" width="4" x="547.5" y="470.2969"/><text fill="#000000" font-family="sans-serif" font-size="14" lengthAdjust="spacing" textLength="32" x="512.5" y="492.292">aocs</text></g><!--entity PC--><g id="elem_PC"><rect fill="#F1F1F1" height="46.2969" rx="2.5" ry="2.5" style="stroke:#181818;stroke-width:0.5;" width="128" x="263.5" y="336.2969"/><rect fill="#F1F1F1" height="10" style="stroke:#181818;stroke-width:0.5;" width="15" x="371.5" y="341.2969"/><rect fill="#F1F1F1" height="2" style="stroke:#181818;stroke-width:0.5;" width="4" x="369.5" y="343.2969"/><rect fill="#F1F1F1" height="2" style="stroke:#181818;stroke-width:0.5;" width="4" x="369.5" y="347.2969"/><text fill="#000000" font-family="sans-serif" font-size="14" lengthAdjust="spacing" textLength="88" x="278.5" y="369.292">payload_ctrl</text></g><!--entity UP--><g id="elem_UP"><rect fill="#F1F1F1" height="46.2969" rx="2.5" ry="2.5" style="stroke:#181818;stroke-width:0.5;" width="133" x="261" y="78.2969"/><rect fill="#F1F1F1" height="10" style="stroke:#181818;stroke-width:0.5;" width="15" x="374" y="83.2969"/><rect fill="#F1F1F1" height="2" style="stroke:#181818;stroke-width:0.5;" width="4" x="372" y="85.2969"/><rect fill="#F1F1F1" height="2" style="stroke:#181818;stroke-width:0.5;" width="4" x="372" y="89.2969"/><text fill="#000000" font-family="sans-serif" font-size="14" lengthAdjust="spacing" textLength="93" x="276" y="111.292">user_payload</text></g><!--entity if_pc--><g id="elem_if_pc"><ellipse cx="327.5" cy="230.2969" fill="#F1F1F1" rx="8" ry="8" style="stroke:#181818;stroke-width:0.5;"/><text fill="#000000" font-family="sans-serif" font-size="14" font-weight="bold" lengthAdjust="spacing" textLength="164" x="245.5" y="260.292">if_payload_control.h</text></g><g id="elem_GMN21"><path d="M6,691.2969 L6,746.6953 A0,0 0 0 0 6,746.6953 L311,746.6953 A0,0 0 0 0 311,746.6953 L311,701.2969 L301,691.2969 L187.167,691.2969 L241.151,628.3259 L179.167,691.2969 L6,691.2969 A0,0 0 0 0 6,691.2969 " fill="#FEFFDD" style="stroke:#181818;stroke-width:0.5;"/><path d="M301,691.2969 L301,701.2969 L311,701.2969 L301,691.2969 " fill="#FEFFDD" style="stroke:#181818;stroke-width:0.5;"/><text fill="#000000" font-family="sans-serif" font-size="13" font-style="italic" lengthAdjust="spacing" textLength="284" x="12" y="708.3638">A full on-board schedule can be loaded as a</text><text fill="#000000" font-family="sans-serif" font-size="13" font-style="italic" lengthAdjust="spacing" textLength="276" x="12" y="723.4966">binary file. Individual schedule entries can</text><text fill="#000000" font-family="sans-serif" font-size="13" font-style="italic" lengthAdjust="spacing" textLength="251" x="12" y="738.6294">be added via a FIDL command as well.</text></g><!--reverse link PS to op--><g id="link_PS_op"><path d="M288.286,632.4509 C302.649,648.1279 319.252,669.2539 328.5,691.2969 C363.062,773.6739 366.747,880.5349 365.94,936.0779 " fill="none" id="PS-backto-op" style="stroke:#181818;stroke-width:1.0;stroke-dasharray:7.0,7.0;"/><polygon fill="#181818" points="284.688,628.5859,287.8906,637.8995,288.0941,632.2463,293.7473,632.4497,284.688,628.5859" style="stroke:#181818;stroke-width:1.0;"/><text fill="#000000" font-family="sans-serif" font-size="13" lengthAdjust="spacing" textLength="45" x="367" y="789.3638">update</text><text fill="#000000" font-family="sans-serif" font-size="13" lengthAdjust="spacing" textLength="58" x="360.5" y="804.4966">on-board</text><text fill="#000000" font-family="sans-serif" font-size="13" lengthAdjust="spacing" textLength="57" x="361" y="819.6294">schedule</text></g><!--reverse link conops to PS--><g id="link_conops_PS"><path d="M261.5,510.5289 C261.5,532.1789 261.5,562.0779 261.5,582.2439 " fill="none" id="conops-backto-PS" style="stroke:#181818;stroke-width:1.0;stroke-dasharray:7.0,7.0;"/><polygon fill="#181818" points="261.5,505.4899,257.5,514.4899,261.5,510.4899,265.5,514.4899,261.5,505.4899" style="stroke:#181818;stroke-width:1.0;"/><text fill="#000000" font-family="sans-serif" font-size="13" lengthAdjust="spacing" textLength="147" x="262.5" y="548.3638">notify scheduled event</text></g><!--link conops to PC--><g id="link_conops_PC"><path d="M273.529,459.2439 C284.622,438.9069 301.113,408.6739 312.944,386.9829 " fill="none" id="conops-to-PC" style="stroke:#181818;stroke-width:1.0;stroke-dasharray:7.0,7.0;"/><polygon fill="#181818" points="315.395,382.4899,307.574,388.4759,313.0009,386.8795,314.5974,392.3064,315.395,382.4899" style="stroke:#181818;stroke-width:1.0;"/><text fill="#000000" font-family="sans-serif" font-size="13" lengthAdjust="spacing" textLength="164" x="298.5" y="425.3638">trigger payload activation</text></g><!--link PC to conops--><g id="link_PC_conops"><path d="M263.303,369.7379 C215.324,378.2619 155.536,392.5099 140.5,412.2969 C117.607,442.4239 167.902,461.4999 210.47,471.7789 " fill="none" id="PC-to-conops" style="stroke:#181818;stroke-width:1.0;stroke-dasharray:7.0,7.0;"/><polygon fill="#181818" points="215.353,472.9289,207.5094,466.9726,210.4861,471.7829,205.6758,474.7596,215.353,472.9289" style="stroke:#181818;stroke-width:1.0;"/><text fill="#000000" font-family="sans-serif" font-size="13" lengthAdjust="spacing" textLength="140" x="141.5" y="425.3638">notify payload events</text></g><!--reverse link if_pc to PC--><g id="link_if_pc_PC"><path d="M327.5,244.6649 C327.5,266.3799 327.5,309.5449 327.5,335.9749 " fill="none" id="if_pc-backto-PC" style="stroke:#181818;stroke-width:1.0;"/><polygon fill="#181818" points="327.5,239.6299,323.5,248.6299,327.5,244.6299,331.5,248.6299,327.5,239.6299" style="stroke:#181818;stroke-width:1.0;"/><text fill="#000000" font-family="sans-serif" font-size="13" lengthAdjust="spacing" textLength="162" x="328.5" y="302.3638">trigger payload operation</text></g><!--link PC to aocs--><g id="link_PC_aocs"><path d="M391.642,376.0359 C417.796,384.2849 447.469,396.1139 471.5,412.2969 C488.327,423.6289 503.606,440.5149 514.786,454.7459 " fill="none" id="PC-to-aocs" style="stroke:#181818;stroke-width:1.0;stroke-dasharray:7.0,7.0;"/><polygon fill="#181818" points="518.121,459.0689,515.7901,449.4998,515.0667,455.1102,509.4562,454.3868,518.121,459.0689" style="stroke:#181818;stroke-width:1.0;"/><text fill="#000000" font-family="sans-serif" font-size="13" lengthAdjust="spacing" textLength="219" x="491.5" y="425.3638">trigger and monitor AOCS pointing</text></g><!--link UP to if_pc--><g id="link_UP_if_pc"><path d="M327.5,124.4189 C327.5,153.1299 327.5,201.8299 327.5,221.0989 " fill="none" id="UP-if_pc" style="stroke:#181818;stroke-width:1.0;"/><text fill="#000000" font-family="sans-serif" font-size="13" font-style="italic" lengthAdjust="spacing" textLength="24" x="328.5" y="167.3638">1..n</text></g><!--SRC=[RP91Q-Cm48Nl-XL3Jkt1Wbv3CNHJMWeB2OIUqXB6rjWHAsk4B3k4PV_xZkmuxQ4dOyytyzwySRB94Mn_RI3WnJ4QgDcdo0uwga_eRTy1ZnH7IsUb0jP_i2LOlKOUl84zjHtvj8A_QhqD535nN0Fsm47z-uRlCP5pDb4c3rUbOr-Vo0oEucTksUtLGRGvz9_gW5pdnqBMARePsgZ3q5CyNYlJn_UTkhk7rMDLskPuQvdNqATLHdAXpfOuWDP3qBeKGLZ348nu-_3iYuencW-_k59AW8oMCDiIsdEopGKMn02DihwwrgUX6y5Ij6rByHOfricEc2nx9VLY24KvE_g1vId6Awf_45_0IRfVg3cnR_DGpjEnjt8HUDfkzX3O-cHzgzvtK1W- - -BcuT6M3rfxfKI2eEAKMAxUv9D8wGcQmJbO4hfj3pLwg0Yo6ub2KiQCLzPZl41Z7MbuyyQErWpeljh4ThJKv_Q99q2J1umM0U7bxVctxDnrUG6PUPOVHokIbspkFm00]--></g></svg>