<svg xmlns="http://www.w3.org/2000/svg" xmlns:xlink="http://www.w3.org/1999/xlink" contentStyleType="text/css" height="566px" preserveAspectRatio="none" style="width:381px;height:566px;background:#FFFFFF;" version="1.1" viewBox="0 0 381 566" width="381px" zoomAndPan="magnify"><defs/><g><text fill="#000000" font-family="sans-serif" font-size="14" font-weight="bold" lengthAdjust="spacing" textLength="227" x="75.75" y="32.9951">State change sequence step</text><ellipse cx="189.5" cy="57.2969" fill="#222222" rx="10" ry="10" style="stroke:#222222;stroke-width:1.0;"/><rect fill="#F1F1F1" height="33.9688" rx="12.5" ry="12.5" style="stroke:#181818;stroke-width:0.5;" width="101" x="139" y="141.2656"/><text fill="#000000" font-family="sans-serif" font-size="12" lengthAdjust="spacing" textLength="81" x="149" y="162.4043">Check action</text><rect fill="#F1F1F1" height="33.9688" rx="12.5" ry="12.5" style="stroke:#181818;stroke-width:0.5;" width="84" x="147.5" y="195.2344"/><text fill="#000000" font-family="sans-serif" font-size="12" lengthAdjust="spacing" textLength="64" x="157.5" y="216.373">Set action</text><rect fill="#F1F1F1" height="33.9688" rx="12.5" ry="12.5" style="stroke:#181818;stroke-width:0.5;" width="264" x="57.5" y="297.6055"/><text fill="#000000" font-family="sans-serif" font-size="12" lengthAdjust="spacing" textLength="244" x="67.5" y="318.7441">Execute the next step in the sequence</text><ellipse cx="189.5" cy="371.0898" fill="none" rx="11" ry="11" style="stroke:#222222;stroke-width:1.0;"/><ellipse cx="189.5" cy="371.0898" fill="#222222" rx="6" ry="6" style="stroke:#222222;stroke-width:1.0;"/><polygon fill="#F1F1F1" points="132.5,249.2031,246.5,249.2031,258.5,261.2031,246.5,273.2031,132.5,273.2031,120.5,261.2031,132.5,249.2031" style="stroke:#181818;stroke-width:0.5;"/><text fill="#000000" font-family="sans-serif" font-size="11" lengthAdjust="spacing" textLength="20" x="193.5" y="283.4136">yes</text><text fill="#000000" font-family="sans-serif" font-size="11" lengthAdjust="spacing" textLength="114" x="132.5" y="265.0112">Change successful?</text><text fill="#000000" font-family="sans-serif" font-size="11" lengthAdjust="spacing" textLength="14" x="258.5" y="258.6089">no</text><rect fill="#F1F1F1" height="33.9688" rx="12.5" ry="12.5" style="stroke:#181818;stroke-width:0.5;" width="119" x="130" y="87.2969"/><text fill="#000000" font-family="sans-serif" font-size="12" lengthAdjust="spacing" textLength="95" x="144" y="108.4355">Sequence step</text><polygon fill="#F1F1F1" points="133.5,424.0898,245.5,424.0898,257.5,436.0898,245.5,448.0898,133.5,448.0898,121.5,436.0898,133.5,424.0898" style="stroke:#181818;stroke-width:0.5;"/><text fill="#000000" font-family="sans-serif" font-size="11" lengthAdjust="spacing" textLength="20" x="193.5" y="458.3003">yes</text><text fill="#000000" font-family="sans-serif" font-size="11" lengthAdjust="spacing" textLength="58" x="133.5" y="439.8979">Attempted</text><text fill="#000000" font-family="sans-serif" font-size="11" font-weight="bold" lengthAdjust="spacing" textLength="8" x="195.5" y="439.8979">3</text><text fill="#000000" font-family="sans-serif" font-size="11" lengthAdjust="spacing" textLength="38" x="207.5" y="439.8979">times?</text><text fill="#000000" font-family="sans-serif" font-size="11" lengthAdjust="spacing" textLength="14" x="257.5" y="433.4956">no</text><rect fill="#F1F1F1" height="33.9688" rx="12.5" ry="12.5" style="stroke:#181818;stroke-width:0.5;" width="357" x="11" y="479.8003"/><text fill="#000000" font-family="sans-serif" font-size="12" lengthAdjust="spacing" textLength="22" x="21" y="500.939">Exit</text><text fill="#000000" font-family="sans-serif" font-size="12" font-weight="bold" lengthAdjust="spacing" textLength="136" x="47" y="500.939">StateChange State</text><text fill="#000000" font-family="sans-serif" font-size="12" lengthAdjust="spacing" textLength="93" x="187" y="500.939">and invoke the</text><text fill="#000000" font-family="sans-serif" font-size="12" font-weight="bold" lengthAdjust="spacing" textLength="74" x="284" y="500.939">FDIR State</text><ellipse cx="189.5" cy="544.769" fill="none" rx="11" ry="11" style="stroke:#222222;stroke-width:1.0;"/><ellipse cx="189.5" cy="544.769" fill="#222222" rx="6" ry="6" style="stroke:#222222;stroke-width:1.0;"/><line style="stroke:#181818;stroke-width:1.0;" x1="189.5" x2="189.5" y1="175.2344" y2="195.2344"/><polygon fill="#181818" points="185.5,185.2344,189.5,195.2344,193.5,185.2344,189.5,189.2344" style="stroke:#181818;stroke-width:1.0;"/><line style="stroke:#181818;stroke-width:1.0;" x1="189.5" x2="189.5" y1="331.5742" y2="360.0898"/><polygon fill="#181818" points="185.5,350.0898,189.5,360.0898,193.5,350.0898,189.5,354.0898" style="stroke:#181818;stroke-width:1.0;"/><line style="stroke:#181818;stroke-width:1.0;" x1="189.5" x2="189.5" y1="273.2031" y2="297.6055"/><polygon fill="#181818" points="185.5,287.6055,189.5,297.6055,193.5,287.6055,189.5,291.6055" style="stroke:#181818;stroke-width:1.0;"/><line style="stroke:#181818;stroke-width:1.0;" x1="258.5" x2="331.5" y1="261.2031" y2="261.2031"/><polygon fill="#181818" points="327.5,330.0898,331.5,340.0898,335.5,330.0898,331.5,334.0898" style="stroke:#181818;stroke-width:1.0;"/><line style="stroke:#181818;stroke-width:1.0;" x1="331.5" x2="331.5" y1="261.2031" y2="404.0898"/><line style="stroke:#181818;stroke-width:1.0;" x1="331.5" x2="189.5" y1="404.0898" y2="404.0898"/><line style="stroke:#181818;stroke-width:1.0;" x1="189.5" x2="189.5" y1="404.0898" y2="424.0898"/><polygon fill="#181818" points="185.5,414.0898,189.5,424.0898,193.5,414.0898,189.5,418.0898" style="stroke:#181818;stroke-width:1.0;"/><line style="stroke:#181818;stroke-width:1.0;" x1="189.5" x2="189.5" y1="229.2031" y2="249.2031"/><polygon fill="#181818" points="185.5,239.2031,189.5,249.2031,193.5,239.2031,189.5,243.2031" style="stroke:#181818;stroke-width:1.0;"/><line style="stroke:#181818;stroke-width:1.0;" x1="189.5" x2="189.5" y1="121.2656" y2="141.2656"/><polygon fill="#181818" points="185.5,131.2656,189.5,141.2656,193.5,131.2656,189.5,135.2656" style="stroke:#181818;stroke-width:1.0;"/><line style="stroke:#181818;stroke-width:1.0;" x1="257.5" x2="355.5" y1="436.0898" y2="436.0898"/><polygon fill="#181818" points="351.5,272.6289,355.5,262.6289,359.5,272.6289,355.5,268.6289" style="stroke:#181818;stroke-width:1.0;"/><line style="stroke:#181818;stroke-width:1.0;" x1="355.5" x2="355.5" y1="104.2813" y2="436.0898"/><line style="stroke:#181818;stroke-width:1.0;" x1="355.5" x2="249" y1="104.2813" y2="104.2813"/><polygon fill="#181818" points="259,100.2813,249,104.2813,259,108.2813,255,104.2813" style="stroke:#181818;stroke-width:1.0;"/><line style="stroke:#181818;stroke-width:1.0;" x1="189.5" x2="189.5" y1="67.2969" y2="87.2969"/><polygon fill="#181818" points="185.5,77.2969,189.5,87.2969,193.5,77.2969,189.5,81.2969" style="stroke:#181818;stroke-width:1.0;"/><line style="stroke:#181818;stroke-width:1.0;" x1="189.5" x2="189.5" y1="448.0898" y2="479.8003"/><polygon fill="#181818" points="185.5,469.8003,189.5,479.8003,193.5,469.8003,189.5,473.8003" style="stroke:#181818;stroke-width:1.0;"/><line style="stroke:#181818;stroke-width:1.0;" x1="189.5" x2="189.5" y1="513.769" y2="533.769"/><polygon fill="#181818" points="185.5,523.769,189.5,533.769,193.5,523.769,189.5,527.769" style="stroke:#181818;stroke-width:1.0;"/><!--SRC=[JOyzKiD034PxdKAblIsTNMIO03Eq-0GxwyzO4qThiZ8ajqSi3aEd__TaOWjui6ZWD4Tz1nTyRD3aWM4bAXOlHdJ1YcWT3_-xFNN76Ud4CPbazNI0_IKoSNFSRsufePHfMmujsmpbveRIKlTyHTgSxJLMNAsUPT5Qk9lqBf5NmbB0ZUQMeADCkn9_pU8lD8zcEA-6aKDu285DpYXEar9tMBFjq1-gc8_LjtV36ljQrD7nd_dqwnJ2ozFhsxtRKpNv1W00]--></g></svg>