<svg xmlns="http://www.w3.org/2000/svg" xmlns:xlink="http://www.w3.org/1999/xlink" contentStyleType="text/css" height="229px" preserveAspectRatio="none" style="width:1013px;height:229px;background:#FFFFFF;" version="1.1" viewBox="0 0 1013 229" width="1013px" zoomAndPan="magnify"><defs/><g><!--entity IDataCache--><g id="elem_IDataCache"><ellipse cx="455.5" cy="84.8659" fill="#F1F1F1" rx="8" ry="8" style="stroke:#181818;stroke-width:0.5;"/><text fill="#000000" font-family="sans-serif" font-size="14" lengthAdjust="spacing" textLength="96" x="407.5" y="114.861">Data Interface</text></g><!--entity DataCache--><g id="elem_DataCache"><rect fill="#F1F1F1" height="46.2969" rx="2.5" ry="2.5" style="stroke:#181818;stroke-width:0.5;" width="116" x="397.5" y="177.1559"/><rect fill="#F1F1F1" height="10" style="stroke:#181818;stroke-width:0.5;" width="15" x="493.5" y="182.1559"/><rect fill="#F1F1F1" height="2" style="stroke:#181818;stroke-width:0.5;" width="4" x="491.5" y="184.1559"/><rect fill="#F1F1F1" height="2" style="stroke:#181818;stroke-width:0.5;" width="4" x="491.5" y="188.1559"/><text fill="#000000" font-family="sans-serif" font-size="14" lengthAdjust="spacing" textLength="76" x="412.5" y="210.151">DataCache</text></g><!--entity Data Producer--><g id="elem_Data Producer"><rect fill="#F1F1F1" height="46.2969" rx="2.5" ry="2.5" style="stroke:#181818;stroke-width:0.5;" width="139" x="7" y="61.7159"/><rect fill="#F1F1F1" height="10" style="stroke:#181818;stroke-width:0.5;" width="15" x="126" y="66.7159"/><rect fill="#F1F1F1" height="2" style="stroke:#181818;stroke-width:0.5;" width="4" x="124" y="68.7159"/><rect fill="#F1F1F1" height="2" style="stroke:#181818;stroke-width:0.5;" width="4" x="124" y="72.7159"/><text fill="#000000" font-family="sans-serif" font-size="14" lengthAdjust="spacing" textLength="99" x="22" y="94.711">Data Producer</text></g><!--entity telemetry\nservice--><g id="elem_telemetry\nservice"><rect fill="#F1F1F1" height="62.5938" rx="2.5" ry="2.5" style="stroke:#181818;stroke-width:0.5;" width="105" x="902" y="53.5659"/><rect fill="#F1F1F1" height="10" style="stroke:#181818;stroke-width:0.5;" width="15" x="987" y="58.5659"/><rect fill="#F1F1F1" height="2" style="stroke:#181818;stroke-width:0.5;" width="4" x="985" y="60.5659"/><rect fill="#F1F1F1" height="2" style="stroke:#181818;stroke-width:0.5;" width="4" x="985" y="64.5659"/><text fill="#000000" font-family="sans-serif" font-size="14" lengthAdjust="spacing" textLength="65" x="917" y="86.561">telemetry</text><text fill="#000000" font-family="sans-serif" font-size="14" lengthAdjust="spacing" textLength="49" x="917" y="102.8579">service</text></g><!--entity beacons\nservice--><g id="elem_beacons\nservice"><rect fill="#F1F1F1" height="62.5938" rx="2.5" ry="2.5" style="stroke:#181818;stroke-width:0.5;" width="100" x="767.5" y="53.5659"/><rect fill="#F1F1F1" height="10" style="stroke:#181818;stroke-width:0.5;" width="15" x="847.5" y="58.5659"/><rect fill="#F1F1F1" height="2" style="stroke:#181818;stroke-width:0.5;" width="4" x="845.5" y="60.5659"/><rect fill="#F1F1F1" height="2" style="stroke:#181818;stroke-width:0.5;" width="4" x="845.5" y="64.5659"/><text fill="#000000" font-family="sans-serif" font-size="14" lengthAdjust="spacing" textLength="60" x="782.5" y="86.561">beacons</text><text fill="#000000" font-family="sans-serif" font-size="14" lengthAdjust="spacing" textLength="49" x="782.5" y="102.8579">service</text></g><!--link IDataCache to DataCache--><g id="link_IDataCache_DataCache"><path d="M455.5,94.0159 C455.5,111.1959 455.5,151.5759 455.5,177.0459 " fill="none" id="IDataCache-DataCache" style="stroke:#181818;stroke-width:1.0;"/></g><!--link Data Producer to IDataCache--><g id="link_Data Producer_IDataCache"><path d="M146.46,84.8659 C241.85,84.8659 399.55,84.8659 440.17,84.8659 " fill="none" id="Data Producer-to-IDataCache" style="stroke:#181818;stroke-width:1.0;stroke-dasharray:7.0,7.0;"/><polygon fill="#181818" points="446.17,84.8659,437.17,80.8659,441.17,84.8659,437.17,88.8659,446.17,84.8659" style="stroke:#181818;stroke-width:1.0;"/><text fill="#000000" font-family="sans-serif" font-size="13" font-style="italic" lengthAdjust="spacing" textLength="22" x="164.25" y="77.9328">&lt;&lt;</text><text fill="#000000" font-family="sans-serif" font-size="13" font-style="italic" font-weight="bold" lengthAdjust="spacing" textLength="198" x="186.25" y="77.9328">dc_set_&lt;data name&gt;_data</text><text fill="#000000" font-family="sans-serif" font-size="13" font-style="italic" lengthAdjust="spacing" textLength="44" x="384.25" y="77.9328">(...)&gt;&gt;</text></g><!--reverse link IDataCache to telemetry\nservice--><g id="link_IDataCache_telemetry\nservice"><path d="M468.7922,71.1828 C484.3822,55.6628 513.85,29.5559 549.5,18.1959 C577.87,9.1559 788.48,11.5159 817.5,18.1959 C847.53,25.1159 878.6,39.5459 903.54,53.2159 " fill="none" id="IDataCache-backto-telemetry\nservice" style="stroke:#181818;stroke-width:1.0;stroke-dasharray:7.0,7.0;"/><polygon fill="#181818" points="464.54,75.4159,473.7403,71.9011,468.0835,71.8883,468.0962,66.2315,464.54,75.4159" style="stroke:#181818;stroke-width:1.0;"/><text fill="#000000" font-family="sans-serif" font-size="13" font-style="italic" lengthAdjust="spacing" textLength="22" x="550.5" y="19.6328">&lt;&lt;</text><text fill="#000000" font-family="sans-serif" font-size="13" font-style="italic" font-weight="bold" lengthAdjust="spacing" textLength="200" x="572.5" y="19.6328">dc_get_&lt;data name&gt;_data</text><text fill="#000000" font-family="sans-serif" font-size="13" font-style="italic" lengthAdjust="spacing" textLength="44" x="772.5" y="19.6328">(...)&gt;&gt;</text></g><!--reverse link IDataCache to beacons\nservice--><g id="link_IDataCache_beacons\nservice"><path d="M470.81,84.8659 C512.81,84.8659 680.31,84.8659 767.3,84.8659 " fill="none" id="IDataCache-backto-beacons\nservice" style="stroke:#181818;stroke-width:1.0;stroke-dasharray:7.0,7.0;"/><polygon fill="#181818" points="464.81,84.8659,473.81,88.8659,469.81,84.8659,473.81,80.8659,464.81,84.8659" style="stroke:#181818;stroke-width:1.0;"/><text fill="#000000" font-family="sans-serif" font-size="13" font-style="italic" lengthAdjust="spacing" textLength="22" x="483" y="77.9328">&lt;&lt;</text><text fill="#000000" font-family="sans-serif" font-size="13" font-style="italic" font-weight="bold" lengthAdjust="spacing" textLength="200" x="505" y="77.9328">dc_get_&lt;data name&gt;_data</text><text fill="#000000" font-family="sans-serif" font-size="13" font-style="italic" lengthAdjust="spacing" textLength="44" x="705" y="77.9328">(...)&gt;&gt;</text></g><!--SRC=[hSmn3u8m40NWdLznOTA1iflBBRgmkGCXHtj04sYJjchyzug9XiaukBsxb_TLBaaOM0jK9qvyP3q9S8HylQ1wjtcsgGlZRww0-lDfirU6S_3ceYMqe88TfwHeenu0BI5YJqPtKLA7PjquNeIwDMBPqqufjIV2qb9M9vbbaHJkZOiIhbRB4vvb-EAElxYziFOk_bLz0000]--></g></svg>